SplineFontDB: 3.2
FontName: PerfectDOSVGA437Complete
FullName: Perfect DOS VGA 437 Complete
FamilyName: Perfect DOS VGA 437 Complete
Weight: Book
Copyright: http://www.fatorcaos.com.br
FontLog: "Created by merging missing glyphs from PerfectDOSVGA437Win into PerfectDOSVGA437. No actual changes made."
Version: 2003; 1.0
ItalicAngle: 0
UnderlinePosition: -256
UnderlineWidth: 256
Ascent: 3072
Descent: 1024
InvalidEm: 0
sfntRevision: 0x00010000
LayerCount: 2
Layer: 0 1 "Back" 1
Layer: 1 1 "Fore" 0
XUID: [1021 356 -1799291937 9568955]
StyleMap: 0x0040
FSType: 0
OS2Version: 3
OS2_WeightWidthSlopeOnly: 0
OS2_UseTypoMetrics: 0
CreationTime: 1056774039
ModificationTime: 1766003658
PfmFamily: 17
TTFWeight: 400
TTFWidth: 5
LineGap: 0
VLineGap: 0
Panose: 2 0 0 9 0 0 0 0 0 0
OS2TypoAscent: 3072
OS2TypoAOffset: 0
OS2TypoDescent: -1024
OS2TypoDOffset: 0
OS2TypoLinegap: 0
OS2WinAscent: 3072
OS2WinAOffset: 0
OS2WinDescent: 1024
OS2WinDOffset: 0
HheadAscent: 3072
HheadAOffset: 0
HheadDescent: -1024
HheadDOffset: 0
OS2SubXSize: 512
OS2SubYSize: 512
OS2SubXOff: 0
OS2SubYOff: 1024
OS2SupXSize: 512
OS2SupYSize: 512
OS2SupXOff: 0
OS2SupYOff: 1024
OS2StrikeYSize: 512
OS2StrikeYPos: 2048
OS2CapHeight: 3072
OS2XHeight: 1792
OS2Vendor: 'SWAP'
OS2CodePages: 20000111.40000000
OS2UnicodeRanges: 8000002f.0000004a.00000000.00000000
MarkAttachClasses: 1
DEI: 91125
TtTable: prep
PUSHW_1
 0
CALL
SVTCA[y-axis]
PUSHW_3
 1
 4
 7
CALL
PUSHW_1
 0
DUP
RCVT
RDTG
ROUND[Black]
RTG
WCVTP
EndTTInstrs
TtTable: fpgm
PUSHW_1
 0
FDEF
MPPEM
PUSHW_1
 0
LT
IF
PUSHB_2
 1
 1
INSTCTRL
EIF
PUSHW_1
 511
SCANCTRL
PUSHW_1
 68
SCVTCI
PUSHW_2
 0
 3
SDS
SDB
ENDF
PUSHW_1
 1
FDEF
DUP
DUP
RCVT
ROUND[Black]
WCVTP
PUSHB_1
 1
ADD
ENDF
PUSHW_1
 2
FDEF
PUSHW_1
 1
LOOPCALL
POP
ENDF
PUSHW_1
 3
FDEF
DUP
GC[cur]
PUSHB_1
 3
CINDEX
GC[cur]
GT
IF
SWAP
EIF
DUP
ROLL
DUP
ROLL
MD[grid]
ABS
ROLL
DUP
GC[cur]
DUP
ROUND[Grey]
SUB
ABS
PUSHB_1
 4
CINDEX
GC[cur]
DUP
ROUND[Grey]
SUB
ABS
GT
IF
SWAP
NEG
ROLL
EIF
MDAP[rnd]
DUP
PUSHB_1
 0
GTEQ
IF

StartChar: uni0002
Encoding: 2 2 1
Width: 2304
GlyphClass: 1
Flags: W
LayerCount: 2
Fore
SplineSet
1536 1792 m 1,0,-1
 1536 2048 l 1,1,-1
 1280 2048 l 1,2,-1
 1280 1792 l 1,3,-1
 1536 1792 l 1,0,-1
768 1792 m 1,4,-1
 768 2048 l 1,5,-1
 512 2048 l 1,6,-1
 512 1792 l 1,7,-1
 768 1792 l 1,4,-1
1280 768 m 1,8,-1
 1280 1024 l 1,9,-1
 1536 1024 l 1,10,-1
 1536 1280 l 1,11,-1
 512 1280 l 1,12,-1
 512 1024 l 1,13,-1
 768 1024 l 1,14,-1
 768 768 l 1,15,-1
 1280 768 l 1,8,-1
0 2304 m 1,16,-1
 256 2304 l 1,17,-1
 256 2560 l 1,18,-1
 1792 2560 l 1,19,-1
 1792 2304 l 1,20,-1
 2048 2304 l 1,21,-1
 2048 256 l 1,22,-1
 1792 256 l 1,23,-1
 1792 0 l 1,24,-1
 256 0 l 1,25,-1
 256 256 l 1,26,-1
 0 256 l 1,27,-1
 0 2304 l 1,16,-1
EndSplineSet
Validated: 1
EndChar

StartChar: uni0003
Encoding: 3 3 2
Width: 2304
GlyphClass: 1
Flags: W
LayerCount: 2
Fore
SplineSet
512 512 m 1,0,-1
 256 512 l 1,1,-1
 256 768 l 1,2,-1
 0 768 l 1,3,-1
 0 1792 l 1,4,-1
 256 1792 l 1,5,-1
 256 2048 l 1,6,-1
 768 2048 l 1,7,-1
 768 1792 l 1,8,-1
 1024 1792 l 1,9,-1
 1024 2048 l 1,10,-1
 1536 2048 l 1,11,-1
 1536 1792 l 1,12,-1
 1792 1792 l 1,13,-1
 1792 768 l 1,14,-1
 1536 768 l 1,15,-1
 1536 512 l 1,16,-1
 1280 512 l 1,17,-1
 1280 256 l 1,18,-1
 1024 256 l 1,19,-1
 1024 0 l 1,20,-1
 768 0 l 1,21,-1
 768 256 l 1,22,-1
 512 256 l 1,23,-1
 512 512 l 1,0,-1
EndSplineSet
Validated: 1
EndChar

StartChar: uni0004
Encoding: 4 4 3
Width: 2304
GlyphClass: 1
Flags: W
LayerCount: 2
Fore
SplineSet
1536 768 m 1,0,-1
 1280 768 l 1,1,-1
 1280 512 l 1,2,-1
 1024 512 l 1,3,-1
 1024 256 l 1,4,-1
 768 256 l 1,5,-1
 768 512 l 1,6,-1
 512 512 l 1,7,-1
 512 768 l 1,8,-1
 256 768 l 1,9,-1
 256 1024 l 1,10,-1
 0 1024 l 1,11,-1
 0 1280 l 1,12,-1
 256 1280 l 1,13,-1
 256 1536 l 1,14,-1
 512 1536 l 1,15,-1
 512 1792 l 1,16,-1
 768 1792 l 1,17,-1
 768 2048 l 1,18,-1
 1024 2048 l 1,19,-1
 1024 1792 l 1,20,-1
 1280 1792 l 1,21,-1
 1280 1536 l 1,22,-1
 1536 1536 l 1,23,-1
 1536 1280 l 1,24,-1
 1792 1280 l 1,25,-1
 1792 1024 l 1,26,-1
 1536 1024 l 1,27,-1
 1536 768 l 1,0,-1
EndSplineSet
Validated: 1
EndChar

StartChar: uni0005
Encoding: 5 5 4
Width: 2304
GlyphClass: 1
Flags: W
LayerCount: 2
Fore
SplineSet
1280 256 m 1,0,-1
 1536 256 l 1,1,-1
 1536 0 l 1,2,-1
 512 0 l 1,3,-1
 512 256 l 1,4,-1
 768 256 l 1,5,-1
 768 766 l 1,6,-1
 770 768 l 1,7,-1
 1280 768 l 1,8,-1
 1280 256 l 1,0,-1
768 2304 m 1,9,-1
 1280 2304 l 1,10,-1
 1280 2048 l 1,11,-1
 1536 2048 l 1,12,-1
 1536 1536 l 1,13,-1
 2048 1536 l 1,14,-1
 2048 768 l 1,15,-1
 1280 768 l 1,16,-1
 1280 1536 l 1,17,-1
 768 1536 l 1,18,-1
 768 768 l 1,19,-1
 0 768 l 1,20,-1
 0 1536 l 1,21,-1
 512 1536 l 1,22,-1
 512 2048 l 1,23,-1
 768 2048 l 1,24,-1
 768 2304 l 1,9,-1
EndSplineSet
Validated: 5
EndChar

StartChar: uni0006
Encoding: 6 6 5
Width: 2304
GlyphClass: 1
Flags: W
LayerCount: 2
Fore
SplineSet
0 1536 m 1,0,-1
 256 1536 l 1,1,-1
 256 1792 l 1,2,-1
 512 1792 l 1,3,-1
 512 2048 l 1,4,-1
 768 2048 l 1,5,-1
 768 2304 l 1,6,-1
 1280 2304 l 1,7,-1
 1280 2048 l 1,8,-1
 1536 2048 l 1,9,-1
 1536 1792 l 1,10,-1
 1792 1792 l 1,11,-1
 1792 1536 l 1,12,-1
 2048 1536 l 1,13,-1
 2048 1024 l 1,14,-1
 1792 1024 l 1,15,-1
 1792 768 l 1,16,-1
 1280 768 l 1,17,-1
 1280 256 l 1,18,-1
 1536 256 l 1,19,-1
 1536 0 l 1,20,-1
 512 0 l 1,21,-1
 512 256 l 1,22,-1
 768 256 l 1,23,-1
 768 768 l 1,24,-1
 256 768 l 1,25,-1
 256 1024 l 1,26,-1
 0 1024 l 1,27,-1
 0 1536 l 1,0,-1
EndSplineSet
Validated: 1
EndChar

StartChar: uni0007
Encoding: 7 7 6
Width: 2304
GlyphClass: 1
Flags: W
LayerCount: 2
Fore
SplineSet
512 1280 m 1,0,-1
 768 1280 l 1,1,-1
 768 1536 l 1,2,-1
 1280 1536 l 1,3,-1
 1280 1280 l 1,4,-1
 1536 1280 l 1,5,-1
 1536 768 l 1,6,-1
 1280 768 l 1,7,-1
 1280 512 l 1,8,-1
 768 512 l 1,9,-1
 768 768 l 1,10,-1
 512 768 l 1,11,-1
 512 1280 l 1,0,-1
EndSplineSet
Validated: 1
EndChar

StartChar: uni0008
Encoding: 8 8 7
Width: 2304
GlyphClass: 1
Flags: W
LayerCount: 2
Fore
SplineSet
1280 512 m 1,0,-1
 1280 768 l 1,1,-1
 1536 768 l 1,2,-1
 1536 1280 l 1,3,-1
 1280 1280 l 1,4,-1
 1280 1536 l 1,5,-1
 768 1536 l 1,6,-1
 768 1280 l 1,7,-1
 512 1280 l 1,8,-1
 512 768 l 1,9,-1
 768 768 l 1,10,-1
 768 512 l 1,11,-1
 1280 512 l 1,0,-1
0 3072 m 1,12,-1
 2048 3072 l 1,13,-1
 2048 -1024 l 1,14,-1
 0 -1024 l 1,15,-1
 0 3072 l 1,12,-1
EndSplineSet
Validated: 1
EndChar

StartChar: uni0009
Encoding: 9 9 8
Width: 2304
GlyphClass: 1
Flags: W
LayerCount: 2
Fore
SplineSet
768 512 m 1,0,-1
 1280 512 l 1,1,-1
 1280 768 l 1,2,-1
 1536 768 l 1,3,-1
 1536 1280 l 1,4,-1
 1280 1280 l 1,5,-1
 1280 1536 l 1,6,-1
 768 1536 l 1,7,-1
 768 1280 l 1,8,-1
 512 1280 l 1,9,-1
 512 768 l 1,10,-1
 768 768 l 1,11,-1
 768 512 l 1,0,-1
256 1536 m 1,12,-1
 512 1536 l 1,13,-1
 512 1792 l 1,14,-1
 1536 1792 l 1,15,-1
 1536 1536 l 1,16,-1
 1792 1536 l 1,17,-1
 1792 512 l 1,18,-1
 1536 512 l 1,19,-1
 1536 256 l 1,20,-1
 512 256 l 1,21,-1
 512 512 l 1,22,-1
 256 512 l 1,23,-1
 256 1536 l 1,12,-1
EndSplineSet
Validated: 1
EndChar

StartChar: uni000A
Encoding: 10 10 9
Width: 2304
GlyphClass: 1
Flags: W
LayerCount: 2
Fore
SplineSet
1280 512 m 1,0,-1
 768 512 l 1,1,-1
 768 768 l 1,2,-1
 512 768 l 1,3,-1
 512 1280 l 1,4,-1
 768 1280 l 1,5,-1
 768 1536 l 1,6,-1
 1280 1536 l 1,7,-1
 1280 1280 l 1,8,-1
 1536 1280 l 1,9,-1
 1536 768 l 1,10,-1
 1280 768 l 1,11,-1
 1280 512 l 1,0,-1
1536 256 m 1,12,-1
 1536 512 l 1,13,-1
 1792 512 l 1,14,-1
 1792 1536 l 1,15,-1
 1536 1536 l 1,16,-1
 1536 1792 l 1,17,-1
 512 1792 l 1,18,-1
 512 1536 l 1,19,-1
 256 1536 l 1,20,-1
 256 512 l 1,21,-1
 512 512 l 1,22,-1
 512 256 l 1,23,-1
 1536 256 l 1,12,-1
0 3072 m 1,24,-1
 2048 3072 l 1,25,-1
 2048 -1024 l 1,26,-1
 0 -1024 l 1,27,-1
 0 3072 l 1,24,-1
EndSplineSet
Validated: 1
EndChar

StartChar: uni000B
Encoding: 11 11 10
Width: 2304
GlyphClass: 1
Flags: W
LayerCount: 2
Fore
SplineSet
1024 1280 m 1,0,-1
 512 1280 l 1,1,-1
 512 256 l 1,2,-1
 1024 256 l 1,3,-1
 1024 1280 l 1,0,-1
1536 2048 m 1,4,-1
 1280 2048 l 1,5,-1
 1280 1792 l 1,6,-1
 1024 1792 l 1,7,-1
 1024 1536 l 1,8,-1
 1280 1536 l 1,9,-1
 1280 1280 l 1,10,-1
 1536 1280 l 1,11,-1
 1536 256 l 1,12,-1
 1280 256 l 1,13,-1
 1280 0 l 1,14,-1
 256 0 l 1,15,-1
 256 256 l 1,16,-1
 0 256 l 1,17,-1
 0 1280 l 1,18,-1
 256 1280 l 1,19,-1
 256 1536 l 1,20,-1
 512 1536 l 1,21,-1
 512 1792 l 1,22,-1
 768 1792 l 1,23,-1
 768 2048 l 1,24,-1
 1024 2048 l 1,25,-1
 1024 2304 l 1,26,-1
 768 2304 l 1,27,-1
 768 2560 l 1,28,-1
 1792 2560 l 1,29,-1
 1792 1536 l 1,30,-1
 1536 1536 l 1,31,-1
 1536 2048 l 1,4,-1
EndSplineSet
Validated: 1
EndChar

StartChar: uni000C
Encoding: 12 12 11
Width: 2304
GlyphClass: 1
Flags: W
LayerCount: 2
Fore
SplineSet
1024 2304 m 1,0,-1
 512 2304 l 1,1,-1
 512 1280 l 1,2,-1
 1024 1280 l 1,3,-1
 1024 2304 l 1,0,-1
0 768 m 1,4,-1
 512 768 l 1,5,-1
 512 1024 l 1,6,-1
 256 1024 l 1,7,-1
 256 1280 l 1,8,-1
 0 1280 l 1,9,-1
 0 2304 l 1,10,-1
 256 2304 l 1,11,-1
 256 2560 l 1,12,-1
 1280 2560 l 1,13,-1
 1280 2304 l 1,14,-1
 1536 2304 l 1,15,-1
 1536 1280 l 1,16,-1
 1280 1280 l 1,17,-1
 1280 1024 l 1,18,-1
 1024 1024 l 1,19,-1
 1024 768 l 1,20,-1
 1536 768 l 1,21,-1
 1536 512 l 1,22,-1
 1024 512 l 1,23,-1
 1024 0 l 1,24,-1
 512 0 l 1,25,-1
 512 512 l 1,26,-1
 0 512 l 1,27,-1
 0 768 l 1,4,-1
EndSplineSet
Validated: 1
EndChar

StartChar: uni000D
Encoding: 13 13 12
Width: 2304
GlyphClass: 1
Flags: W
LayerCount: 2
Fore
SplineSet
1024 2048 m 1,0,-1
 1536 2048 l 1,1,-1
 1536 2304 l 1,2,-1
 1024 2304 l 1,3,-1
 1024 2048 l 1,0,-1
1024 1792 m 1,4,-1
 1024 256 l 1,5,-1
 768 256 l 1,6,-1
 768 0 l 1,7,-1
 0 0 l 1,8,-1
 0 512 l 1,9,-1
 256 512 l 1,10,-1
 256 768 l 1,11,-1
 512 768 l 1,12,-1
 512 2560 l 1,13,-1
 2048 2560 l 1,14,-1
 2048 1792 l 1,15,-1
 1024 1792 l 1,4,-1
EndSplineSet
Validated: 1
EndChar

StartChar: uni000E
Encoding: 14 14 13
Width: 2304
GlyphClass: 1
Flags: W
LayerCount: 2
Fore
SplineSet
768 2048 m 1,0,-1
 1536 2048 l 1,1,-1
 1536 2304 l 1,2,-1
 768 2304 l 1,3,-1
 768 2048 l 1,0,-1
1280 1024 m 1,4,-1
 1536 1024 l 1,5,-1
 1536 1792 l 1,6,-1
 768 1792 l 1,7,-1
 768 256 l 1,8,-1
 512 256 l 1,9,-1
 512 0 l 1,10,-1
 0 0 l 1,11,-1
 0 768 l 1,12,-1
 256 768 l 1,13,-1
 256 2560 l 1,14,-1
 2048 2560 l 1,15,-1
 2048 512 l 1,16,-1
 1792 512 l 1,17,-1
 1792 256 l 1,18,-1
 1280 256 l 1,19,-1
 1280 1024 l 1,4,-1
EndSplineSet
Validated: 1
EndChar

StartChar: uni000F
Encoding: 15 15 14
Width: 2304
GlyphClass: 1
Flags: W
LayerCount: 2
Fore
SplineSet
0 768 m 1,0,-1
 512 768 l 1,1,-1
 512 512 l 1,2,-1
 0 512 l 1,3,-1
 0 768 l 1,0,-1
768 1024 m 1,4,-1
 1280 1024 l 1,5,-1
 1280 1280 l 1,6,-1
 768 1280 l 1,7,-1
 768 1024 l 1,4,-1
1536 1792 m 1,8,-1
 2048 1792 l 1,9,-1
 2048 1536 l 1,10,-1
 1536 1536 l 1,11,-1
 1536 1792 l 1,8,-1
1536 768 m 1,12,-1
 1280 768 l 1,13,-1
 1280 0 l 1,14,-1
 768 0 l 1,15,-1
 768 768 l 1,16,-1
 512 768 l 1,17,-1
 512 1024 l 1,18,-1
 0 1024 l 1,19,-1
 0 1280 l 1,20,-1
 512 1280 l 1,21,-1
 512 1536 l 1,22,-1
 0 1536 l 1,23,-1
 0 1792 l 1,24,-1
 512 1792 l 1,25,-1
 512 1536 l 1,26,-1
 768 1536 l 1,27,-1
 768 2304 l 1,28,-1
 1280 2304 l 1,29,-1
 1280 1536 l 1,30,-1
 1536 1536 l 1,31,-1
 1536 1280 l 1,32,-1
 2048 1280 l 1,33,-1
 2048 1024 l 1,34,-1
 1536 1024 l 1,35,-1
 1536 768 l 1,36,-1
 2048 768 l 1,37,-1
 2048 512 l 1,38,-1
 1536 512 l 1,39,-1
 1536 768 l 1,12,-1
EndSplineSet
Validated: 5
EndChar

StartChar: uni0010
Encoding: 16 16 15
Width: 2304
GlyphClass: 1
Flags: W
LayerCount: 2
Fore
SplineSet
1280 1024 m 1,0,-1
 1024 1024 l 1,1,-1
 1024 768 l 1,2,-1
 768 768 l 1,3,-1
 768 512 l 1,4,-1
 512 512 l 1,5,-1
 512 256 l 1,6,-1
 256 256 l 1,7,-1
 256 0 l 1,8,-1
 0 0 l 1,9,-1
 0 2816 l 1,10,-1
 256 2816 l 1,11,-1
 256 2560 l 1,12,-1
 512 2560 l 1,13,-1
 512 2304 l 1,14,-1
 768 2304 l 1,15,-1
 768 2048 l 1,16,-1
 1024 2048 l 1,17,-1
 1024 1792 l 1,18,-1
 1280 1792 l 1,19,-1
 1280 1536 l 1,20,-1
 1792 1536 l 1,21,-1
 1792 1280 l 1,22,-1
 1280 1280 l 1,23,-1
 1280 1024 l 1,0,-1
EndSplineSet
Validated: 1
EndChar

StartChar: uni0011
Encoding: 17 17 16
Width: 2304
GlyphClass: 1
Flags: W
LayerCount: 2
Fore
SplineSet
0 1536 m 1,0,-1
 512 1536 l 1,1,-1
 512 1792 l 1,2,-1
 768 1792 l 1,3,-1
 768 2048 l 1,4,-1
 1024 2048 l 1,5,-1
 1024 2304 l 1,6,-1
 1280 2304 l 1,7,-1
 1280 2560 l 1,8,-1
 1536 2560 l 1,9,-1
 1536 2816 l 1,10,-1
 1792 2816 l 1,11,-1
 1792 0 l 1,12,-1
 1536 0 l 1,13,-1
 1536 256 l 1,14,-1
 1280 256 l 1,15,-1
 1280 512 l 1,16,-1
 1024 512 l 1,17,-1
 1024 768 l 1,18,-1
 768 768 l 1,19,-1
 768 1024 l 1,20,-1
 512 1024 l 1,21,-1
 512 1280 l 1,22,-1
 0 1280 l 1,23,-1
 0 1536 l 1,0,-1
EndSplineSet
Validated: 1
EndChar

StartChar: uni0012
Encoding: 18 18 17
Width: 2304
GlyphClass: 1
Flags: W
LayerCount: 2
Fore
SplineSet
768 512 m 1,0,-1
 512 512 l 1,1,-1
 512 768 l 1,2,-1
 256 768 l 1,3,-1
 256 1024 l 1,4,-1
 768 1024 l 1,5,-1
 768 1792 l 1,6,-1
 256 1792 l 1,7,-1
 256 2048 l 1,8,-1
 512 2048 l 1,9,-1
 512 2304 l 1,10,-1
 768 2304 l 1,11,-1
 768 2560 l 1,12,-1
 1280 2560 l 1,13,-1
 1280 2304 l 1,14,-1
 1536 2304 l 1,15,-1
 1536 2048 l 1,16,-1
 1792 2048 l 1,17,-1
 1792 1792 l 1,18,-1
 1280 1792 l 1,19,-1
 1280 1024 l 1,20,-1
 1792 1024 l 1,21,-1
 1792 768 l 1,22,-1
 1536 768 l 1,23,-1
 1536 512 l 1,24,-1
 1280 512 l 1,25,-1
 1280 256 l 1,26,-1
 768 256 l 1,27,-1
 768 512 l 1,0,-1
EndSplineSet
Validated: 1
EndChar

StartChar: uni0013
Encoding: 19 19 18
Width: 2304
GlyphClass: 1
Flags: W
LayerCount: 2
Fore
SplineSet
1280 512 m 1,0,-1
 1792 512 l 1,1,-1
 1792 0 l 1,2,-1
 1280 0 l 1,3,-1
 1280 512 l 1,0,-1
256 512 m 1,4,-1
 768 512 l 1,5,-1
 768 0 l 1,6,-1
 256 0 l 1,7,-1
 256 512 l 1,4,-1
1280 2560 m 1,8,-1
 1792 2560 l 1,9,-1
 1792 768 l 1,10,-1
 1280 768 l 1,11,-1
 1280 2560 l 1,8,-1
256 2560 m 1,12,-1
 768 2560 l 1,13,-1
 768 768 l 1,14,-1
 256 768 l 1,15,-1
 256 2560 l 1,12,-1
EndSplineSet
Validated: 1
EndChar

StartChar: uni0014
Encoding: 20 20 19
Width: 2304
GlyphClass: 1
Flags: W
LayerCount: 2
Fore
SplineSet
512 1536 m 1,0,-1
 768 1536 l 1,1,-1
 768 2304 l 1,2,-1
 512 2304 l 1,3,-1
 512 1536 l 1,0,-1
0 2304 m 1,4,-1
 256 2304 l 1,5,-1
 256 2560 l 1,6,-1
 2048 2560 l 1,7,-1
 2048 0 l 1,8,-1
 1536 0 l 1,9,-1
 1536 2304 l 1,10,-1
 1280 2304 l 1,11,-1
 1280 0 l 1,12,-1
 768 0 l 1,13,-1
 768 1280 l 1,14,-1
 256 1280 l 1,15,-1
 256 1536 l 1,16,-1
 0 1536 l 1,17,-1
 0 2304 l 1,4,-1
EndSplineSet
Validated: 1
EndChar

StartChar: uni0015
Encoding: 21 21 20
Width: 2304
GlyphClass: 1
Flags: W
LayerCount: 2
Fore
SplineSet
1024 1024 m 1,0,-1
 1280 1024 l 1,1,-1
 1280 1536 l 1,2,-1
 1024 1536 l 1,3,-1
 1024 1792 l 1,4,-1
 768 1792 l 1,5,-1
 768 1536 l 1,6,-1
 512 1536 l 1,7,-1
 512 1024 l 1,8,-1
 768 1024 l 1,9,-1
 768 768 l 1,10,-1
 1024 768 l 1,11,-1
 1024 1024 l 1,0,-1
0 256 m 1,12,-1
 512 256 l 1,13,-1
 512 0 l 1,14,-1
 1280 0 l 1,15,-1
 1280 256 l 1,16,-1
 1024 256 l 1,17,-1
 1024 512 l 1,18,-1
 512 512 l 1,19,-1
 512 768 l 1,20,-1
 256 768 l 1,21,-1
 256 1024 l 1,22,-1
 0 1024 l 1,23,-1
 0 1536 l 1,24,-1
 256 1536 l 1,25,-1
 256 1792 l 1,26,-1
 512 1792 l 1,27,-1
 512 2048 l 1,28,-1
 256 2048 l 1,29,-1
 256 2304 l 1,30,-1
 0 2304 l 1,31,-1
 0 2560 l 1,32,-1
 256 2560 l 1,33,-1
 256 2816 l 1,34,-1
 1536 2816 l 1,35,-1
 1536 2560 l 1,36,-1
 1792 2560 l 1,37,-1
 1792 2304 l 1,38,-1
 1280 2304 l 1,39,-1
 1280 2560 l 1,40,-1
 512 2560 l 1,41,-1
 512 2304 l 1,42,-1
 768 2304 l 1,43,-1
 768 2048 l 1,44,-1
 1280 2048 l 1,45,-1
 1280 1792 l 1,46,-1
 1536 1792 l 1,47,-1
 1536 1536 l 1,48,-1
 1792 1536 l 1,49,-1
 1792 1024 l 1,50,-1
 1536 1024 l 1,51,-1
 1536 768 l 1,52,-1
 1280 768 l 1,53,-1
 1280 512 l 1,54,-1
 1536 512 l 1,55,-1
 1536 256 l 1,56,-1
 1792 256 l 1,57,-1
 1792 0 l 1,58,-1
 1536 0 l 1,59,-1
 1536 -256 l 1,60,-1
 256 -256 l 1,61,-1
 256 0 l 1,62,-1
 0 0 l 1,63,-1
 0 256 l 1,12,-1
EndSplineSet
Validated: 1
EndChar

StartChar: uni0016
Encoding: 22 22 21
Width: 2304
GlyphClass: 1
Flags: W
LayerCount: 2
Fore
SplineSet
0 1024 m 1,0,-1
 1792 1024 l 1,1,-1
 1792 0 l 1,2,-1
 0 0 l 1,3,-1
 0 1024 l 1,0,-1
EndSplineSet
Validated: 1
EndChar

StartChar: uni0017
Encoding: 23 23 22
Width: 2304
GlyphClass: 1
Flags: W
LayerCount: 2
Fore
SplineSet
256 2048 m 1,0,-1
 512 2048 l 1,1,-1
 512 2304 l 1,2,-1
 768 2304 l 1,3,-1
 768 2560 l 1,4,-1
 1280 2560 l 1,5,-1
 1280 2304 l 1,6,-1
 1536 2304 l 1,7,-1
 1536 2048 l 1,8,-1
 1792 2048 l 1,9,-1
 1792 1792 l 1,10,-1
 1280 1792 l 1,11,-1
 1280 1024 l 1,12,-1
 1792 1024 l 1,13,-1
 1792 768 l 1,14,-1
 1536 768 l 1,15,-1
 1536 512 l 1,16,-1
 1280 512 l 1,17,-1
 1280 256 l 1,18,-1
 1792 256 l 1,19,-1
 1792 0 l 1,20,-1
 256 0 l 1,21,-1
 256 256 l 1,22,-1
 768 256 l 1,23,-1
 768 512 l 1,24,-1
 512 512 l 1,25,-1
 512 768 l 1,26,-1
 256 768 l 1,27,-1
 256 1024 l 1,28,-1
 768 1024 l 1,29,-1
 768 1792 l 1,30,-1
 256 1792 l 1,31,-1
 256 2048 l 1,0,-1
EndSplineSet
Validated: 1
EndChar

StartChar: uni0018
Encoding: 24 24 23
Width: 2304
GlyphClass: 1
Flags: W
LayerCount: 2
Fore
SplineSet
256 2048 m 1,0,-1
 512 2048 l 1,1,-1
 512 2304 l 1,2,-1
 768 2304 l 1,3,-1
 768 2560 l 1,4,-1
 1280 2560 l 1,5,-1
 1280 2304 l 1,6,-1
 1536 2304 l 1,7,-1
 1536 2048 l 1,8,-1
 1792 2048 l 1,9,-1
 1792 1792 l 1,10,-1
 1280 1792 l 1,11,-1
 1280 0 l 1,12,-1
 768 0 l 1,13,-1
 768 1792 l 1,14,-1
 256 1792 l 1,15,-1
 256 2048 l 1,0,-1
EndSplineSet
Validated: 1
EndChar

StartChar: uni0019
Encoding: 25 25 24
Width: 2304
GlyphClass: 1
Flags: W
LayerCount: 2
Fore
SplineSet
256 768 m 1,0,-1
 768 768 l 1,1,-1
 768 2560 l 1,2,-1
 1280 2560 l 1,3,-1
 1280 768 l 1,4,-1
 1792 768 l 1,5,-1
 1792 512 l 1,6,-1
 1536 512 l 1,7,-1
 1536 256 l 1,8,-1
 1280 256 l 1,9,-1
 1280 0 l 1,10,-1
 768 0 l 1,11,-1
 768 256 l 1,12,-1
 512 256 l 1,13,-1
 512 512 l 1,14,-1
 256 512 l 1,15,-1
 256 768 l 1,0,-1
EndSplineSet
Validated: 1
EndChar

StartChar: uni001A
Encoding: 26 26 25
Width: 2304
GlyphClass: 1
Flags: W
LayerCount: 2
Fore
SplineSet
768 1792 m 1,0,-1
 1280 1792 l 1,1,-1
 1280 1536 l 1,2,-1
 1536 1536 l 1,3,-1
 1536 1280 l 1,4,-1
 1792 1280 l 1,5,-1
 1792 1024 l 1,6,-1
 1536 1024 l 1,7,-1
 1536 768 l 1,8,-1
 1280 768 l 1,9,-1
 1280 512 l 1,10,-1
 768 512 l 1,11,-1
 768 768 l 1,12,-1
 1024 768 l 1,13,-1
 1024 1024 l 1,14,-1
 0 1024 l 1,15,-1
 0 1280 l 1,16,-1
 1024 1280 l 1,17,-1
 1024 1536 l 1,18,-1
 768 1536 l 1,19,-1
 768 1792 l 1,0,-1
EndSplineSet
Validated: 1
EndChar

StartChar: uni001B
Encoding: 27 27 26
Width: 2304
GlyphClass: 1
Flags: W
LayerCount: 2
Fore
SplineSet
512 768 m 1,0,-1
 256 768 l 1,1,-1
 256 1024 l 1,2,-1
 0 1024 l 1,3,-1
 0 1280 l 1,4,-1
 256 1280 l 1,5,-1
 256 1536 l 1,6,-1
 512 1536 l 1,7,-1
 512 1792 l 1,8,-1
 1024 1792 l 1,9,-1
 1024 1536 l 1,10,-1
 768 1536 l 1,11,-1
 768 1280 l 1,12,-1
 1792 1280 l 1,13,-1
 1792 1024 l 1,14,-1
 768 1024 l 1,15,-1
 768 768 l 1,16,-1
 1024 768 l 1,17,-1
 1024 512 l 1,18,-1
 512 512 l 1,19,-1
 512 768 l 1,0,-1
EndSplineSet
Validated: 1
EndChar

StartChar: uni001C
Encoding: 28 28 27
Width: 2304
GlyphClass: 1
Flags: W
LayerCount: 2
Fore
SplineSet
0 1536 m 1,0,-1
 512 1536 l 1,1,-1
 512 768 l 1,2,-1
 1792 768 l 1,3,-1
 1792 512 l 1,4,-1
 0 512 l 1,5,-1
 0 1536 l 1,0,-1
EndSplineSet
Validated: 1
EndChar

StartChar: uni001D
Encoding: 29 29 28
Width: 2304
GlyphClass: 1
Flags: W
LayerCount: 2
Fore
SplineSet
1536 768 m 1,0,-1
 1280 768 l 1,1,-1
 1280 512 l 1,2,-1
 1024 512 l 1,3,-1
 1024 1024 l 1,4,-1
 768 1024 l 1,5,-1
 768 512 l 1,6,-1
 512 512 l 1,7,-1
 512 768 l 1,8,-1
 256 768 l 1,9,-1
 256 1024 l 1,10,-1
 0 1024 l 1,11,-1
 0 1280 l 1,12,-1
 256 1280 l 1,13,-1
 256 1536 l 1,14,-1
 512 1536 l 1,15,-1
 512 1792 l 1,16,-1
 768 1792 l 1,17,-1
 768 1280 l 1,18,-1
 1024 1280 l 1,19,-1
 1024 1792 l 1,20,-1
 1280 1792 l 1,21,-1
 1280 1536 l 1,22,-1
 1536 1536 l 1,23,-1
 1536 1280 l 1,24,-1
 1792 1280 l 1,25,-1
 1792 1024 l 1,26,-1
 1536 1024 l 1,27,-1
 1536 768 l 1,0,-1
EndSplineSet
Validated: 1
EndChar

StartChar: uni001E
Encoding: 30 30 29
Width: 2304
GlyphClass: 1
Flags: W
LayerCount: 2
Fore
SplineSet
0 768 m 1,0,-1
 256 768 l 1,1,-1
 256 1280 l 1,2,-1
 512 1280 l 1,3,-1
 512 1792 l 1,4,-1
 768 1792 l 1,5,-1
 768 2048 l 1,6,-1
 1024 2048 l 1,7,-1
 1024 1792 l 1,8,-1
 1280 1792 l 1,9,-1
 1280 1280 l 1,10,-1
 1536 1280 l 1,11,-1
 1536 768 l 1,12,-1
 1792 768 l 1,13,-1
 1792 256 l 1,14,-1
 0 256 l 1,15,-1
 0 768 l 1,0,-1
EndSplineSet
Validated: 1
EndChar

StartChar: uni001F
Encoding: 31 31 30
Width: 2304
GlyphClass: 1
Flags: W
LayerCount: 2
Fore
SplineSet
1536 1024 m 1,0,-1
 1280 1024 l 1,1,-1
 1280 512 l 1,2,-1
 1024 512 l 1,3,-1
 1024 256 l 1,4,-1
 768 256 l 1,5,-1
 768 512 l 1,6,-1
 512 512 l 1,7,-1
 512 1024 l 1,8,-1
 256 1024 l 1,9,-1
 256 1536 l 1,10,-1
 0 1536 l 1,11,-1
 0 2048 l 1,12,-1
 1792 2048 l 1,13,-1
 1792 1536 l 1,14,-1
 1536 1536 l 1,15,-1
 1536 1024 l 1,0,-1
EndSplineSet
Validated: 1
EndChar

StartChar: exclam
Encoding: 33 33 32
Width: 2304
GlyphClass: 1
Flags: W
LayerCount: 2
Fore
SplineSet
768 512 m 1,0,-1
 1280 512 l 1,1,-1
 1280 0 l 1,2,-1
 768 0 l 1,3,-1
 768 512 l 1,0,-1
512 2304 m 1,4,-1
 768 2304 l 1,5,-1
 768 2560 l 1,6,-1
 1280 2560 l 1,7,-1
 1280 2304 l 1,8,-1
 1536 2304 l 1,9,-1
 1536 1536 l 1,10,-1
 1280 1536 l 1,11,-1
 1280 768 l 1,12,-1
 768 768 l 1,13,-1
 768 1536 l 1,14,-1
 512 1536 l 1,15,-1
 512 2304 l 1,4,-1
EndSplineSet
Validated: 1
EndChar

StartChar: quotedbl
Encoding: 34 34 33
Width: 2304
GlyphClass: 1
Flags: W
LayerCount: 2
Fore
SplineSet
1536 1792 m 1,0,-1
 1280 1792 l 1,1,-1
 1280 2816 l 1,2,-1
 1792 2816 l 1,3,-1
 1792 2048 l 1,4,-1
 1536 2048 l 1,5,-1
 1536 1792 l 1,0,-1
512 2048 m 1,6,-1
 256 2048 l 1,7,-1
 256 2816 l 1,8,-1
 768 2816 l 1,9,-1
 768 1792 l 1,10,-1
 512 1792 l 1,11,-1
 512 2048 l 1,6,-1
EndSplineSet
Validated: 1
EndChar

StartChar: numbersign
Encoding: 35 35 34
Width: 2304
GlyphClass: 1
Flags: W
LayerCount: 2
Fore
SplineSet
1024 768 m 1,0,-1
 1024 1536 l 1,1,-1
 768 1536 l 1,2,-1
 768 768 l 1,3,-1
 1024 768 l 1,0,-1
256 2304 m 1,4,-1
 768 2304 l 1,5,-1
 768 1792 l 1,6,-1
 1024 1792 l 1,7,-1
 1024 2304 l 1,8,-1
 1536 2304 l 1,9,-1
 1536 1792 l 1,10,-1
 1792 1792 l 1,11,-1
 1792 1536 l 1,12,-1
 1536 1536 l 1,13,-1
 1536 768 l 1,14,-1
 1792 768 l 1,15,-1
 1792 512 l 1,16,-1
 1536 512 l 1,17,-1
 1536 0 l 1,18,-1
 1024 0 l 1,19,-1
 1024 512 l 1,20,-1
 768 512 l 1,21,-1
 768 0 l 1,22,-1
 256 0 l 1,23,-1
 256 512 l 1,24,-1
 0 512 l 1,25,-1
 0 768 l 1,26,-1
 256 768 l 1,27,-1
 256 1536 l 1,28,-1
 0 1536 l 1,29,-1
 0 1792 l 1,30,-1
 256 1792 l 1,31,-1
 256 2304 l 1,4,-1
EndSplineSet
Validated: 1
EndChar

StartChar: dollar
Encoding: 36 36 35
Width: 2304
GlyphClass: 1
Flags: W
LayerCount: 2
Fore
SplineSet
1280 2304 m 1,0,-1
 512 2304 l 1,1,-1
 512 1536 l 1,2,-1
 1536 1536 l 1,3,-1
 1536 1280 l 1,4,-1
 1792 1280 l 1,5,-1
 1792 256 l 1,6,-1
 1536 256 l 1,7,-1
 1536 0 l 1,8,-1
 1280 0 l 1,9,-1
 1280 -512 l 1,10,-1
 768 -512 l 1,11,-1
 768 0 l 1,12,-1
 256 0 l 1,13,-1
 256 256 l 1,14,-1
 0 256 l 1,15,-1
 0 768 l 1,16,-1
 256 768 l 1,17,-1
 256 512 l 1,18,-1
 512 512 l 1,19,-1
 512 256 l 1,20,-1
 1280 256 l 1,21,-1
 1280 1280 l 1,22,-1
 256 1280 l 1,23,-1
 256 1536 l 1,24,-1
 0 1536 l 1,25,-1
 0 2304 l 1,26,-1
 256 2304 l 1,27,-1
 256 2560 l 1,28,-1
 768 2560 l 1,29,-1
 768 3072 l 1,30,-1
 1280 3072 l 1,31,-1
 1280 2560 l 1,32,-1
 1536 2560 l 1,33,-1
 1536 2304 l 1,34,-1
 1792 2304 l 1,35,-1
 1792 1792 l 1,36,-1
 1536 1792 l 1,37,-1
 1536 2048 l 1,38,-1
 1280 2048 l 1,39,-1
 1280 2304 l 1,0,-1
EndSplineSet
Validated: 1
EndChar

StartChar: uni0025
Encoding: 37 37 36
Width: 2304
GlyphClass: 1
Flags: W
LayerCount: 2
Fore
SplineSet
1280 512 m 1,0,-1
 1792 512 l 1,1,-1
 1792 0 l 1,2,-1
 1280 0 l 1,3,-1
 1280 512 l 1,0,-1
0 2048 m 1,4,-1
 512 2048 l 1,5,-1
 512 1536 l 1,6,-1
 0 1536 l 1,7,-1
 0 2048 l 1,4,-1
1536 1280 m 1,8,-1
 1280 1280 l 1,9,-1
 1280 1024 l 1,10,-1
 1024 1024 l 1,11,-1
 1024 768 l 1,12,-1
 768 768 l 1,13,-1
 768 512 l 1,14,-1
 512 512 l 1,15,-1
 512 256 l 1,16,-1
 256 256 l 1,17,-1
 256 0 l 1,18,-1
 0 0 l 1,19,-1
 0 512 l 1,20,-1
 256 512 l 1,21,-1
 256 768 l 1,22,-1
 512 768 l 1,23,-1
 512 1024 l 1,24,-1
 768 1024 l 1,25,-1
 768 1280 l 1,26,-1
 1024 1280 l 1,27,-1
 1024 1536 l 1,28,-1
 1280 1536 l 1,29,-1
 1280 1792 l 1,30,-1
 1536 1792 l 1,31,-1
 1536 2048 l 1,32,-1
 1792 2048 l 1,33,-1
 1792 1536 l 1,34,-1
 1536 1536 l 1,35,-1
 1536 1280 l 1,8,-1
EndSplineSet
Validated: 1
EndChar

StartChar: ampersand
Encoding: 38 38 37
Width: 2304
GlyphClass: 1
Flags: W
LayerCount: 2
Fore
SplineSet
1024 2304 m 1,0,-1
 768 2304 l 1,1,-1
 768 1792 l 1,2,-1
 1024 1792 l 1,3,-1
 1024 2304 l 1,0,-1
1280 1534 m 1,4,-1
 1282 1536 l 1,5,-1
 1792 1536 l 1,6,-1
 1792 1280 l 1,7,-1
 1536 1280 l 1,8,-1
 1536 256 l 1,9,-1
 1792 256 l 1,10,-1
 1792 0 l 1,11,-1
 1280 0 l 1,12,-1
 1280 256 l 1,13,-1
 1024 256 l 1,14,-1
 1024 1024 l 1,15,-1
 768 1024 l 1,16,-1
 768 1280 l 1,17,-1
 512 1280 l 1,18,-1
 512 256 l 1,19,-1
 1022 256 l 1,20,-1
 1024 251 l 1,21,-1
 1024 0 l 1,22,-1
 256 0 l 1,23,-1
 256 256 l 1,24,-1
 0 256 l 1,25,-1
 0 1280 l 1,26,-1
 256 1280 l 1,27,-1
 256 1536 l 1,28,-1
 512 1536 l 1,29,-1
 512 1792 l 1,30,-1
 256 1792 l 1,31,-1
 256 2304 l 1,32,-1
 512 2304 l 1,33,-1
 512 2560 l 1,34,-1
 1280 2560 l 1,35,-1
 1280 2304 l 1,36,-1
 1536 2304 l 1,37,-1
 1536 1792 l 1,38,-1
 1280 1792 l 1,39,-1
 1280 1536 l 1,40,-1
 1024 1536 l 1,41,-1
 1024 1280 l 1,42,-1
 1280 1280 l 1,43,-1
 1280 1534 l 1,4,-1
EndSplineSet
Validated: 1
EndChar

StartChar: quotesingle
Encoding: 39 39 38
Width: 2304
GlyphClass: 1
Flags: W
LayerCount: 2
Fore
SplineSet
256 2048 m 1,0,-1
 512 2048 l 1,1,-1
 512 2816 l 1,2,-1
 1024 2816 l 1,3,-1
 1024 2048 l 1,4,-1
 768 2048 l 1,5,-1
 768 1792 l 1,6,-1
 256 1792 l 1,7,-1
 256 2048 l 1,0,-1
EndSplineSet
Validated: 1
EndChar

StartChar: parenleft
Encoding: 40 40 39
Width: 2304
GlyphClass: 1
Flags: W
LayerCount: 2
Fore
SplineSet
512 2048 m 1,0,-1
 768 2048 l 1,1,-1
 768 2304 l 1,2,-1
 1024 2304 l 1,3,-1
 1024 2560 l 1,4,-1
 1536 2560 l 1,5,-1
 1536 2304 l 1,6,-1
 1280 2304 l 1,7,-1
 1280 2048 l 1,8,-1
 1024 2048 l 1,9,-1
 1024 512 l 1,10,-1
 1280 512 l 1,11,-1
 1280 256 l 1,12,-1
 1536 256 l 1,13,-1
 1536 0 l 1,14,-1
 1024 0 l 1,15,-1
 1024 256 l 1,16,-1
 768 256 l 1,17,-1
 768 512 l 1,18,-1
 512 512 l 1,19,-1
 512 2048 l 1,0,-1
EndSplineSet
Validated: 1
EndChar

StartChar: parenright
Encoding: 41 41 40
Width: 2304
GlyphClass: 1
Flags: W
LayerCount: 2
Fore
SplineSet
512 256 m 1,0,-1
 768 256 l 1,1,-1
 768 512 l 1,2,-1
 1024 512 l 1,3,-1
 1024 2048 l 1,4,-1
 768 2048 l 1,5,-1
 768 2304 l 1,6,-1
 512 2304 l 1,7,-1
 512 2560 l 1,8,-1
 1024 2560 l 1,9,-1
 1024 2304 l 1,10,-1
 1280 2304 l 1,11,-1
 1280 2048 l 1,12,-1
 1536 2048 l 1,13,-1
 1536 512 l 1,14,-1
 1280 512 l 1,15,-1
 1280 256 l 1,16,-1
 1024 256 l 1,17,-1
 1024 0 l 1,18,-1
 512 0 l 1,19,-1
 512 256 l 1,0,-1
EndSplineSet
Validated: 1
EndChar

StartChar: asterisk
Encoding: 42 42 41
Width: 2304
GlyphClass: 1
Flags: W
LayerCount: 2
Fore
SplineSet
256 1792 m 1,0,-1
 768 1792 l 1,1,-1
 768 1536 l 1,2,-1
 1280 1536 l 1,3,-1
 1280 1792 l 1,4,-1
 1792 1792 l 1,5,-1
 1792 1536 l 1,6,-1
 1536 1536 l 1,7,-1
 1536 1280 l 1,8,-1
 2048 1280 l 1,9,-1
 2048 1024 l 1,10,-1
 1536 1024 l 1,11,-1
 1536 768 l 1,12,-1
 1792 768 l 1,13,-1
 1792 512 l 1,14,-1
 1280 512 l 1,15,-1
 1280 768 l 1,16,-1
 768 768 l 1,17,-1
 768 512 l 1,18,-1
 256 512 l 1,19,-1
 256 768 l 1,20,-1
 512 768 l 1,21,-1
 512 1024 l 1,22,-1
 0 1024 l 1,23,-1
 0 1280 l 1,24,-1
 512 1280 l 1,25,-1
 512 1536 l 1,26,-1
 256 1536 l 1,27,-1
 256 1792 l 1,0,-1
EndSplineSet
Validated: 1
EndChar

StartChar: plus
Encoding: 43 43 42
Width: 2304
GlyphClass: 1
Flags: W
LayerCount: 2
Fore
SplineSet
256 1280 m 1,0,-1
 768 1280 l 1,1,-1
 768 1792 l 1,2,-1
 1280 1792 l 1,3,-1
 1280 1280 l 1,4,-1
 1792 1280 l 1,5,-1
 1792 1024 l 1,6,-1
 1280 1024 l 1,7,-1
 1280 512 l 1,8,-1
 768 512 l 1,9,-1
 768 1024 l 1,10,-1
 256 1024 l 1,11,-1
 256 1280 l 1,0,-1
EndSplineSet
Validated: 1
EndChar

StartChar: comma
Encoding: 44 44 43
Width: 2304
GlyphClass: 1
Flags: W
LayerCount: 2
Fore
SplineSet
512 0 m 1,0,-1
 768 0 l 1,1,-1
 768 768 l 1,2,-1
 1280 768 l 1,3,-1
 1280 0 l 1,4,-1
 1024 0 l 1,5,-1
 1024 -256 l 1,6,-1
 512 -256 l 1,7,-1
 512 0 l 1,0,-1
EndSplineSet
Validated: 1
EndChar

StartChar: hyphen
Encoding: 45 45 44
Width: 2304
GlyphClass: 1
Flags: W
LayerCount: 2
Fore
SplineSet
0 1280 m 1,0,-1
 1792 1280 l 1,1,-1
 1792 1024 l 1,2,-1
 0 1024 l 1,3,-1
 0 1280 l 1,0,-1
EndSplineSet
Validated: 1
EndChar

StartChar: period
Encoding: 46 46 45
Width: 2304
GlyphClass: 1
Flags: W
LayerCount: 2
Fore
SplineSet
768 512 m 1,0,-1
 1280 512 l 1,1,-1
 1280 0 l 1,2,-1
 768 0 l 1,3,-1
 768 512 l 1,0,-1
EndSplineSet
Validated: 1
EndChar

StartChar: slash
Encoding: 47 47 46
Width: 2304
GlyphClass: 1
Flags: W
LayerCount: 2
Fore
SplineSet
1536 1280 m 1,0,-1
 1280 1280 l 1,1,-1
 1280 1024 l 1,2,-1
 1024 1024 l 1,3,-1
 1024 768 l 1,4,-1
 768 768 l 1,5,-1
 768 512 l 1,6,-1
 512 512 l 1,7,-1
 512 256 l 1,8,-1
 256 256 l 1,9,-1
 256 0 l 1,10,-1
 0 0 l 1,11,-1
 0 512 l 1,12,-1
 256 512 l 1,13,-1
 256 768 l 1,14,-1
 512 768 l 1,15,-1
 512 1024 l 1,16,-1
 768 1024 l 1,17,-1
 768 1280 l 1,18,-1
 1024 1280 l 1,19,-1
 1024 1536 l 1,20,-1
 1280 1536 l 1,21,-1
 1280 1792 l 1,22,-1
 1536 1792 l 1,23,-1
 1536 2048 l 1,24,-1
 1792 2048 l 1,25,-1
 1792 1536 l 1,26,-1
 1536 1536 l 1,27,-1
 1536 1280 l 1,0,-1
EndSplineSet
Validated: 1
EndChar

StartChar: zero
Encoding: 48 48 47
Width: 2304
GlyphClass: 1
Flags: W
LayerCount: 2
Fore
SplineSet
768 1536 m 1,0,-1
 1024 1536 l 1,1,-1
 1024 1024 l 1,2,-1
 768 1024 l 1,3,-1
 768 1536 l 1,0,-1
1024 512 m 1,4,-1
 1280 512 l 1,5,-1
 1280 2048 l 1,6,-1
 1024 2048 l 1,7,-1
 1024 2304 l 1,8,-1
 768 2304 l 1,9,-1
 768 2048 l 1,10,-1
 512 2048 l 1,11,-1
 512 512 l 1,12,-1
 768 512 l 1,13,-1
 768 256 l 1,14,-1
 1024 256 l 1,15,-1
 1024 512 l 1,4,-1
512 256 m 1,16,-1
 256 256 l 1,17,-1
 256 512 l 1,18,-1
 0 512 l 1,19,-1
 0 2048 l 1,20,-1
 256 2048 l 1,21,-1
 256 2304 l 1,22,-1
 512 2304 l 1,23,-1
 512 2560 l 1,24,-1
 1280 2560 l 1,25,-1
 1280 2304 l 1,26,-1
 1536 2304 l 1,27,-1
 1536 2048 l 1,28,-1
 1792 2048 l 1,29,-1
 1792 512 l 1,30,-1
 1536 512 l 1,31,-1
 1536 256 l 1,32,-1
 1280 256 l 1,33,-1
 1280 0 l 1,34,-1
 512 0 l 1,35,-1
 512 256 l 1,16,-1
EndSplineSet
Validated: 1
EndChar

StartChar: one
Encoding: 49 49 48
Width: 2304
GlyphClass: 1
Flags: W
LayerCount: 2
Fore
SplineSet
256 2048 m 1,0,-1
 512 2048 l 1,1,-1
 512 2304 l 1,2,-1
 768 2304 l 1,3,-1
 768 2560 l 1,4,-1
 1280 2560 l 1,5,-1
 1280 256 l 1,6,-1
 1792 256 l 1,7,-1
 1792 0 l 1,8,-1
 256 0 l 1,9,-1
 256 256 l 1,10,-1
 768 256 l 1,11,-1
 768 1792 l 1,12,-1
 256 1792 l 1,13,-1
 256 2048 l 1,0,-1
EndSplineSet
Validated: 1
EndChar

StartChar: two
Encoding: 50 50 49
Width: 2304
GlyphClass: 1
Flags: W
LayerCount: 2
Fore
SplineSet
0 768 m 1,0,-1
 256 768 l 1,1,-1
 256 1024 l 1,2,-1
 512 1024 l 1,3,-1
 512 1280 l 1,4,-1
 768 1280 l 1,5,-1
 768 1536 l 1,6,-1
 1024 1536 l 1,7,-1
 1024 1792 l 1,8,-1
 1280 1792 l 1,9,-1
 1280 2304 l 1,10,-1
 512 2304 l 1,11,-1
 512 2048 l 1,12,-1
 0 2048 l 1,13,-1
 0 2304 l 1,14,-1
 256 2304 l 1,15,-1
 256 2560 l 1,16,-1
 1536 2560 l 1,17,-1
 1536 2304 l 1,18,-1
 1792 2304 l 1,19,-1
 1792 1792 l 1,20,-1
 1536 1792 l 1,21,-1
 1536 1536 l 1,22,-1
 1280 1536 l 1,23,-1
 1280 1280 l 1,24,-1
 1024 1280 l 1,25,-1
 1024 1024 l 1,26,-1
 768 1024 l 1,27,-1
 768 768 l 1,28,-1
 512 768 l 1,29,-1
 512 256 l 1,30,-1
 1280 256 l 1,31,-1
 1280 512 l 1,32,-1
 1792 512 l 1,33,-1
 1792 0 l 1,34,-1
 0 0 l 1,35,-1
 0 768 l 1,0,-1
EndSplineSet
Validated: 1
EndChar

StartChar: three
Encoding: 51 51 50
Width: 2304
GlyphClass: 1
Flags: W
LayerCount: 2
Fore
SplineSet
512 1536 m 1,0,-1
 1280 1536 l 1,1,-1
 1280 2304 l 1,2,-1
 512 2304 l 1,3,-1
 512 2048 l 1,4,-1
 0 2048 l 1,5,-1
 0 2304 l 1,6,-1
 256 2304 l 1,7,-1
 256 2560 l 1,8,-1
 1536 2560 l 1,9,-1
 1536 2304 l 1,10,-1
 1792 2304 l 1,11,-1
 1792 1536 l 1,12,-1
 1536 1536 l 1,13,-1
 1536 1280 l 1,14,-1
 1792 1280 l 1,15,-1
 1792 256 l 1,16,-1
 1536 256 l 1,17,-1
 1536 0 l 1,18,-1
 256 0 l 1,19,-1
 256 256 l 1,20,-1
 0 256 l 1,21,-1
 0 512 l 1,22,-1
 512 512 l 1,23,-1
 512 256 l 1,24,-1
 1280 256 l 1,25,-1
 1280 1280 l 1,26,-1
 512 1280 l 1,27,-1
 512 1536 l 1,0,-1
EndSplineSet
Validated: 1
EndChar

StartChar: four
Encoding: 52 52 51
Width: 2304
GlyphClass: 1
Flags: W
LayerCount: 2
Fore
SplineSet
512 1280 m 1,0,-1
 1024 1280 l 1,1,-1
 1024 1792 l 1,2,-1
 768 1792 l 1,3,-1
 768 1536 l 1,4,-1
 512 1536 l 1,5,-1
 512 1280 l 1,0,-1
1792 1280 m 1,6,-1
 1792 1024 l 1,7,-1
 1536 1024 l 1,8,-1
 1536 256 l 1,9,-1
 1792 256 l 1,10,-1
 1792 0 l 1,11,-1
 768 0 l 1,12,-1
 768 256 l 1,13,-1
 1024 256 l 1,14,-1
 1024 1024 l 1,15,-1
 0 1024 l 1,16,-1
 0 1536 l 1,17,-1
 256 1536 l 1,18,-1
 256 1792 l 1,19,-1
 512 1792 l 1,20,-1
 512 2048 l 1,21,-1
 768 2048 l 1,22,-1
 768 2304 l 1,23,-1
 1024 2304 l 1,24,-1
 1024 2560 l 1,25,-1
 1536 2560 l 1,26,-1
 1536 1280 l 1,27,-1
 1792 1280 l 1,6,-1
EndSplineSet
Validated: 1
EndChar

StartChar: five
Encoding: 53 53 52
Width: 2304
GlyphClass: 1
Flags: W
LayerCount: 2
Fore
SplineSet
512 1536 m 1,0,-1
 1536 1536 l 1,1,-1
 1536 1280 l 1,2,-1
 1792 1280 l 1,3,-1
 1792 256 l 1,4,-1
 1536 256 l 1,5,-1
 1536 0 l 1,6,-1
 256 0 l 1,7,-1
 256 256 l 1,8,-1
 0 256 l 1,9,-1
 0 512 l 1,10,-1
 512 512 l 1,11,-1
 512 256 l 1,12,-1
 1280 256 l 1,13,-1
 1280 1280 l 1,14,-1
 0 1280 l 1,15,-1
 0 2560 l 1,16,-1
 1792 2560 l 1,17,-1
 1792 2304 l 1,18,-1
 512 2304 l 1,19,-1
 512 1536 l 1,0,-1
EndSplineSet
Validated: 1
EndChar

StartChar: six
Encoding: 54 54 53
Width: 2304
GlyphClass: 1
Flags: W
LayerCount: 2
Fore
SplineSet
1280 1280 m 1,0,-1
 512 1280 l 1,1,-1
 512 256 l 1,2,-1
 1280 256 l 1,3,-1
 1280 1280 l 1,0,-1
256 2304 m 1,4,-1
 512 2304 l 1,5,-1
 512 2560 l 1,6,-1
 1280 2560 l 1,7,-1
 1280 2304 l 1,8,-1
 768 2304 l 1,9,-1
 768 2048 l 1,10,-1
 512 2048 l 1,11,-1
 512 1536 l 1,12,-1
 1536 1536 l 1,13,-1
 1536 1280 l 1,14,-1
 1792 1280 l 1,15,-1
 1792 256 l 1,16,-1
 1536 256 l 1,17,-1
 1536 0 l 1,18,-1
 256 0 l 1,19,-1
 256 256 l 1,20,-1
 0 256 l 1,21,-1
 0 2048 l 1,22,-1
 256 2048 l 1,23,-1
 256 2304 l 1,4,-1
EndSplineSet
Validated: 1
EndChar

StartChar: seven
Encoding: 55 55 54
Width: 2304
GlyphClass: 1
Flags: W
LayerCount: 2
Fore
SplineSet
512 1024 m 1,0,-1
 768 1024 l 1,1,-1
 768 1280 l 1,2,-1
 1024 1280 l 1,3,-1
 1024 1536 l 1,4,-1
 1280 1536 l 1,5,-1
 1280 2304 l 1,6,-1
 512 2304 l 1,7,-1
 512 2048 l 1,8,-1
 0 2048 l 1,9,-1
 0 2560 l 1,10,-1
 1792 2560 l 1,11,-1
 1792 1536 l 1,12,-1
 1536 1536 l 1,13,-1
 1536 1280 l 1,14,-1
 1280 1280 l 1,15,-1
 1280 1024 l 1,16,-1
 1024 1024 l 1,17,-1
 1024 0 l 1,18,-1
 512 0 l 1,19,-1
 512 1024 l 1,0,-1
EndSplineSet
Validated: 1
EndChar

StartChar: eight
Encoding: 56 56 55
Width: 2304
GlyphClass: 1
Flags: W
LayerCount: 2
Fore
SplineSet
1280 2304 m 1,0,-1
 512 2304 l 1,1,-1
 512 1536 l 1,2,-1
 1280 1536 l 1,3,-1
 1280 2304 l 1,0,-1
1280 1280 m 1,4,-1
 512 1280 l 1,5,-1
 512 256 l 1,6,-1
 1280 256 l 1,7,-1
 1280 1280 l 1,4,-1
0 1280 m 1,8,-1
 256 1280 l 1,9,-1
 256 1536 l 1,10,-1
 0 1536 l 1,11,-1
 0 2304 l 1,12,-1
 256 2304 l 1,13,-1
 256 2560 l 1,14,-1
 1536 2560 l 1,15,-1
 1536 2304 l 1,16,-1
 1792 2304 l 1,17,-1
 1792 1536 l 1,18,-1
 1536 1536 l 1,19,-1
 1536 1280 l 1,20,-1
 1792 1280 l 1,21,-1
 1792 256 l 1,22,-1
 1536 256 l 1,23,-1
 1536 0 l 1,24,-1
 256 0 l 1,25,-1
 256 256 l 1,26,-1
 0 256 l 1,27,-1
 0 1280 l 1,8,-1
EndSplineSet
Validated: 1
EndChar

StartChar: nine
Encoding: 57 57 56
Width: 2304
GlyphClass: 1
Flags: W
LayerCount: 2
Fore
SplineSet
256 256 m 1,0,-1
 1280 256 l 1,1,-1
 1280 0 l 1,2,-1
 256 0 l 1,3,-1
 256 256 l 1,0,-1
512 1536 m 1,4,-1
 1280 1536 l 1,5,-1
 1280 2304 l 1,6,-1
 512 2304 l 1,7,-1
 512 1536 l 1,4,-1
1024 512 m 1,8,-1
 1280 512 l 1,9,-1
 1280 1280 l 1,10,-1
 256 1280 l 1,11,-1
 256 1536 l 1,12,-1
 0 1536 l 1,13,-1
 0 2304 l 1,14,-1
 256 2304 l 1,15,-1
 256 2560 l 1,16,-1
 1536 2560 l 1,17,-1
 1536 2304 l 1,18,-1
 1792 2304 l 1,19,-1
 1792 512 l 1,20,-1
 1536 512 l 1,21,-1
 1536 256 l 1,22,-1
 1024 256 l 1,23,-1
 1024 512 l 1,8,-1
EndSplineSet
Validated: 5
EndChar

StartChar: colon
Encoding: 58 58 57
Width: 2304
GlyphClass: 1
Flags: W
LayerCount: 2
Fore
SplineSet
768 768 m 1,0,-1
 1280 768 l 1,1,-1
 1280 256 l 1,2,-1
 768 256 l 1,3,-1
 768 768 l 1,0,-1
768 2048 m 1,4,-1
 1280 2048 l 1,5,-1
 1280 1536 l 1,6,-1
 768 1536 l 1,7,-1
 768 2048 l 1,4,-1
EndSplineSet
Validated: 1
EndChar

StartChar: semicolon
Encoding: 59 59 58
Width: 2304
GlyphClass: 1
Flags: W
LayerCount: 2
Fore
SplineSet
768 2048 m 1,0,-1
 1280 2048 l 1,1,-1
 1280 1536 l 1,2,-1
 768 1536 l 1,3,-1
 768 2048 l 1,0,-1
768 768 m 1,4,-1
 1280 768 l 1,5,-1
 1280 256 l 1,6,-1
 1024 256 l 1,7,-1
 1024 0 l 1,8,-1
 512 0 l 1,9,-1
 512 256 l 1,10,-1
 768 256 l 1,11,-1
 768 768 l 1,4,-1
EndSplineSet
Validated: 1
EndChar

StartChar: less
Encoding: 60 60 59
Width: 2304
GlyphClass: 1
Flags: W
LayerCount: 2
Fore
SplineSet
1280 2304 m 1,0,-1
 1792 2304 l 1,1,-1
 1792 2048 l 1,2,-1
 1536 2048 l 1,3,-1
 1536 1792 l 1,4,-1
 1280 1792 l 1,5,-1
 1280 1536 l 1,6,-1
 1024 1536 l 1,7,-1
 1024 1280 l 1,8,-1
 768 1280 l 1,9,-1
 768 1024 l 1,10,-1
 1024 1024 l 1,11,-1
 1024 768 l 1,12,-1
 1280 768 l 1,13,-1
 1280 512 l 1,14,-1
 1536 512 l 1,15,-1
 1536 256 l 1,16,-1
 1792 256 l 1,17,-1
 1792 0 l 1,18,-1
 1280 0 l 1,19,-1
 1280 256 l 1,20,-1
 1024 256 l 1,21,-1
 1024 512 l 1,22,-1
 768 512 l 1,23,-1
 768 768 l 1,24,-1
 512 768 l 1,25,-1
 512 1024 l 1,26,-1
 256 1024 l 1,27,-1
 256 1280 l 1,28,-1
 512 1280 l 1,29,-1
 512 1536 l 1,30,-1
 768 1536 l 1,31,-1
 768 1792 l 1,32,-1
 1024 1792 l 1,33,-1
 1024 2048 l 1,34,-1
 1280 2048 l 1,35,-1
 1280 2304 l 1,0,-1
EndSplineSet
Validated: 1
EndChar

StartChar: equal
Encoding: 61 61 60
Width: 2304
GlyphClass: 1
Flags: W
LayerCount: 2
Fore
SplineSet
256 1792 m 1,0,-1
 1792 1792 l 1,1,-1
 1792 1536 l 1,2,-1
 256 1536 l 1,3,-1
 256 1792 l 1,0,-1
256 1024 m 1,4,-1
 1792 1024 l 1,5,-1
 1792 768 l 1,6,-1
 256 768 l 1,7,-1
 256 1024 l 1,4,-1
EndSplineSet
Validated: 1
EndChar

StartChar: greater
Encoding: 62 62 61
Width: 2304
GlyphClass: 1
Flags: W
LayerCount: 2
Fore
SplineSet
256 2304 m 1,0,-1
 768 2304 l 1,1,-1
 768 2048 l 1,2,-1
 1024 2048 l 1,3,-1
 1024 1792 l 1,4,-1
 1280 1792 l 1,5,-1
 1280 1536 l 1,6,-1
 1536 1536 l 1,7,-1
 1536 1280 l 1,8,-1
 1792 1280 l 1,9,-1
 1792 1024 l 1,10,-1
 1536 1024 l 1,11,-1
 1536 768 l 1,12,-1
 1280 768 l 1,13,-1
 1280 512 l 1,14,-1
 1024 512 l 1,15,-1
 1024 256 l 1,16,-1
 768 256 l 1,17,-1
 768 0 l 1,18,-1
 256 0 l 1,19,-1
 256 256 l 1,20,-1
 512 256 l 1,21,-1
 512 512 l 1,22,-1
 768 512 l 1,23,-1
 768 768 l 1,24,-1
 1024 768 l 1,25,-1
 1024 1024 l 1,26,-1
 1280 1024 l 1,27,-1
 1280 1280 l 1,28,-1
 1024 1280 l 1,29,-1
 1024 1536 l 1,30,-1
 768 1536 l 1,31,-1
 768 1792 l 1,32,-1
 512 1792 l 1,33,-1
 512 2048 l 1,34,-1
 256 2048 l 1,35,-1
 256 2304 l 1,0,-1
EndSplineSet
Validated: 1
EndChar

StartChar: question
Encoding: 63 63 62
Width: 2304
GlyphClass: 1
Flags: W
LayerCount: 2
Fore
SplineSet
768 512 m 1,0,-1
 1280 512 l 1,1,-1
 1280 0 l 1,2,-1
 768 0 l 1,3,-1
 768 512 l 1,0,-1
768 1536 m 1,4,-1
 1024 1536 l 1,5,-1
 1024 1792 l 1,6,-1
 1280 1792 l 1,7,-1
 1280 2304 l 1,8,-1
 512 2304 l 1,9,-1
 512 1792 l 1,10,-1
 0 1792 l 1,11,-1
 0 2304 l 1,12,-1
 256 2304 l 1,13,-1
 256 2560 l 1,14,-1
 1536 2560 l 1,15,-1
 1536 2304 l 1,16,-1
 1792 2304 l 1,17,-1
 1792 1792 l 1,18,-1
 1536 1792 l 1,19,-1
 1536 1536 l 1,20,-1
 1280 1536 l 1,21,-1
 1280 768 l 1,22,-1
 768 768 l 1,23,-1
 768 1536 l 1,4,-1
EndSplineSet
Validated: 1
EndChar

StartChar: at
Encoding: 64 64 63
Width: 2304
GlyphClass: 1
Flags: W
LayerCount: 2
Fore
SplineSet
768 1536 m 1,0,-1
 1280 1536 l 1,1,-1
 1280 2048 l 1,2,-1
 512 2048 l 1,3,-1
 512 256 l 1,4,-1
 1536 256 l 1,5,-1
 1536 0 l 1,6,-1
 256 0 l 1,7,-1
 256 256 l 1,8,-1
 0 256 l 1,9,-1
 0 2048 l 1,10,-1
 256 2048 l 1,11,-1
 256 2304 l 1,12,-1
 1536 2304 l 1,13,-1
 1536 2048 l 1,14,-1
 1792 2048 l 1,15,-1
 1792 768 l 1,16,-1
 1536 768 l 1,17,-1
 1536 512 l 1,18,-1
 768 512 l 1,19,-1
 768 1536 l 1,0,-1
EndSplineSet
Validated: 1
EndChar

StartChar: A
Encoding: 65 65 64
Width: 2304
GlyphClass: 1
Flags: W
LayerCount: 2
Fore
SplineSet
1024 2048 m 1,0,-1
 768 2048 l 1,1,-1
 768 1792 l 1,2,-1
 512 1792 l 1,3,-1
 512 1280 l 1,4,-1
 1280 1280 l 1,5,-1
 1280 1792 l 1,6,-1
 1024 1792 l 1,7,-1
 1024 2048 l 1,0,-1
1280 0 m 1,8,-1
 1280 1024 l 1,9,-1
 512 1024 l 1,10,-1
 512 0 l 1,11,-1
 0 0 l 1,12,-1
 0 1792 l 1,13,-1
 256 1792 l 1,14,-1
 256 2048 l 1,15,-1
 512 2048 l 1,16,-1
 512 2304 l 1,17,-1
 768 2304 l 1,18,-1
 768 2560 l 1,19,-1
 1024 2560 l 1,20,-1
 1024 2304 l 1,21,-1
 1280 2304 l 1,22,-1
 1280 2048 l 1,23,-1
 1536 2048 l 1,24,-1
 1536 1792 l 1,25,-1
 1792 1792 l 1,26,-1
 1792 0 l 1,27,-1
 1280 0 l 1,8,-1
EndSplineSet
Validated: 1
EndChar

StartChar: B
Encoding: 66 66 65
Width: 2304
GlyphClass: 1
Flags: W
LayerCount: 2
Fore
SplineSet
768 1536 m 1,0,-1
 1280 1536 l 1,1,-1
 1280 2304 l 1,2,-1
 768 2304 l 1,3,-1
 768 1536 l 1,0,-1
1280 1280 m 1,4,-1
 768 1280 l 1,5,-1
 768 256 l 1,6,-1
 1280 256 l 1,7,-1
 1280 1280 l 1,4,-1
0 256 m 1,8,-1
 256 256 l 1,9,-1
 256 2304 l 1,10,-1
 0 2304 l 1,11,-1
 0 2560 l 1,12,-1
 1536 2560 l 1,13,-1
 1536 2304 l 1,14,-1
 1792 2304 l 1,15,-1
 1792 1536 l 1,16,-1
 1536 1536 l 1,17,-1
 1536 1280 l 1,18,-1
 1792 1280 l 1,19,-1
 1792 256 l 1,20,-1
 1536 256 l 1,21,-1
 1536 0 l 1,22,-1
 0 0 l 1,23,-1
 0 256 l 1,8,-1
EndSplineSet
Validated: 1
EndChar

StartChar: C
Encoding: 67 67 66
Width: 2304
GlyphClass: 1
Flags: W
LayerCount: 2
Fore
SplineSet
1280 2304 m 1,0,-1
 768 2304 l 1,1,-1
 768 2048 l 1,2,-1
 512 2048 l 1,3,-1
 512 512 l 1,4,-1
 768 512 l 1,5,-1
 768 256 l 1,6,-1
 1280 256 l 1,7,-1
 1280 512 l 1,8,-1
 1536 512 l 1,9,-1
 1536 768 l 1,10,-1
 1792 768 l 1,11,-1
 1792 256 l 1,12,-1
 1536 256 l 1,13,-1
 1536 0 l 1,14,-1
 512 0 l 1,15,-1
 512 256 l 1,16,-1
 256 256 l 1,17,-1
 256 512 l 1,18,-1
 0 512 l 1,19,-1
 0 2048 l 1,20,-1
 256 2048 l 1,21,-1
 256 2304 l 1,22,-1
 512 2304 l 1,23,-1
 512 2560 l 1,24,-1
 1536 2560 l 1,25,-1
 1536 2304 l 1,26,-1
 1792 2304 l 1,27,-1
 1792 1792 l 1,28,-1
 1536 1792 l 1,29,-1
 1536 2048 l 1,30,-1
 1280 2048 l 1,31,-1
 1280 2304 l 1,0,-1
EndSplineSet
Validated: 1
EndChar

StartChar: D
Encoding: 68 68 67
Width: 2304
GlyphClass: 1
Flags: W
LayerCount: 2
Fore
SplineSet
1280 2048 m 1,0,-1
 1024 2048 l 1,1,-1
 1024 2304 l 1,2,-1
 768 2304 l 1,3,-1
 768 256 l 1,4,-1
 1024 256 l 1,5,-1
 1024 512 l 1,6,-1
 1280 512 l 1,7,-1
 1280 2048 l 1,0,-1
1280 256 m 1,8,-1
 1280 0 l 1,9,-1
 0 0 l 1,10,-1
 0 256 l 1,11,-1
 256 256 l 1,12,-1
 256 2304 l 1,13,-1
 0 2304 l 1,14,-1
 0 2560 l 1,15,-1
 1280 2560 l 1,16,-1
 1280 2304 l 1,17,-1
 1536 2304 l 1,18,-1
 1536 2048 l 1,19,-1
 1792 2048 l 1,20,-1
 1792 512 l 1,21,-1
 1536 512 l 1,22,-1
 1536 256 l 1,23,-1
 1280 256 l 1,8,-1
EndSplineSet
Validated: 1
EndChar

StartChar: E
Encoding: 69 69 68
Width: 2304
GlyphClass: 1
Flags: W
LayerCount: 2
Fore
SplineSet
1024 1280 m 1,0,-1
 768 1280 l 1,1,-1
 768 256 l 1,2,-1
 1280 256 l 1,3,-1
 1280 512 l 1,4,-1
 1536 512 l 1,5,-1
 1536 768 l 1,6,-1
 1792 768 l 1,7,-1
 1792 0 l 1,8,-1
 0 0 l 1,9,-1
 0 256 l 1,10,-1
 256 256 l 1,11,-1
 256 2304 l 1,12,-1
 0 2304 l 1,13,-1
 0 2560 l 1,14,-1
 1792 2560 l 1,15,-1
 1792 1792 l 1,16,-1
 1536 1792 l 1,17,-1
 1536 2048 l 1,18,-1
 1280 2048 l 1,19,-1
 1280 2304 l 1,20,-1
 768 2304 l 1,21,-1
 768 1536 l 1,22,-1
 1024 1536 l 1,23,-1
 1024 1792 l 1,24,-1
 1280 1792 l 1,25,-1
 1280 1024 l 1,26,-1
 1024 1024 l 1,27,-1
 1024 1280 l 1,0,-1
EndSplineSet
Validated: 1
EndChar

StartChar: F
Encoding: 70 70 69
Width: 2304
GlyphClass: 1
Flags: W
LayerCount: 2
Fore
SplineSet
1536 2048 m 1,0,-1
 1280 2048 l 1,1,-1
 1280 2304 l 1,2,-1
 768 2304 l 1,3,-1
 768 1536 l 1,4,-1
 1024 1536 l 1,5,-1
 1024 1792 l 1,6,-1
 1280 1792 l 1,7,-1
 1280 1024 l 1,8,-1
 1024 1024 l 1,9,-1
 1024 1280 l 1,10,-1
 768 1280 l 1,11,-1
 768 256 l 1,12,-1
 1024 256 l 1,13,-1
 1024 0 l 1,14,-1
 0 0 l 1,15,-1
 0 256 l 1,16,-1
 256 256 l 1,17,-1
 256 2304 l 1,18,-1
 0 2304 l 1,19,-1
 0 2560 l 1,20,-1
 1792 2560 l 1,21,-1
 1792 1792 l 1,22,-1
 1536 1792 l 1,23,-1
 1536 2048 l 1,0,-1
EndSplineSet
Validated: 1
EndChar

StartChar: G
Encoding: 71 71 70
Width: 2304
GlyphClass: 1
Flags: W
LayerCount: 2
Fore
SplineSet
768 1280 m 1,0,-1
 1792 1280 l 1,1,-1
 1792 0 l 1,2,-1
 1536 0 l 1,3,-1
 1536 256 l 1,4,-1
 1280 256 l 1,5,-1
 1280 1024 l 1,6,-1
 768 1024 l 1,7,-1
 768 1280 l 1,0,-1
1280 2304 m 1,8,-1
 768 2304 l 1,9,-1
 768 2048 l 1,10,-1
 512 2048 l 1,11,-1
 512 512 l 1,12,-1
 768 512 l 1,13,-1
 768 256 l 1,14,-1
 1280 256 l 1,15,-1
 1280 0 l 1,16,-1
 512 0 l 1,17,-1
 512 256 l 1,18,-1
 256 256 l 1,19,-1
 256 512 l 1,20,-1
 0 512 l 1,21,-1
 0 2048 l 1,22,-1
 256 2048 l 1,23,-1
 256 2304 l 1,24,-1
 512 2304 l 1,25,-1
 512 2560 l 1,26,-1
 1536 2560 l 1,27,-1
 1536 2304 l 1,28,-1
 1792 2304 l 1,29,-1
 1792 1792 l 1,30,-1
 1536 1792 l 1,31,-1
 1536 2048 l 1,32,-1
 1280 2048 l 1,33,-1
 1280 2304 l 1,8,-1
EndSplineSet
Validated: 5
EndChar

StartChar: H
Encoding: 72 72 71
Width: 2304
GlyphClass: 1
Flags: W
LayerCount: 2
Fore
SplineSet
1280 1280 m 1,0,-1
 512 1280 l 1,1,-1
 512 0 l 1,2,-1
 0 0 l 1,3,-1
 0 2560 l 1,4,-1
 512 2560 l 1,5,-1
 512 1536 l 1,6,-1
 1280 1536 l 1,7,-1
 1280 2560 l 1,8,-1
 1792 2560 l 1,9,-1
 1792 0 l 1,10,-1
 1280 0 l 1,11,-1
 1280 1280 l 1,0,-1
EndSplineSet
Validated: 1
EndChar

StartChar: I
Encoding: 73 73 72
Width: 2304
GlyphClass: 1
Flags: W
LayerCount: 2
Fore
SplineSet
512 2560 m 1,0,-1
 1536 2560 l 1,1,-1
 1536 2304 l 1,2,-1
 1280 2304 l 1,3,-1
 1280 256 l 1,4,-1
 1536 256 l 1,5,-1
 1536 0 l 1,6,-1
 512 0 l 1,7,-1
 512 256 l 1,8,-1
 768 256 l 1,9,-1
 768 2304 l 1,10,-1
 512 2304 l 1,11,-1
 512 2560 l 1,0,-1
EndSplineSet
Validated: 1
EndChar

StartChar: J
Encoding: 74 74 73
Width: 2304
GlyphClass: 1
Flags: W
LayerCount: 2
Fore
SplineSet
768 2560 m 1,0,-1
 1792 2560 l 1,1,-1
 1792 2304 l 1,2,-1
 1536 2304 l 1,3,-1
 1536 256 l 1,4,-1
 1280 256 l 1,5,-1
 1280 0 l 1,6,-1
 256 0 l 1,7,-1
 256 256 l 1,8,-1
 0 256 l 1,9,-1
 0 1024 l 1,10,-1
 512 1024 l 1,11,-1
 512 256 l 1,12,-1
 1024 256 l 1,13,-1
 1024 2304 l 1,14,-1
 768 2304 l 1,15,-1
 768 2560 l 1,0,-1
EndSplineSet
Validated: 1
EndChar

StartChar: K
Encoding: 75 75 74
Width: 2304
GlyphClass: 1
Flags: W
LayerCount: 2
Fore
SplineSet
1536 1536 m 1,0,-1
 1280 1536 l 1,1,-1
 1280 1024 l 1,2,-1
 1536 1024 l 1,3,-1
 1536 768 l 1,4,-1
 1792 768 l 1,5,-1
 1792 0 l 1,6,-1
 1280 0 l 1,7,-1
 1280 768 l 1,8,-1
 1024 768 l 1,9,-1
 1024 1024 l 1,10,-1
 768 1024 l 1,11,-1
 768 0 l 1,12,-1
 0 0 l 1,13,-1
 0 256 l 1,14,-1
 256 256 l 1,15,-1
 256 2304 l 1,16,-1
 0 2304 l 1,17,-1
 0 2560 l 1,18,-1
 768 2560 l 1,19,-1
 768 1536 l 1,20,-1
 1024 1536 l 1,21,-1
 1024 1792 l 1,22,-1
 1280 1792 l 1,23,-1
 1280 2560 l 1,24,-1
 1792 2560 l 1,25,-1
 1792 1792 l 1,26,-1
 1536 1792 l 1,27,-1
 1536 1536 l 1,0,-1
EndSplineSet
Validated: 1
EndChar

StartChar: L
Encoding: 76 76 75
Width: 2304
GlyphClass: 1
Flags: W
LayerCount: 2
Fore
SplineSet
768 256 m 1,0,-1
 1280 256 l 1,1,-1
 1280 512 l 1,2,-1
 1536 512 l 1,3,-1
 1536 768 l 1,4,-1
 1792 768 l 1,5,-1
 1792 0 l 1,6,-1
 0 0 l 1,7,-1
 0 256 l 1,8,-1
 256 256 l 1,9,-1
 256 2304 l 1,10,-1
 0 2304 l 1,11,-1
 0 2560 l 1,12,-1
 768 2560 l 1,13,-1
 1024 2560 l 1,14,-1
 1024 2304 l 1,15,-1
 768 2304 l 1,16,-1
 768 256 l 1,0,-1
EndSplineSet
Validated: 1
EndChar

StartChar: M
Encoding: 77 77 76
Width: 2304
GlyphClass: 1
Flags: W
LayerCount: 2
Fore
SplineSet
1024 1280 m 1,0,-1
 768 1280 l 1,1,-1
 768 1536 l 1,2,-1
 512 1536 l 1,3,-1
 512 0 l 1,4,-1
 0 0 l 1,5,-1
 0 2560 l 1,6,-1
 512 2560 l 1,7,-1
 512 2304 l 1,8,-1
 768 2304 l 1,9,-1
 768 2048 l 1,10,-1
 1024 2048 l 1,11,-1
 1024 2304 l 1,12,-1
 1280 2304 l 1,13,-1
 1280 2560 l 1,14,-1
 1792 2560 l 1,15,-1
 1792 0 l 1,16,-1
 1280 0 l 1,17,-1
 1280 1536 l 1,18,-1
 1024 1536 l 1,19,-1
 1024 1280 l 1,0,-1
EndSplineSet
Validated: 1
EndChar

StartChar: N
Encoding: 78 78 77
Width: 2304
GlyphClass: 1
Flags: W
LayerCount: 2
Fore
SplineSet
1024 1280 m 1,0,-1
 768 1280 l 1,1,-1
 768 1536 l 1,2,-1
 512 1536 l 1,3,-1
 512 0 l 1,4,-1
 0 0 l 1,5,-1
 0 2560 l 1,6,-1
 512 2560 l 1,7,-1
 512 2304 l 1,8,-1
 768 2304 l 1,9,-1
 768 2048 l 1,10,-1
 1024 2048 l 1,11,-1
 1024 1792 l 1,12,-1
 1280 1792 l 1,13,-1
 1280 2560 l 1,14,-1
 1792 2560 l 1,15,-1
 1792 0 l 1,16,-1
 1280 0 l 1,17,-1
 1280 1024 l 1,18,-1
 1024 1024 l 1,19,-1
 1024 1280 l 1,0,-1
EndSplineSet
Validated: 1
EndChar

StartChar: O
Encoding: 79 79 78
Width: 2304
GlyphClass: 1
Flags: W
LayerCount: 2
Fore
SplineSet
1280 2304 m 1,0,-1
 512 2304 l 1,1,-1
 512 256 l 1,2,-1
 1280 256 l 1,3,-1
 1280 2304 l 1,0,-1
0 2304 m 1,4,-1
 256 2304 l 1,5,-1
 256 2560 l 1,6,-1
 1536 2560 l 1,7,-1
 1536 2304 l 1,8,-1
 1792 2304 l 1,9,-1
 1792 256 l 1,10,-1
 1536 256 l 1,11,-1
 1536 0 l 1,12,-1
 256 0 l 1,13,-1
 256 256 l 1,14,-1
 0 256 l 1,15,-1
 0 2304 l 1,4,-1
EndSplineSet
Validated: 1
EndChar

StartChar: P
Encoding: 80 80 79
Width: 2304
GlyphClass: 1
Flags: W
LayerCount: 2
Fore
SplineSet
1280 2304 m 1,0,-1
 768 2304 l 1,1,-1
 768 1536 l 1,2,-1
 1280 1536 l 1,3,-1
 1280 2304 l 1,0,-1
768 256 m 1,4,-1
 1024 256 l 1,5,-1
 1024 0 l 1,6,-1
 0 0 l 1,7,-1
 0 256 l 1,8,-1
 256 256 l 1,9,-1
 256 2304 l 1,10,-1
 0 2304 l 1,11,-1
 0 2560 l 1,12,-1
 1536 2560 l 1,13,-1
 1536 2304 l 1,14,-1
 1792 2304 l 1,15,-1
 1792 1536 l 1,16,-1
 1536 1536 l 1,17,-1
 1536 1280 l 1,18,-1
 768 1280 l 1,19,-1
 768 256 l 1,4,-1
EndSplineSet
Validated: 1
EndChar

StartChar: Q
Encoding: 81 81 80
Width: 2304
GlyphClass: 1
Flags: W
LayerCount: 2
Fore
SplineSet
1024 512 m 1,0,-1
 1280 512 l 1,1,-1
 1280 2304 l 1,2,-1
 512 2304 l 1,3,-1
 512 256 l 1,4,-1
 768 256 l 1,5,-1
 768 768 l 1,6,-1
 1024 768 l 1,7,-1
 1024 512 l 1,0,-1
1024 0 m 1,8,-1
 256 0 l 1,9,-1
 256 256 l 1,10,-1
 0 256 l 1,11,-1
 0 2304 l 1,12,-1
 256 2304 l 1,13,-1
 256 2560 l 1,14,-1
 1536 2560 l 1,15,-1
 1536 2304 l 1,16,-1
 1792 2304 l 1,17,-1
 1792 256 l 1,18,-1
 1536 256 l 1,19,-1
 1536 -256 l 1,20,-1
 1792 -256 l 1,21,-1
 1792 -512 l 1,22,-1
 1024 -512 l 1,23,-1
 1024 0 l 1,8,-1
EndSplineSet
Validated: 1
EndChar

StartChar: R
Encoding: 82 82 81
Width: 2304
GlyphClass: 1
Flags: W
LayerCount: 2
Fore
SplineSet
1280 2304 m 1,0,-1
 768 2304 l 1,1,-1
 768 1536 l 1,2,-1
 1280 1536 l 1,3,-1
 1280 2304 l 1,0,-1
1280 1024 m 1,4,-1
 1024 1024 l 1,5,-1
 1024 1280 l 1,6,-1
 768 1280 l 1,7,-1
 768 0 l 1,8,-1
 0 0 l 1,9,-1
 0 256 l 1,10,-1
 256 256 l 1,11,-1
 256 2304 l 1,12,-1
 0 2304 l 1,13,-1
 0 2560 l 1,14,-1
 1536 2560 l 1,15,-1
 1536 2304 l 1,16,-1
 1792 2304 l 1,17,-1
 1792 1536 l 1,18,-1
 1536 1536 l 1,19,-1
 1536 1024 l 1,20,-1
 1792 1024 l 1,21,-1
 1792 0 l 1,22,-1
 1280 0 l 1,23,-1
 1280 1024 l 1,4,-1
EndSplineSet
Validated: 1
EndChar

StartChar: S
Encoding: 83 83 82
Width: 2304
GlyphClass: 1
Flags: W
LayerCount: 2
Fore
SplineSet
0 768 m 1,0,-1
 512 768 l 1,1,-1
 512 256 l 1,2,-1
 1280 256 l 1,3,-1
 1280 1024 l 1,4,-1
 1024 1024 l 1,5,-1
 1024 1280 l 1,6,-1
 512 1280 l 1,7,-1
 512 1536 l 1,8,-1
 256 1536 l 1,9,-1
 256 1792 l 1,10,-1
 0 1792 l 1,11,-1
 0 2304 l 1,12,-1
 256 2304 l 1,13,-1
 256 2560 l 1,14,-1
 1536 2560 l 1,15,-1
 1536 2304 l 1,16,-1
 1792 2304 l 1,17,-1
 1792 1792 l 1,18,-1
 1280 1792 l 1,19,-1
 1280 2304 l 1,20,-1
 512 2304 l 1,21,-1
 512 1792 l 1,22,-1
 768 1792 l 1,23,-1
 768 1536 l 1,24,-1
 1280 1536 l 1,25,-1
 1280 1280 l 1,26,-1
 1536 1280 l 1,27,-1
 1536 1024 l 1,28,-1
 1792 1024 l 1,29,-1
 1792 256 l 1,30,-1
 1536 256 l 1,31,-1
 1536 0 l 1,32,-1
 256 0 l 1,33,-1
 256 256 l 1,34,-1
 0 256 l 1,35,-1
 0 768 l 1,0,-1
EndSplineSet
Validated: 1
EndChar

StartChar: T
Encoding: 84 84 83
Width: 2304
GlyphClass: 1
Flags: W
LayerCount: 2
Fore
SplineSet
512 256 m 1,0,-1
 768 256 l 1,1,-1
 768 2048 l 1,2,-1
 512 2048 l 1,3,-1
 512 1792 l 1,4,-1
 256 1792 l 1,5,-1
 256 2560 l 1,6,-1
 1792 2560 l 1,7,-1
 1792 1792 l 1,8,-1
 1536 1792 l 1,9,-1
 1536 2048 l 1,10,-1
 1280 2048 l 1,11,-1
 1280 256 l 1,12,-1
 1536 256 l 1,13,-1
 1536 0 l 1,14,-1
 512 0 l 1,15,-1
 512 256 l 1,0,-1
EndSplineSet
Validated: 1
EndChar

StartChar: U
Encoding: 85 85 84
Width: 2304
GlyphClass: 1
Flags: W
LayerCount: 2
Fore
SplineSet
0 2560 m 1,0,-1
 512 2560 l 1,1,-1
 512 256 l 1,2,-1
 1280 256 l 1,3,-1
 1280 2560 l 1,4,-1
 1792 2560 l 1,5,-1
 1792 256 l 1,6,-1
 1536 256 l 1,7,-1
 1536 0 l 1,8,-1
 256 0 l 1,9,-1
 256 256 l 1,10,-1
 0 256 l 1,11,-1
 0 2560 l 1,0,-1
EndSplineSet
Validated: 1
EndChar

StartChar: V
Encoding: 86 86 85
Width: 2304
GlyphClass: 1
Flags: W
LayerCount: 2
Fore
SplineSet
768 256 m 1,0,-1
 512 256 l 1,1,-1
 512 512 l 1,2,-1
 256 512 l 1,3,-1
 256 768 l 1,4,-1
 0 768 l 1,5,-1
 0 2560 l 1,6,-1
 512 2560 l 1,7,-1
 512 768 l 1,8,-1
 768 768 l 1,9,-1
 768 512 l 1,10,-1
 1024 512 l 1,11,-1
 1024 768 l 1,12,-1
 1280 768 l 1,13,-1
 1280 2560 l 1,14,-1
 1792 2560 l 1,15,-1
 1792 768 l 1,16,-1
 1536 768 l 1,17,-1
 1536 512 l 1,18,-1
 1280 512 l 1,19,-1
 1280 256 l 1,20,-1
 1024 256 l 1,21,-1
 1024 0 l 1,22,-1
 768 0 l 1,23,-1
 768 256 l 1,0,-1
EndSplineSet
Validated: 1
EndChar

StartChar: W
Encoding: 87 87 86
Width: 2304
GlyphClass: 1
Flags: W
LayerCount: 2
Fore
SplineSet
768 0 m 1,0,-1
 256 0 l 1,1,-1
 256 256 l 1,2,-1
 0 256 l 1,3,-1
 0 2560 l 1,4,-1
 512 2560 l 1,5,-1
 512 768 l 1,6,-1
 768 768 l 1,7,-1
 768 1536 l 1,8,-1
 1024 1536 l 1,9,-1
 1024 768 l 1,10,-1
 1280 768 l 1,11,-1
 1280 2560 l 1,12,-1
 1792 2560 l 1,13,-1
 1792 256 l 1,14,-1
 1536 256 l 1,15,-1
 1536 0 l 1,16,-1
 1024 0 l 1,17,-1
 1024 512 l 1,18,-1
 768 512 l 1,19,-1
 768 0 l 1,0,-1
EndSplineSet
Validated: 1
EndChar

StartChar: X
Encoding: 88 88 87
Width: 2304
GlyphClass: 1
Flags: W
LayerCount: 2
Fore
SplineSet
512 1536 m 1,0,-1
 256 1536 l 1,1,-1
 256 2048 l 1,2,-1
 0 2048 l 1,3,-1
 0 2560 l 1,4,-1
 512 2560 l 1,5,-1
 512 2048 l 1,6,-1
 768 2048 l 1,7,-1
 768 1792 l 1,8,-1
 1024 1792 l 1,9,-1
 1024 2048 l 1,10,-1
 1280 2048 l 1,11,-1
 1280 2560 l 1,12,-1
 1792 2560 l 1,13,-1
 1792 2048 l 1,14,-1
 1536 2048 l 1,15,-1
 1536 1536 l 1,16,-1
 1280 1536 l 1,17,-1
 1280 1024 l 1,18,-1
 1536 1024 l 1,19,-1
 1536 512 l 1,20,-1
 1792 512 l 1,21,-1
 1792 0 l 1,22,-1
 1280 0 l 1,23,-1
 1280 512 l 1,24,-1
 1024 512 l 1,25,-1
 1024 768 l 1,26,-1
 768 768 l 1,27,-1
 768 512 l 1,28,-1
 512 512 l 1,29,-1
 512 0 l 1,30,-1
 0 0 l 1,31,-1
 0 512 l 1,32,-1
 256 512 l 1,33,-1
 256 1024 l 1,34,-1
 512 1024 l 1,35,-1
 512 1536 l 1,0,-1
EndSplineSet
Validated: 1
EndChar

StartChar: Y
Encoding: 89 89 88
Width: 2304
GlyphClass: 1
Flags: W
LayerCount: 2
Fore
SplineSet
512 256 m 1,0,-1
 768 256 l 1,1,-1
 768 1280 l 1,2,-1
 512 1280 l 1,3,-1
 512 1536 l 1,4,-1
 256 1536 l 1,5,-1
 256 2560 l 1,6,-1
 768 2560 l 1,7,-1
 768 1536 l 1,8,-1
 1280 1536 l 1,9,-1
 1280 2560 l 1,10,-1
 1792 2560 l 1,11,-1
 1792 1536 l 1,12,-1
 1536 1536 l 1,13,-1
 1536 1280 l 1,14,-1
 1280 1280 l 1,15,-1
 1280 256 l 1,16,-1
 1536 256 l 1,17,-1
 1536 0 l 1,18,-1
 512 0 l 1,19,-1
 512 256 l 1,0,-1
EndSplineSet
Validated: 1
EndChar

StartChar: Z
Encoding: 90 90 89
Width: 2304
GlyphClass: 1
Flags: W
LayerCount: 2
Fore
SplineSet
0 768 m 1,0,-1
 256 768 l 1,1,-1
 256 1024 l 1,2,-1
 512 1024 l 1,3,-1
 512 1280 l 1,4,-1
 768 1280 l 1,5,-1
 768 1536 l 1,6,-1
 1024 1536 l 1,7,-1
 1024 1792 l 1,8,-1
 1280 1792 l 1,9,-1
 1280 2304 l 1,10,-1
 512 2304 l 1,11,-1
 512 2048 l 1,12,-1
 256 2048 l 1,13,-1
 256 1792 l 1,14,-1
 0 1792 l 1,15,-1
 0 2560 l 1,16,-1
 1792 2560 l 1,17,-1
 1792 1792 l 1,18,-1
 1536 1792 l 1,19,-1
 1536 1536 l 1,20,-1
 1280 1536 l 1,21,-1
 1280 1280 l 1,22,-1
 1024 1280 l 1,23,-1
 1024 1024 l 1,24,-1
 768 1024 l 1,25,-1
 768 768 l 1,26,-1
 512 768 l 1,27,-1
 512 256 l 1,28,-1
 1280 256 l 1,29,-1
 1280 512 l 1,30,-1
 1536 512 l 1,31,-1
 1536 768 l 1,32,-1
 1792 768 l 1,33,-1
 1792 0 l 1,34,-1
 0 0 l 1,35,-1
 0 768 l 1,0,-1
EndSplineSet
Validated: 1
EndChar

StartChar: bracketleft
Encoding: 91 91 90
Width: 2304
GlyphClass: 1
Flags: W
LayerCount: 2
Fore
SplineSet
1024 256 m 1,0,-1
 1536 256 l 1,1,-1
 1536 0 l 1,2,-1
 512 0 l 1,3,-1
 512 2560 l 1,4,-1
 1536 2560 l 1,5,-1
 1536 2304 l 1,6,-1
 1024 2304 l 1,7,-1
 1024 256 l 1,0,-1
EndSplineSet
Validated: 1
EndChar

StartChar: backslash
Encoding: 92 92 91
Width: 2304
GlyphClass: 1
Flags: W
LayerCount: 2
Fore
SplineSet
1536 256 m 1,0,-1
 1280 256 l 1,1,-1
 1280 512 l 1,2,-1
 1024 512 l 1,3,-1
 1024 768 l 1,4,-1
 768 768 l 1,5,-1
 768 1024 l 1,6,-1
 512 1024 l 1,7,-1
 512 1280 l 1,8,-1
 256 1280 l 1,9,-1
 256 1536 l 1,10,-1
 0 1536 l 1,11,-1
 0 2304 l 1,12,-1
 256 2304 l 1,13,-1
 256 2048 l 1,14,-1
 512 2048 l 1,15,-1
 512 1792 l 1,16,-1
 768 1792 l 1,17,-1
 768 1536 l 1,18,-1
 1024 1536 l 1,19,-1
 1024 1280 l 1,20,-1
 1280 1280 l 1,21,-1
 1280 1024 l 1,22,-1
 1536 1024 l 1,23,-1
 1536 768 l 1,24,-1
 1792 768 l 1,25,-1
 1792 0 l 1,26,-1
 1536 0 l 1,27,-1
 1536 256 l 1,0,-1
EndSplineSet
Validated: 1
EndChar

StartChar: bracketright
Encoding: 93 93 92
Width: 2304
GlyphClass: 1
Flags: W
LayerCount: 2
Fore
SplineSet
512 256 m 1,0,-1
 1024 256 l 1,1,-1
 1024 2304 l 1,2,-1
 512 2304 l 1,3,-1
 512 2560 l 1,4,-1
 1536 2560 l 1,5,-1
 1536 0 l 1,6,-1
 512 0 l 1,7,-1
 512 256 l 1,0,-1
EndSplineSet
Validated: 1
EndChar

StartChar: asciicircum
Encoding: 94 94 93
Width: 2304
GlyphClass: 1
Flags: W
LayerCount: 2
Fore
SplineSet
1024 2560 m 1,0,-1
 768 2560 l 1,1,-1
 768 2304 l 1,2,-1
 512 2304 l 1,3,-1
 512 2048 l 1,4,-1
 0 2048 l 1,5,-1
 0 2304 l 1,6,-1
 256 2304 l 1,7,-1
 256 2560 l 1,8,-1
 512 2560 l 1,9,-1
 512 2816 l 1,10,-1
 768 2816 l 1,11,-1
 768 3072 l 1,12,-1
 1024 3072 l 1,13,-1
 1024 2816 l 1,14,-1
 1280 2816 l 1,15,-1
 1280 2560 l 1,16,-1
 1536 2560 l 1,17,-1
 1536 2304 l 1,18,-1
 1792 2304 l 1,19,-1
 1792 2048 l 1,20,-1
 1280 2048 l 1,21,-1
 1280 2304 l 1,22,-1
 1024 2304 l 1,23,-1
 1024 2560 l 1,0,-1
EndSplineSet
Validated: 1
EndChar

StartChar: underscore
Encoding: 95 95 94
Width: 2304
GlyphClass: 1
Flags: W
LayerCount: 2
Fore
SplineSet
0 -256 m 1,0,-1
 2048 -256 l 1,1,-1
 2048 -512 l 1,2,-1
 0 -512 l 1,3,-1
 0 -256 l 1,0,-1
EndSplineSet
Validated: 1
EndChar

StartChar: grave
Encoding: 96 96 95
Width: 2304
GlyphClass: 1
Flags: W
LayerCount: 2
Fore
SplineSet
1024 2304 m 1,0,-1
 768 2304 l 1,1,-1
 768 2560 l 1,2,-1
 512 2560 l 1,3,-1
 512 2816 l 1,4,-1
 1024 2816 l 1,5,-1
 1024 2560 l 1,6,-1
 1280 2560 l 1,7,-1
 1280 2304 l 1,8,-1
 1536 2304 l 1,9,-1
 1536 2048 l 1,10,-1
 1024 2048 l 1,11,-1
 1024 2304 l 1,0,-1
EndSplineSet
Validated: 1
EndChar

StartChar: a
Encoding: 97 97 96
Width: 2304
GlyphClass: 1
Flags: W
LayerCount: 2
Fore
SplineSet
1024 0 m 1,0,-1
 256 0 l 1,1,-1
 256 256 l 1,2,-1
 0 256 l 1,3,-1
 0 1024 l 1,4,-1
 256 1024 l 1,5,-1
 256 1280 l 1,6,-1
 1024 1280 l 1,7,-1
 1024 1536 l 1,8,-1
 256 1536 l 1,9,-1
 256 1792 l 1,10,-1
 1280 1792 l 1,11,-1
 1280 1536 l 1,12,-1
 1536 1536 l 1,13,-1
 1536 256 l 1,14,-1
 1792 256 l 1,15,-1
 1792 0 l 1,16,-1
 1280 0 l 1,17,-1
 1280 256 l 1,18,-1
 1026 256 l 1,19,-1
 1024 258 l 1,20,-1
 1024 1024 l 1,21,-1
 512 1024 l 1,22,-1
 512 256 l 1,23,-1
 1024 256 l 1,24,-1
 1024 0 l 1,0,-1
EndSplineSet
Validated: 1
EndChar

StartChar: b
Encoding: 98 98 97
Width: 2304
GlyphClass: 1
Flags: W
LayerCount: 2
Fore
SplineSet
1024 1536 m 1,0,-1
 768 1536 l 1,1,-1
 768 256 l 1,2,-1
 1280 256 l 1,3,-1
 1280 1280 l 1,4,-1
 1024 1280 l 1,5,-1
 1024 1536 l 1,0,-1
768 1792 m 1,6,-1
 1280 1792 l 1,7,-1
 1280 1536 l 1,8,-1
 1536 1536 l 1,9,-1
 1536 1280 l 1,10,-1
 1792 1280 l 1,11,-1
 1792 256 l 1,12,-1
 1536 256 l 1,13,-1
 1536 0 l 1,14,-1
 256 0 l 1,15,-1
 256 2304 l 1,16,-1
 0 2304 l 1,17,-1
 0 2560 l 1,18,-1
 768 2560 l 1,19,-1
 768 1792 l 1,6,-1
EndSplineSet
Validated: 1
EndChar

StartChar: c
Encoding: 99 99 98
Width: 2304
GlyphClass: 1
Flags: W
LayerCount: 2
Fore
SplineSet
1280 1536 m 1,0,-1
 512 1536 l 1,1,-1
 512 256 l 1,2,-1
 1280 256 l 1,3,-1
 1280 512 l 1,4,-1
 1792 512 l 1,5,-1
 1792 256 l 1,6,-1
 1536 256 l 1,7,-1
 1536 0 l 1,8,-1
 256 0 l 1,9,-1
 256 256 l 1,10,-1
 0 256 l 1,11,-1
 0 1536 l 1,12,-1
 256 1536 l 1,13,-1
 256 1792 l 1,14,-1
 1536 1792 l 1,15,-1
 1536 1536 l 1,16,-1
 1792 1536 l 1,17,-1
 1792 1280 l 1,18,-1
 1280 1280 l 1,19,-1
 1280 1536 l 1,0,-1
EndSplineSet
Validated: 1
EndChar

StartChar: d
Encoding: 100 100 99
Width: 2304
GlyphClass: 1
Flags: W
LayerCount: 2
Fore
SplineSet
1024 1536 m 1,0,-1
 768 1536 l 1,1,-1
 768 1280 l 1,2,-1
 512 1280 l 1,3,-1
 512 256 l 1,4,-1
 1022 256 l 1,5,-1
 1024 254 l 1,6,-1
 1024 0 l 1,7,-1
 256 0 l 1,8,-1
 256 256 l 1,9,-1
 0 256 l 1,10,-1
 0 1280 l 1,11,-1
 256 1280 l 1,12,-1
 256 1536 l 1,13,-1
 512 1536 l 1,14,-1
 512 1792 l 1,15,-1
 1024 1792 l 1,16,-1
 1024 2304 l 1,17,-1
 768 2304 l 1,18,-1
 768 2560 l 1,19,-1
 1536 2560 l 1,20,-1
 1536 256 l 1,21,-1
 1792 256 l 1,22,-1
 1792 0 l 1,23,-1
 1280 0 l 1,24,-1
 1280 256 l 1,25,-1
 1024 256 l 1,26,-1
 1024 1536 l 1,0,-1
EndSplineSet
Validated: 1
EndChar

StartChar: e
Encoding: 101 101 100
Width: 2304
GlyphClass: 1
Flags: W
LayerCount: 2
Fore
SplineSet
512 1280 m 1,0,-1
 1280 1280 l 1,1,-1
 1280 1536 l 1,2,-1
 512 1536 l 1,3,-1
 512 1280 l 1,0,-1
256 1792 m 1,4,-1
 1536 1792 l 1,5,-1
 1536 1536 l 1,6,-1
 1792 1536 l 1,7,-1
 1792 1024 l 1,8,-1
 512 1024 l 1,9,-1
 512 256 l 1,10,-1
 1280 256 l 1,11,-1
 1280 512 l 1,12,-1
 1792 512 l 1,13,-1
 1792 256 l 1,14,-1
 1536 256 l 1,15,-1
 1536 0 l 1,16,-1
 256 0 l 1,17,-1
 256 256 l 1,18,-1
 0 256 l 1,19,-1
 0 1536 l 1,20,-1
 256 1536 l 1,21,-1
 256 1792 l 1,4,-1
EndSplineSet
Validated: 1
EndChar

StartChar: f
Encoding: 102 102 101
Width: 2304
GlyphClass: 1
Flags: W
LayerCount: 2
Fore
SplineSet
256 1536 m 1,0,-1
 512 1536 l 1,1,-1
 512 2304 l 1,2,-1
 768 2304 l 1,3,-1
 768 2560 l 1,4,-1
 1536 2560 l 1,5,-1
 1536 2304 l 1,6,-1
 1792 2304 l 1,7,-1
 1792 1792 l 1,8,-1
 1536 1792 l 1,9,-1
 1536 2048 l 1,10,-1
 1280 2048 l 1,11,-1
 1280 2304 l 1,12,-1
 1024 2304 l 1,13,-1
 1024 1536 l 1,14,-1
 1280 1536 l 1,15,-1
 1280 1280 l 1,16,-1
 1024 1280 l 1,17,-1
 1024 256 l 1,18,-1
 1280 256 l 1,19,-1
 1280 0 l 1,20,-1
 256 0 l 1,21,-1
 256 256 l 1,22,-1
 512 256 l 1,23,-1
 512 1280 l 1,24,-1
 256 1280 l 1,25,-1
 256 1536 l 1,0,-1
EndSplineSet
Validated: 1
EndChar

StartChar: g
Encoding: 103 103 102
Width: 2304
GlyphClass: 1
Flags: W
LayerCount: 2
Fore
SplineSet
1024 1534 m 1,0,-1
 1026 1536 l 1,1,-1
 1280 1536 l 1,2,-1
 1280 1792 l 1,3,-1
 1792 1792 l 1,4,-1
 1792 1536 l 1,5,-1
 1536 1536 l 1,6,-1
 1536 -512 l 1,7,-1
 1280 -512 l 1,8,-1
 1280 -768 l 1,9,-1
 256 -768 l 1,10,-1
 256 -512 l 1,11,-1
 0 -512 l 1,12,-1
 0 -256 l 1,13,-1
 512 -256 l 1,14,-1
 512 -512 l 1,15,-1
 1024 -512 l 1,16,-1
 1024 0 l 1,17,-1
 256 0 l 1,18,-1
 256 256 l 1,19,-1
 0 256 l 1,20,-1
 0 1536 l 1,21,-1
 256 1536 l 1,22,-1
 256 1792 l 1,23,-1
 1024 1792 l 1,24,-1
 1024 1536 l 1,25,-1
 512 1536 l 1,26,-1
 512 256 l 1,27,-1
 1024 256 l 1,28,-1
 1024 1534 l 1,0,-1
EndSplineSet
Validated: 1
EndChar

StartChar: h
Encoding: 104 104 103
Width: 2304
GlyphClass: 1
Flags: W
LayerCount: 2
Fore
SplineSet
1024 1792 m 1,0,-1
 1536 1792 l 1,1,-1
 1536 1536 l 1,2,-1
 1792 1536 l 1,3,-1
 1792 0 l 1,4,-1
 1280 0 l 1,5,-1
 1280 1536 l 1,6,-1
 1024 1536 l 1,7,-1
 1024 1792 l 1,0,-1
768 0 m 1,8,-1
 0 0 l 1,9,-1
 0 256 l 1,10,-1
 256 256 l 1,11,-1
 256 2304 l 1,12,-1
 0 2304 l 1,13,-1
 0 2560 l 1,14,-1
 768 2560 l 1,15,-1
 768 1536 l 1,16,-1
 1024 1536 l 1,17,-1
 1024 1280 l 1,18,-1
 768 1280 l 1,19,-1
 768 0 l 1,8,-1
EndSplineSet
Validated: 5
EndChar

StartChar: i
Encoding: 105 105 104
Width: 2304
GlyphClass: 1
Flags: W
LayerCount: 2
Fore
SplineSet
768 2560 m 1,0,-1
 1280 2560 l 1,1,-1
 1280 2048 l 1,2,-1
 768 2048 l 1,3,-1
 768 2560 l 1,0,-1
512 1792 m 1,4,-1
 1280 1792 l 1,5,-1
 1280 256 l 1,6,-1
 1536 256 l 1,7,-1
 1536 0 l 1,8,-1
 512 0 l 1,9,-1
 512 256 l 1,10,-1
 768 256 l 1,11,-1
 768 1536 l 1,12,-1
 512 1536 l 1,13,-1
 512 1792 l 1,4,-1
EndSplineSet
Validated: 1
EndChar

StartChar: j
Encoding: 106 106 105
Width: 2304
GlyphClass: 1
Flags: W
LayerCount: 2
Fore
SplineSet
1280 2560 m 1,0,-1
 1792 2560 l 1,1,-1
 1792 2048 l 1,2,-1
 1280 2048 l 1,3,-1
 1280 2560 l 1,0,-1
1024 1792 m 1,4,-1
 1792 1792 l 1,5,-1
 1792 -512 l 1,6,-1
 1536 -512 l 1,7,-1
 1536 -768 l 1,8,-1
 512 -768 l 1,9,-1
 512 -512 l 1,10,-1
 256 -512 l 1,11,-1
 256 0 l 1,12,-1
 768 0 l 1,13,-1
 768 -512 l 1,14,-1
 1280 -512 l 1,15,-1
 1280 1536 l 1,16,-1
 1024 1536 l 1,17,-1
 1024 1792 l 1,4,-1
EndSplineSet
Validated: 1
EndChar

StartChar: k
Encoding: 107 107 106
Width: 2304
GlyphClass: 1
Flags: W
LayerCount: 2
Fore
SplineSet
1024 1536 m 1,0,-1
 1280 1536 l 1,1,-1
 1280 1792 l 1,2,-1
 1792 1792 l 1,3,-1
 1792 1536 l 1,4,-1
 1536 1536 l 1,5,-1
 1536 1280 l 1,6,-1
 1280 1280 l 1,7,-1
 1280 768 l 1,8,-1
 1536 768 l 1,9,-1
 1536 512 l 1,10,-1
 1792 512 l 1,11,-1
 1792 0 l 1,12,-1
 1280 0 l 1,13,-1
 1280 512 l 1,14,-1
 1024 512 l 1,15,-1
 1024 768 l 1,16,-1
 768 768 l 1,17,-1
 768 0 l 1,18,-1
 0 0 l 1,19,-1
 0 256 l 1,20,-1
 256 256 l 1,21,-1
 256 2304 l 1,22,-1
 0 2304 l 1,23,-1
 0 2560 l 1,24,-1
 768 2560 l 1,25,-1
 768 1280 l 1,26,-1
 1024 1280 l 1,27,-1
 1024 1536 l 1,0,-1
EndSplineSet
Validated: 1
EndChar

StartChar: l
Encoding: 108 108 107
Width: 2304
GlyphClass: 1
Flags: W
LayerCount: 2
Fore
SplineSet
512 2560 m 1,0,-1
 1280 2560 l 1,1,-1
 1280 256 l 1,2,-1
 1536 256 l 1,3,-1
 1536 0 l 1,4,-1
 512 0 l 1,5,-1
 512 256 l 1,6,-1
 768 256 l 1,7,-1
 768 2304 l 1,8,-1
 512 2304 l 1,9,-1
 512 2560 l 1,0,-1
EndSplineSet
Validated: 1
EndChar

StartChar: m
Encoding: 109 109 108
Width: 2304
GlyphClass: 1
Flags: W
LayerCount: 2
Fore
SplineSet
1280 1280 m 1,0,-1
 1024 1280 l 1,1,-1
 1024 256 l 1,2,-1
 768 256 l 1,3,-1
 768 1280 l 1,4,-1
 512 1280 l 1,5,-1
 512 0 l 1,6,-1
 0 0 l 1,7,-1
 0 1792 l 1,8,-1
 768 1792 l 1,9,-1
 768 1536 l 1,10,-1
 1024 1536 l 1,11,-1
 1024 1792 l 1,12,-1
 1536 1792 l 1,13,-1
 1536 1536 l 1,14,-1
 1792 1536 l 1,15,-1
 1792 0 l 1,16,-1
 1280 0 l 1,17,-1
 1280 1280 l 1,0,-1
EndSplineSet
Validated: 1
EndChar

StartChar: n
Encoding: 110 110 109
Width: 2304
GlyphClass: 1
Flags: W
LayerCount: 2
Fore
SplineSet
256 1536 m 1,0,-1
 0 1536 l 1,1,-1
 0 1792 l 1,2,-1
 512 1792 l 1,3,-1
 512 1536 l 1,4,-1
 768 1536 l 1,5,-1
 768 0 l 1,6,-1
 256 0 l 1,7,-1
 256 1536 l 1,0,-1
768 1792 m 1,8,-1
 1536 1792 l 1,9,-1
 1536 1536 l 1,10,-1
 1792 1536 l 1,11,-1
 1792 0 l 1,12,-1
 1280 0 l 1,13,-1
 1280 1536 l 1,14,-1
 768 1536 l 1,15,-1
 768 1792 l 1,8,-1
EndSplineSet
Validated: 5
EndChar

StartChar: o
Encoding: 111 111 110
Width: 2304
GlyphClass: 1
Flags: W
LayerCount: 2
Fore
SplineSet
1280 1536 m 1,0,-1
 512 1536 l 1,1,-1
 512 256 l 1,2,-1
 1280 256 l 1,3,-1
 1280 1536 l 1,0,-1
256 256 m 1,4,-1
 0 256 l 1,5,-1
 0 1536 l 1,6,-1
 256 1536 l 1,7,-1
 256 1792 l 1,8,-1
 1536 1792 l 1,9,-1
 1536 1536 l 1,10,-1
 1792 1536 l 1,11,-1
 1792 256 l 1,12,-1
 1536 256 l 1,13,-1
 1536 0 l 1,14,-1
 256 0 l 1,15,-1
 256 256 l 1,4,-1
EndSplineSet
Validated: 1
EndChar

StartChar: p
Encoding: 112 112 111
Width: 2304
GlyphClass: 1
Flags: W
LayerCount: 2
Fore
SplineSet
768 1792 m 1,0,-1
 1536 1792 l 1,1,-1
 1536 1536 l 1,2,-1
 1792 1536 l 1,3,-1
 1792 256 l 1,4,-1
 1536 256 l 1,5,-1
 1536 0 l 1,6,-1
 768 0 l 1,7,-1
 768 -512 l 1,8,-1
 1024 -512 l 1,9,-1
 1024 -768 l 1,10,-1
 0 -768 l 1,11,-1
 0 -512 l 1,12,-1
 256 -512 l 1,13,-1
 256 1536 l 1,14,-1
 0 1536 l 1,15,-1
 0 1792 l 1,16,-1
 512 1792 l 1,17,-1
 512 1536 l 1,18,-1
 766 1536 l 1,19,-1
 768 1534 l 1,20,-1
 768 256 l 1,21,-1
 1280 256 l 1,22,-1
 1280 1536 l 1,23,-1
 768 1536 l 1,24,-1
 768 1792 l 1,0,-1
EndSplineSet
Validated: 1
EndChar

StartChar: q
Encoding: 113 113 112
Width: 2304
GlyphClass: 1
Flags: W
LayerCount: 2
Fore
SplineSet
1024 256 m 1,0,-1
 1024 1534 l 1,1,-1
 1026 1536 l 1,2,-1
 1280 1536 l 1,3,-1
 1280 1792 l 1,4,-1
 1792 1792 l 1,5,-1
 1792 1536 l 1,6,-1
 1536 1536 l 1,7,-1
 1536 -512 l 1,8,-1
 1792 -512 l 1,9,-1
 1792 -768 l 1,10,-1
 768 -768 l 1,11,-1
 768 -512 l 1,12,-1
 1024 -512 l 1,13,-1
 1024 0 l 1,14,-1
 256 0 l 1,15,-1
 256 256 l 1,16,-1
 0 256 l 1,17,-1
 0 1536 l 1,18,-1
 256 1536 l 1,19,-1
 256 1792 l 1,20,-1
 1024 1792 l 1,21,-1
 1024 1536 l 1,22,-1
 512 1536 l 1,23,-1
 512 256 l 1,24,-1
 1024 256 l 1,0,-1
EndSplineSet
Validated: 1
EndChar

StartChar: r
Encoding: 114 114 113
Width: 2304
GlyphClass: 1
Flags: W
LayerCount: 2
Fore
SplineSet
1024 1280 m 1,0,-1
 768 1280 l 1,1,-1
 768 256 l 1,2,-1
 1024 256 l 1,3,-1
 1024 0 l 1,4,-1
 0 0 l 1,5,-1
 0 256 l 1,6,-1
 256 256 l 1,7,-1
 256 1536 l 1,8,-1
 0 1536 l 1,9,-1
 0 1792 l 1,10,-1
 512 1792 l 1,11,-1
 512 1536 l 1,12,-1
 768 1536 l 1,13,-1
 768 1792 l 1,14,-1
 1536 1792 l 1,15,-1
 1536 1536 l 1,16,-1
 1792 1536 l 1,17,-1
 1792 1024 l 1,18,-1
 1280 1024 l 1,19,-1
 1280 1536 l 1,20,-1
 1024 1536 l 1,21,-1
 1024 1280 l 1,0,-1
EndSplineSet
Validated: 1
EndChar

StartChar: s
Encoding: 115 115 114
Width: 2304
GlyphClass: 1
Flags: W
LayerCount: 2
Fore
SplineSet
1280 1536 m 1,0,-1
 512 1536 l 1,1,-1
 512 1280 l 1,2,-1
 768 1280 l 1,3,-1
 768 1024 l 1,4,-1
 1280 1024 l 1,5,-1
 1280 768 l 1,6,-1
 1536 768 l 1,7,-1
 1536 512 l 1,8,-1
 1792 512 l 1,9,-1
 1792 256 l 1,10,-1
 1536 256 l 1,11,-1
 1536 0 l 1,12,-1
 256 0 l 1,13,-1
 256 256 l 1,14,-1
 0 256 l 1,15,-1
 0 512 l 1,16,-1
 512 512 l 1,17,-1
 512 256 l 1,18,-1
 1280 256 l 1,19,-1
 1280 512 l 1,20,-1
 1024 512 l 1,21,-1
 1024 768 l 1,22,-1
 512 768 l 1,23,-1
 512 1024 l 1,24,-1
 256 1024 l 1,25,-1
 256 1280 l 1,26,-1
 0 1280 l 1,27,-1
 0 1536 l 1,28,-1
 256 1536 l 1,29,-1
 256 1792 l 1,30,-1
 1536 1792 l 1,31,-1
 1536 1536 l 1,32,-1
 1792 1536 l 1,33,-1
 1792 1280 l 1,34,-1
 1280 1280 l 1,35,-1
 1280 1536 l 1,0,-1
EndSplineSet
Validated: 1
EndChar

StartChar: t
Encoding: 116 116 115
Width: 2304
GlyphClass: 1
Flags: W
LayerCount: 2
Fore
SplineSet
0 1792 m 1,0,-1
 512 1792 l 1,1,-1
 512 2304 l 1,2,-1
 768 2304 l 1,3,-1
 768 2560 l 1,4,-1
 1024 2560 l 1,5,-1
 1024 1792 l 1,6,-1
 1536 1792 l 1,7,-1
 1536 1536 l 1,8,-1
 1024 1536 l 1,9,-1
 1024 256 l 1,10,-1
 1280 256 l 1,11,-1
 1280 512 l 1,12,-1
 1792 512 l 1,13,-1
 1792 256 l 1,14,-1
 1536 256 l 1,15,-1
 1536 0 l 1,16,-1
 768 0 l 1,17,-1
 768 256 l 1,18,-1
 512 256 l 1,19,-1
 512 1536 l 1,20,-1
 0 1536 l 1,21,-1
 0 1792 l 1,0,-1
EndSplineSet
Validated: 1
EndChar

StartChar: u
Encoding: 117 117 116
Width: 2304
GlyphClass: 1
Flags: W
LayerCount: 2
Fore
SplineSet
1024 1792 m 1,0,-1
 1536 1792 l 1,1,-1
 1536 256 l 1,2,-1
 1792 256 l 1,3,-1
 1792 0 l 1,4,-1
 1280 0 l 1,5,-1
 1280 256 l 1,6,-1
 1024 256 l 1,7,-1
 1024 1792 l 1,0,-1
0 1792 m 1,8,-1
 512 1792 l 1,9,-1
 512 256 l 1,10,-1
 1024 256 l 1,11,-1
 1024 0 l 1,12,-1
 256 0 l 1,13,-1
 256 256 l 1,14,-1
 0 256 l 1,15,-1
 0 1792 l 1,8,-1
EndSplineSet
Validated: 5
EndChar

StartChar: v
Encoding: 118 118 117
Width: 2304
GlyphClass: 1
Flags: W
LayerCount: 2
Fore
SplineSet
1280 1792 m 1,0,-1
 1792 1792 l 1,1,-1
 1792 512 l 1,2,-1
 1536 512 l 1,3,-1
 1536 256 l 1,4,-1
 1280 256 l 1,5,-1
 1280 0 l 1,6,-1
 512 0 l 1,7,-1
 512 256 l 1,8,-1
 256 256 l 1,9,-1
 256 512 l 1,10,-1
 0 512 l 1,11,-1
 0 1792 l 1,12,-1
 512 1792 l 1,13,-1
 512 512 l 1,14,-1
 768 512 l 1,15,-1
 768 256 l 1,16,-1
 1024 256 l 1,17,-1
 1024 512 l 1,18,-1
 1280 512 l 1,19,-1
 1280 1792 l 1,0,-1
EndSplineSet
Validated: 1
EndChar

StartChar: w
Encoding: 119 119 118
Width: 2304
GlyphClass: 1
Flags: W
LayerCount: 2
Fore
SplineSet
1536 0 m 1,0,-1
 1024 0 l 1,1,-1
 1024 256 l 1,2,-1
 768 256 l 1,3,-1
 768 0 l 1,4,-1
 256 0 l 1,5,-1
 256 256 l 1,6,-1
 0 256 l 1,7,-1
 0 1792 l 1,8,-1
 512 1792 l 1,9,-1
 512 512 l 1,10,-1
 768 512 l 1,11,-1
 768 1280 l 1,12,-1
 1024 1280 l 1,13,-1
 1024 512 l 1,14,-1
 1280 512 l 1,15,-1
 1280 1792 l 1,16,-1
 1792 1792 l 1,17,-1
 1792 256 l 1,18,-1
 1536 256 l 1,19,-1
 1536 0 l 1,0,-1
EndSplineSet
Validated: 1
EndChar

StartChar: x
Encoding: 120 120 119
Width: 2304
GlyphClass: 1
Flags: W
LayerCount: 2
Fore
SplineSet
0 1792 m 1,0,-1
 512 1792 l 1,1,-1
 512 1536 l 1,2,-1
 768 1536 l 1,3,-1
 768 1280 l 1,4,-1
 1024 1280 l 1,5,-1
 1024 1536 l 1,6,-1
 1280 1536 l 1,7,-1
 1280 1792 l 1,8,-1
 1792 1792 l 1,9,-1
 1792 1536 l 1,10,-1
 1536 1536 l 1,11,-1
 1536 1280 l 1,12,-1
 1280 1280 l 1,13,-1
 1280 512 l 1,14,-1
 1536 512 l 1,15,-1
 1536 256 l 1,16,-1
 1792 256 l 1,17,-1
 1792 0 l 1,18,-1
 1280 0 l 1,19,-1
 1280 256 l 1,20,-1
 1024 256 l 1,21,-1
 1024 512 l 1,22,-1
 768 512 l 1,23,-1
 768 256 l 1,24,-1
 512 256 l 1,25,-1
 512 0 l 1,26,-1
 0 0 l 1,27,-1
 0 256 l 1,28,-1
 256 256 l 1,29,-1
 256 512 l 1,30,-1
 512 512 l 1,31,-1
 512 1280 l 1,32,-1
 256 1280 l 1,33,-1
 256 1536 l 1,34,-1
 0 1536 l 1,35,-1
 0 1792 l 1,0,-1
EndSplineSet
Validated: 1
EndChar

StartChar: y
Encoding: 121 121 120
Width: 2304
GlyphClass: 1
Flags: W
LayerCount: 2
Fore
SplineSet
0 -512 m 1,0,-1
 1024 -512 l 1,1,-1
 1024 -256 l 1,2,-1
 1280 -256 l 1,3,-1
 1280 0 l 1,4,-1
 256 0 l 1,5,-1
 256 256 l 1,6,-1
 0 256 l 1,7,-1
 0 1792 l 1,8,-1
 512 1792 l 1,9,-1
 512 256 l 1,10,-1
 1280 256 l 1,11,-1
 1280 1792 l 1,12,-1
 1792 1792 l 1,13,-1
 1792 -256 l 1,14,-1
 1536 -256 l 1,15,-1
 1536 -512 l 1,16,-1
 1280 -512 l 1,17,-1
 1280 -768 l 1,18,-1
 0 -768 l 1,19,-1
 0 -512 l 1,0,-1
EndSplineSet
Validated: 1
EndChar

StartChar: z
Encoding: 122 122 121
Width: 2304
GlyphClass: 1
Flags: W
LayerCount: 2
Fore
SplineSet
0 1792 m 1,0,-1
 1792 1792 l 1,1,-1
 1792 1536 l 1,2,-1
 1536 1536 l 1,3,-1
 1536 1280 l 1,4,-1
 1280 1280 l 1,5,-1
 1280 1024 l 1,6,-1
 1024 1024 l 1,7,-1
 1024 768 l 1,8,-1
 768 768 l 1,9,-1
 768 512 l 1,10,-1
 512 512 l 1,11,-1
 512 256 l 1,12,-1
 1280 256 l 1,13,-1
 1280 512 l 1,14,-1
 1792 512 l 1,15,-1
 1792 0 l 1,16,-1
 0 0 l 1,17,-1
 0 512 l 1,18,-1
 256 512 l 1,19,-1
 256 768 l 1,20,-1
 512 768 l 1,21,-1
 512 1024 l 1,22,-1
 768 1024 l 1,23,-1
 768 1280 l 1,24,-1
 1024 1280 l 1,25,-1
 1024 1536 l 1,26,-1
 512 1536 l 1,27,-1
 512 1280 l 1,28,-1
 0 1280 l 1,29,-1
 0 1792 l 1,0,-1
EndSplineSet
Validated: 1
EndChar

StartChar: braceleft
Encoding: 123 123 122
Width: 2304
GlyphClass: 1
Flags: W
LayerCount: 2
Fore
SplineSet
1024 2560 m 1,0,-1
 1792 2560 l 1,1,-1
 1792 2304 l 1,2,-1
 1280 2304 l 1,3,-1
 1280 1536 l 1,4,-1
 1024 1536 l 1,5,-1
 1024 1280 l 1,6,-1
 1280 1280 l 1,7,-1
 1280 256 l 1,8,-1
 1792 256 l 1,9,-1
 1792 0 l 1,10,-1
 1024 0 l 1,11,-1
 1024 256 l 1,12,-1
 768 256 l 1,13,-1
 768 1280 l 1,14,-1
 256 1280 l 1,15,-1
 256 1536 l 1,16,-1
 768 1536 l 1,17,-1
 768 2304 l 1,18,-1
 1024 2304 l 1,19,-1
 1024 2560 l 1,0,-1
EndSplineSet
Validated: 1
EndChar

StartChar: bar
Encoding: 124 124 123
Width: 2304
GlyphClass: 1
Flags: W
LayerCount: 2
Fore
SplineSet
768 2560 m 1,0,-1
 1280 2560 l 1,1,-1
 1280 0 l 1,2,-1
 768 0 l 1,3,-1
 768 2560 l 1,0,-1
EndSplineSet
Validated: 1
EndChar

StartChar: braceright
Encoding: 125 125 124
Width: 2304
GlyphClass: 1
Flags: W
LayerCount: 2
Fore
SplineSet
256 256 m 1,0,-1
 768 256 l 1,1,-1
 768 1280 l 1,2,-1
 1024 1280 l 1,3,-1
 1024 1536 l 1,4,-1
 768 1536 l 1,5,-1
 768 2304 l 1,6,-1
 256 2304 l 1,7,-1
 256 2560 l 1,8,-1
 1024 2560 l 1,9,-1
 1024 2304 l 1,10,-1
 1280 2304 l 1,11,-1
 1280 1536 l 1,12,-1
 1792 1536 l 1,13,-1
 1792 1280 l 1,14,-1
 1280 1280 l 1,15,-1
 1280 256 l 1,16,-1
 1024 256 l 1,17,-1
 1024 0 l 1,18,-1
 256 0 l 1,19,-1
 256 256 l 1,0,-1
EndSplineSet
Validated: 1
EndChar

StartChar: asciitilde
Encoding: 126 126 125
Width: 2304
GlyphClass: 1
Flags: W
LayerCount: 2
Fore
SplineSet
1280 2816 m 1,0,-1
 1792 2816 l 1,1,-1
 1792 2560 l 1,2,-1
 1536 2560 l 1,3,-1
 1536 2304 l 1,4,-1
 768 2304 l 1,5,-1
 768 2560 l 1,6,-1
 512 2560 l 1,7,-1
 512 2304 l 1,8,-1
 0 2304 l 1,9,-1
 0 2560 l 1,10,-1
 256 2560 l 1,11,-1
 256 2816 l 1,12,-1
 1024 2816 l 1,13,-1
 1024 2560 l 1,14,-1
 1280 2560 l 1,15,-1
 1280 2816 l 1,0,-1
EndSplineSet
Validated: 1
EndChar

StartChar: uni007F
Encoding: 127 127 126
Width: 2304
GlyphClass: 1
Flags: W
LayerCount: 2
Fore
SplineSet
1024 1536 m 1,0,-1
 768 1536 l 1,1,-1
 768 1280 l 1,2,-1
 512 1280 l 1,3,-1
 512 512 l 1,4,-1
 1280 512 l 1,5,-1
 1280 1280 l 1,6,-1
 1024 1280 l 1,7,-1
 1024 1536 l 1,0,-1
1280 1536 m 1,8,-1
 1536 1536 l 1,9,-1
 1536 1280 l 1,10,-1
 1792 1280 l 1,11,-1
 1792 256 l 1,12,-1
 0 256 l 1,13,-1
 0 1280 l 1,14,-1
 256 1280 l 1,15,-1
 256 1536 l 1,16,-1
 512 1536 l 1,17,-1
 512 1792 l 1,18,-1
 768 1792 l 1,19,-1
 768 2048 l 1,20,-1
 1024 2048 l 1,21,-1
 1024 1792 l 1,22,-1
 1280 1792 l 1,23,-1
 1280 1536 l 1,8,-1
EndSplineSet
Validated: 1
EndChar

StartChar: Euro
Encoding: 8364 8364 127
Width: 2304
GlyphClass: 1
Flags: W
LayerCount: 2
Fore
SplineSet
256 -256 m 1,0,-1
 768 -256 l 1,1,-1
 768 0 l 1,2,-1
 512 0 l 1,3,-1
 512 256 l 1,4,-1
 256 256 l 1,5,-1
 256 512 l 1,6,-1
 0 512 l 1,7,-1
 0 2048 l 1,8,-1
 256 2048 l 1,9,-1
 256 2304 l 1,10,-1
 512 2304 l 1,11,-1
 512 2560 l 1,12,-1
 1536 2560 l 1,13,-1
 1536 2304 l 1,14,-1
 1792 2304 l 1,15,-1
 1792 1792 l 1,16,-1
 1536 1792 l 1,17,-1
 1536 2048 l 1,18,-1
 1280 2048 l 1,19,-1
 1280 2304 l 1,20,-1
 768 2304 l 1,21,-1
 768 2048 l 1,22,-1
 512 2048 l 1,23,-1
 512 512 l 1,24,-1
 768 512 l 1,25,-1
 768 256 l 1,26,-1
 1280 256 l 1,27,-1
 1280 512 l 1,28,-1
 1536 512 l 1,29,-1
 1536 768 l 1,30,-1
 1792 768 l 1,31,-1
 1792 256 l 1,32,-1
 1536 256 l 1,33,-1
 1536 0 l 1,34,-1
 1280 0 l 1,35,-1
 1280 -256 l 1,36,-1
 1024 -256 l 1,37,-1
 1024 -512 l 1,38,-1
 256 -512 l 1,39,-1
 256 -256 l 1,0,-1
EndSplineSet
Validated: 1
EndChar

StartChar: uni0081
Encoding: 129 129 128
Width: 2304
GlyphClass: 1
Flags: W
LayerCount: 2
Fore
SplineSet
1024 2560 m 1,0,-1
 1536 2560 l 1,1,-1
 1536 2304 l 1,2,-1
 1024 2304 l 1,3,-1
 1024 2560 l 1,0,-1
0 2560 m 1,4,-1
 512 2560 l 1,5,-1
 512 2304 l 1,6,-1
 0 2304 l 1,7,-1
 0 2560 l 1,4,-1
1024 1792 m 1,8,-1
 1536 1792 l 1,9,-1
 1536 256 l 1,10,-1
 1792 256 l 1,11,-1
 1792 0 l 1,12,-1
 1280 0 l 1,13,-1
 1280 256 l 1,14,-1
 1024 256 l 1,15,-1
 1024 1792 l 1,8,-1
0 1792 m 1,16,-1
 512 1792 l 1,17,-1
 512 256 l 1,18,-1
 1024 256 l 1,19,-1
 1024 0 l 1,20,-1
 256 0 l 1,21,-1
 256 256 l 1,22,-1
 0 256 l 1,23,-1
 0 1792 l 1,16,-1
EndSplineSet
Validated: 5
EndChar

StartChar: quotesinglbase
Encoding: 8218 8218 129
Width: 2304
GlyphClass: 1
Flags: W
LayerCount: 2
Fore
SplineSet
512 1280 m 1,0,-1
 1280 1280 l 1,1,-1
 1280 1536 l 1,2,-1
 512 1536 l 1,3,-1
 512 1280 l 1,0,-1
768 2560 m 1,4,-1
 1024 2560 l 1,5,-1
 1024 2816 l 1,6,-1
 1536 2816 l 1,7,-1
 1536 2560 l 1,8,-1
 1280 2560 l 1,9,-1
 1280 2304 l 1,10,-1
 1024 2304 l 1,11,-1
 1024 2048 l 1,12,-1
 512 2048 l 1,13,-1
 512 2304 l 1,14,-1
 768 2304 l 1,15,-1
 768 2560 l 1,4,-1
256 1792 m 1,16,-1
 1536 1792 l 1,17,-1
 1536 1536 l 1,18,-1
 1792 1536 l 1,19,-1
 1792 1024 l 1,20,-1
 512 1024 l 1,21,-1
 512 256 l 1,22,-1
 1280 256 l 1,23,-1
 1280 512 l 1,24,-1
 1792 512 l 1,25,-1
 1792 256 l 1,26,-1
 1536 256 l 1,27,-1
 1536 0 l 1,28,-1
 256 0 l 1,29,-1
 256 256 l 1,30,-1
 0 256 l 1,31,-1
 0 1536 l 1,32,-1
 256 1536 l 1,33,-1
 256 1792 l 1,16,-1
EndSplineSet
Validated: 1
EndChar

StartChar: florin
Encoding: 402 402 130
Width: 2304
GlyphClass: 1
Flags: W
LayerCount: 2
Fore
SplineSet
256 2304 m 1,0,-1
 512 2304 l 1,1,-1
 512 2560 l 1,2,-1
 768 2560 l 1,3,-1
 768 2816 l 1,4,-1
 1024 2816 l 1,5,-1
 1024 2560 l 1,6,-1
 1280 2560 l 1,7,-1
 1280 2304 l 1,8,-1
 1536 2304 l 1,9,-1
 1536 2048 l 1,10,-1
 1024 2048 l 1,11,-1
 1024 2304 l 1,12,-1
 768 2304 l 1,13,-1
 768 2048 l 1,14,-1
 256 2048 l 1,15,-1
 256 2304 l 1,0,-1
1024 0 m 1,16,-1
 256 0 l 1,17,-1
 256 256 l 1,18,-1
 0 256 l 1,19,-1
 0 1024 l 1,20,-1
 256 1024 l 1,21,-1
 256 1280 l 1,22,-1
 1024 1280 l 1,23,-1
 1024 1536 l 1,24,-1
 256 1536 l 1,25,-1
 256 1792 l 1,26,-1
 1280 1792 l 1,27,-1
 1280 1536 l 1,28,-1
 1536 1536 l 1,29,-1
 1536 256 l 1,30,-1
 1792 256 l 1,31,-1
 1792 0 l 1,32,-1
 1280 0 l 1,33,-1
 1280 256 l 1,34,-1
 1026 256 l 1,35,-1
 1024 258 l 1,36,-1
 1024 1024 l 1,37,-1
 512 1024 l 1,38,-1
 512 256 l 1,39,-1
 1024 256 l 1,40,-1
 1024 0 l 1,16,-1
EndSplineSet
Validated: 1
EndChar

StartChar: quotedblbase
Encoding: 8222 8222 131
Width: 2304
GlyphClass: 1
Flags: W
LayerCount: 2
Fore
SplineSet
1024 2560 m 1,0,-1
 1536 2560 l 1,1,-1
 1536 2304 l 1,2,-1
 1024 2304 l 1,3,-1
 1024 2560 l 1,0,-1
0 2560 m 1,4,-1
 512 2560 l 1,5,-1
 512 2304 l 1,6,-1
 0 2304 l 1,7,-1
 0 2560 l 1,4,-1
1024 0 m 1,8,-1
 256 0 l 1,9,-1
 256 256 l 1,10,-1
 0 256 l 1,11,-1
 0 1024 l 1,12,-1
 256 1024 l 1,13,-1
 256 1280 l 1,14,-1
 1024 1280 l 1,15,-1
 1024 1536 l 1,16,-1
 256 1536 l 1,17,-1
 256 1792 l 1,18,-1
 1280 1792 l 1,19,-1
 1280 1536 l 1,20,-1
 1536 1536 l 1,21,-1
 1536 256 l 1,22,-1
 1792 256 l 1,23,-1
 1792 0 l 1,24,-1
 1280 0 l 1,25,-1
 1280 256 l 1,26,-1
 1026 256 l 1,27,-1
 1024 258 l 1,28,-1
 1024 1024 l 1,29,-1
 512 1024 l 1,30,-1
 512 256 l 1,31,-1
 1024 256 l 1,32,-1
 1024 0 l 1,8,-1
EndSplineSet
Validated: 1
EndChar

StartChar: ellipsis
Encoding: 8230 8230 132
Width: 2304
GlyphClass: 1
Flags: W
LayerCount: 2
Fore
SplineSet
768 2304 m 1,0,-1
 512 2304 l 1,1,-1
 512 2560 l 1,2,-1
 256 2560 l 1,3,-1
 256 2816 l 1,4,-1
 768 2816 l 1,5,-1
 768 2560 l 1,6,-1
 1024 2560 l 1,7,-1
 1024 2304 l 1,8,-1
 1280 2304 l 1,9,-1
 1280 2048 l 1,10,-1
 768 2048 l 1,11,-1
 768 2304 l 1,0,-1
1024 0 m 1,12,-1
 256 0 l 1,13,-1
 256 256 l 1,14,-1
 0 256 l 1,15,-1
 0 1024 l 1,16,-1
 256 1024 l 1,17,-1
 256 1280 l 1,18,-1
 1024 1280 l 1,19,-1
 1024 1536 l 1,20,-1
 256 1536 l 1,21,-1
 256 1792 l 1,22,-1
 1280 1792 l 1,23,-1
 1280 1536 l 1,24,-1
 1536 1536 l 1,25,-1
 1536 256 l 1,26,-1
 1792 256 l 1,27,-1
 1792 0 l 1,28,-1
 1280 0 l 1,29,-1
 1280 256 l 1,30,-1
 1026 256 l 1,31,-1
 1024 258 l 1,32,-1
 1024 1024 l 1,33,-1
 512 1024 l 1,34,-1
 512 256 l 1,35,-1
 1024 256 l 1,36,-1
 1024 0 l 1,12,-1
EndSplineSet
Validated: 1
EndChar

StartChar: dagger
Encoding: 8224 8224 133
Width: 2304
GlyphClass: 1
Flags: W
LayerCount: 2
Fore
SplineSet
1024 2560 m 1,0,-1
 768 2560 l 1,1,-1
 768 2304 l 1,2,-1
 1024 2304 l 1,3,-1
 1024 2560 l 1,0,-1
256 2560 m 1,4,-1
 512 2560 l 1,5,-1
 512 2816 l 1,6,-1
 1280 2816 l 1,7,-1
 1280 2560 l 1,8,-1
 1536 2560 l 1,9,-1
 1536 2304 l 1,10,-1
 1280 2304 l 1,11,-1
 1280 2048 l 1,12,-1
 512 2048 l 1,13,-1
 512 2304 l 1,14,-1
 256 2304 l 1,15,-1
 256 2560 l 1,4,-1
1024 0 m 1,16,-1
 256 0 l 1,17,-1
 256 256 l 1,18,-1
 0 256 l 1,19,-1
 0 1024 l 1,20,-1
 256 1024 l 1,21,-1
 256 1280 l 1,22,-1
 1024 1280 l 1,23,-1
 1024 1536 l 1,24,-1
 256 1536 l 1,25,-1
 256 1792 l 1,26,-1
 1280 1792 l 1,27,-1
 1280 1536 l 1,28,-1
 1536 1536 l 1,29,-1
 1536 256 l 1,30,-1
 1792 256 l 1,31,-1
 1792 0 l 1,32,-1
 1280 0 l 1,33,-1
 1280 256 l 1,34,-1
 1026 256 l 1,35,-1
 1024 258 l 1,36,-1
 1024 1024 l 1,37,-1
 512 1024 l 1,38,-1
 512 256 l 1,39,-1
 1024 256 l 1,40,-1
 1024 0 l 1,16,-1
EndSplineSet
Validated: 1
EndChar

StartChar: daggerdbl
Encoding: 8225 8225 134
Width: 2304
GlyphClass: 1
Flags: W
LayerCount: 2
Fore
SplineSet
256 -256 m 1,0,-1
 768 -256 l 1,1,-1
 768 0 l 1,2,-1
 256 0 l 1,3,-1
 256 256 l 1,4,-1
 0 256 l 1,5,-1
 0 1536 l 1,6,-1
 256 1536 l 1,7,-1
 256 1792 l 1,8,-1
 1536 1792 l 1,9,-1
 1536 1536 l 1,10,-1
 1792 1536 l 1,11,-1
 1792 1280 l 1,12,-1
 1280 1280 l 1,13,-1
 1280 1536 l 1,14,-1
 512 1536 l 1,15,-1
 512 256 l 1,16,-1
 1280 256 l 1,17,-1
 1280 512 l 1,18,-1
 1792 512 l 1,19,-1
 1792 256 l 1,20,-1
 1536 256 l 1,21,-1
 1536 0 l 1,22,-1
 1280 0 l 1,23,-1
 1280 -256 l 1,24,-1
 1024 -256 l 1,25,-1
 1024 -512 l 1,26,-1
 256 -512 l 1,27,-1
 256 -256 l 1,0,-1
EndSplineSet
Validated: 1
EndChar

StartChar: circumflex
Encoding: 710 710 135
Width: 2304
GlyphClass: 1
Flags: W
LayerCount: 2
Fore
SplineSet
512 1280 m 1,0,-1
 1280 1280 l 1,1,-1
 1280 1536 l 1,2,-1
 512 1536 l 1,3,-1
 512 1280 l 1,0,-1
768 2816 m 1,4,-1
 1024 2816 l 1,5,-1
 1024 2560 l 1,6,-1
 1280 2560 l 1,7,-1
 1280 2304 l 1,8,-1
 1536 2304 l 1,9,-1
 1536 2048 l 1,10,-1
 1024 2048 l 1,11,-1
 1024 2304 l 1,12,-1
 768 2304 l 1,13,-1
 768 2048 l 1,14,-1
 256 2048 l 1,15,-1
 256 2304 l 1,16,-1
 512 2304 l 1,17,-1
 512 2560 l 1,18,-1
 768 2560 l 1,19,-1
 768 2816 l 1,4,-1
256 1792 m 1,20,-1
 1536 1792 l 1,21,-1
 1536 1536 l 1,22,-1
 1792 1536 l 1,23,-1
 1792 1024 l 1,24,-1
 512 1024 l 1,25,-1
 512 256 l 1,26,-1
 1280 256 l 1,27,-1
 1280 512 l 1,28,-1
 1792 512 l 1,29,-1
 1792 256 l 1,30,-1
 1536 256 l 1,31,-1
 1536 0 l 1,32,-1
 256 0 l 1,33,-1
 256 256 l 1,34,-1
 0 256 l 1,35,-1
 0 1536 l 1,36,-1
 256 1536 l 1,37,-1
 256 1792 l 1,20,-1
EndSplineSet
Validated: 1
EndChar

StartChar: perthousand
Encoding: 8240 8240 136
Width: 2304
GlyphClass: 1
Flags: W
LayerCount: 2
Fore
SplineSet
1280 2560 m 1,0,-1
 1792 2560 l 1,1,-1
 1792 2304 l 1,2,-1
 1280 2304 l 1,3,-1
 1280 2560 l 1,0,-1
0 2560 m 1,4,-1
 512 2560 l 1,5,-1
 512 2304 l 1,6,-1
 0 2304 l 1,7,-1
 0 2560 l 1,4,-1
512 1280 m 1,8,-1
 1280 1280 l 1,9,-1
 1280 1536 l 1,10,-1
 512 1536 l 1,11,-1
 512 1280 l 1,8,-1
256 1792 m 1,12,-1
 1536 1792 l 1,13,-1
 1536 1536 l 1,14,-1
 1792 1536 l 1,15,-1
 1792 1024 l 1,16,-1
 512 1024 l 1,17,-1
 512 256 l 1,18,-1
 1280 256 l 1,19,-1
 1280 512 l 1,20,-1
 1792 512 l 1,21,-1
 1792 256 l 1,22,-1
 1536 256 l 1,23,-1
 1536 0 l 1,24,-1
 256 0 l 1,25,-1
 256 256 l 1,26,-1
 0 256 l 1,27,-1
 0 1536 l 1,28,-1
 256 1536 l 1,29,-1
 256 1792 l 1,12,-1
EndSplineSet
Validated: 1
EndChar

StartChar: Scaron
Encoding: 352 352 137
Width: 2304
GlyphClass: 1
Flags: W
LayerCount: 2
Fore
SplineSet
512 1280 m 1,0,-1
 1280 1280 l 1,1,-1
 1280 1536 l 1,2,-1
 512 1536 l 1,3,-1
 512 1280 l 1,0,-1
768 2304 m 1,4,-1
 512 2304 l 1,5,-1
 512 2560 l 1,6,-1
 256 2560 l 1,7,-1
 256 2816 l 1,8,-1
 768 2816 l 1,9,-1
 768 2560 l 1,10,-1
 1024 2560 l 1,11,-1
 1024 2304 l 1,12,-1
 1280 2304 l 1,13,-1
 1280 2048 l 1,14,-1
 768 2048 l 1,15,-1
 768 2304 l 1,4,-1
256 1792 m 1,16,-1
 1536 1792 l 1,17,-1
 1536 1536 l 1,18,-1
 1792 1536 l 1,19,-1
 1792 1024 l 1,20,-1
 512 1024 l 1,21,-1
 512 256 l 1,22,-1
 1280 256 l 1,23,-1
 1280 512 l 1,24,-1
 1792 512 l 1,25,-1
 1792 256 l 1,26,-1
 1536 256 l 1,27,-1
 1536 0 l 1,28,-1
 256 0 l 1,29,-1
 256 256 l 1,30,-1
 0 256 l 1,31,-1
 0 1536 l 1,32,-1
 256 1536 l 1,33,-1
 256 1792 l 1,16,-1
EndSplineSet
Validated: 1
EndChar

StartChar: guilsinglleft
Encoding: 8249 8249 138
Width: 2304
GlyphClass: 1
Flags: W
LayerCount: 2
Fore
SplineSet
256 2560 m 1,0,-1
 768 2560 l 1,1,-1
 768 2304 l 1,2,-1
 256 2304 l 1,3,-1
 256 2560 l 1,0,-1
1280 2560 m 1,4,-1
 1792 2560 l 1,5,-1
 1792 2304 l 1,6,-1
 1280 2304 l 1,7,-1
 1280 2560 l 1,4,-1
512 1792 m 1,8,-1
 1280 1792 l 1,9,-1
 1280 256 l 1,10,-1
 1536 256 l 1,11,-1
 1536 0 l 1,12,-1
 512 0 l 1,13,-1
 512 256 l 1,14,-1
 768 256 l 1,15,-1
 768 1536 l 1,16,-1
 512 1536 l 1,17,-1
 512 1792 l 1,8,-1
EndSplineSet
Validated: 1
EndChar

StartChar: OE
Encoding: 338 338 139
Width: 2304
GlyphClass: 1
Flags: W
LayerCount: 2
Fore
SplineSet
1280 2304 m 1,0,-1
 768 2304 l 1,1,-1
 768 2048 l 1,2,-1
 256 2048 l 1,3,-1
 256 2304 l 1,4,-1
 512 2304 l 1,5,-1
 512 2560 l 1,6,-1
 768 2560 l 1,7,-1
 768 2816 l 1,8,-1
 1280 2816 l 1,9,-1
 1280 2560 l 1,10,-1
 1536 2560 l 1,11,-1
 1536 2304 l 1,12,-1
 1792 2304 l 1,13,-1
 1792 2048 l 1,14,-1
 1280 2048 l 1,15,-1
 1280 2304 l 1,0,-1
512 1792 m 1,16,-1
 1280 1792 l 1,17,-1
 1280 256 l 1,18,-1
 1536 256 l 1,19,-1
 1536 0 l 1,20,-1
 512 0 l 1,21,-1
 512 256 l 1,22,-1
 768 256 l 1,23,-1
 768 1536 l 1,24,-1
 512 1536 l 1,25,-1
 512 1792 l 1,16,-1
EndSplineSet
Validated: 1
EndChar

StartChar: uni008D
Encoding: 141 141 140
Width: 2304
GlyphClass: 1
Flags: W
LayerCount: 2
Fore
SplineSet
256 2816 m 1,0,-1
 768 2816 l 1,1,-1
 768 2560 l 1,2,-1
 1024 2560 l 1,3,-1
 1024 2304 l 1,4,-1
 1280 2304 l 1,5,-1
 1280 2048 l 1,6,-1
 768 2048 l 1,7,-1
 768 2304 l 1,8,-1
 512 2304 l 1,9,-1
 512 2560 l 1,10,-1
 256 2560 l 1,11,-1
 256 2816 l 1,0,-1
512 1792 m 1,12,-1
 1280 1792 l 1,13,-1
 1280 256 l 1,14,-1
 1536 256 l 1,15,-1
 1536 0 l 1,16,-1
 512 0 l 1,17,-1
 512 256 l 1,18,-1
 768 256 l 1,19,-1
 768 1536 l 1,20,-1
 512 1536 l 1,21,-1
 512 1792 l 1,12,-1
EndSplineSet
Validated: 1
EndChar

StartChar: uni008E
Encoding: 142 142 141
Width: 2304
GlyphClass: 1
Flags: W
LayerCount: 2
Fore
SplineSet
1280 2816 m 1,0,-1
 1792 2816 l 1,1,-1
 1792 2560 l 1,2,-1
 1280 2560 l 1,3,-1
 1280 2816 l 1,0,-1
0 2816 m 1,4,-1
 512 2816 l 1,5,-1
 512 2560 l 1,6,-1
 0 2560 l 1,7,-1
 0 2816 l 1,4,-1
1024 2048 m 1,8,-1
 768 2048 l 1,9,-1
 768 1792 l 1,10,-1
 512 1792 l 1,11,-1
 512 1280 l 1,12,-1
 1280 1280 l 1,13,-1
 1280 1792 l 1,14,-1
 1024 1792 l 1,15,-1
 1024 2048 l 1,8,-1
1280 0 m 1,16,-1
 1280 1024 l 1,17,-1
 512 1024 l 1,18,-1
 512 0 l 1,19,-1
 0 0 l 1,20,-1
 0 1792 l 1,21,-1
 256 1792 l 1,22,-1
 256 2048 l 1,23,-1
 512 2048 l 1,24,-1
 512 2304 l 1,25,-1
 768 2304 l 1,26,-1
 768 2560 l 1,27,-1
 1024 2560 l 1,28,-1
 1024 2304 l 1,29,-1
 1280 2304 l 1,30,-1
 1280 2048 l 1,31,-1
 1536 2048 l 1,32,-1
 1536 1792 l 1,33,-1
 1792 1792 l 1,34,-1
 1792 0 l 1,35,-1
 1280 0 l 1,16,-1
EndSplineSet
Validated: 1
EndChar

StartChar: uni008F
Encoding: 143 143 142
Width: 2304
GlyphClass: 1
Flags: W
LayerCount: 2
Fore
SplineSet
1024 2816 m 1,0,-1
 768 2816 l 1,1,-1
 768 2560 l 1,2,-1
 1024 2560 l 1,3,-1
 1024 2816 l 1,0,-1
1024 1792 m 1,4,-1
 768 1792 l 1,5,-1
 768 1536 l 1,6,-1
 512 1536 l 1,7,-1
 512 1280 l 1,8,-1
 1280 1280 l 1,9,-1
 1280 1536 l 1,10,-1
 1024 1536 l 1,11,-1
 1024 1792 l 1,4,-1
1280 2048 m 1,12,-1
 1280 1792 l 1,13,-1
 1536 1792 l 1,14,-1
 1536 1536 l 1,15,-1
 1792 1536 l 1,16,-1
 1792 0 l 1,17,-1
 1280 0 l 1,18,-1
 1280 1024 l 1,19,-1
 512 1024 l 1,20,-1
 512 0 l 1,21,-1
 0 0 l 1,22,-1
 0 1536 l 1,23,-1
 256 1536 l 1,24,-1
 256 1792 l 1,25,-1
 512 1792 l 1,26,-1
 512 2048 l 1,27,-1
 768 2048 l 1,28,-1
 768 2304 l 1,29,-1
 512 2304 l 1,30,-1
 512 2560 l 1,31,-1
 256 2560 l 1,32,-1
 256 2816 l 1,33,-1
 512 2816 l 1,34,-1
 512 3072 l 1,35,-1
 1280 3072 l 1,36,-1
 1280 2816 l 1,37,-1
 1536 2816 l 1,38,-1
 1536 2560 l 1,39,-1
 1280 2560 l 1,40,-1
 1280 2304 l 1,41,-1
 1024 2304 l 1,42,-1
 1024 2048 l 1,43,-1
 1280 2048 l 1,12,-1
EndSplineSet
Validated: 1
EndChar

StartChar: uni0090
Encoding: 144 144 143
Width: 2304
GlyphClass: 1
Flags: W
LayerCount: 2
Fore
SplineSet
768 2816 m 1,0,-1
 1024 2816 l 1,1,-1
 1024 3072 l 1,2,-1
 1536 3072 l 1,3,-1
 1536 2816 l 1,4,-1
 1280 2816 l 1,5,-1
 1280 2560 l 1,6,-1
 768 2560 l 1,7,-1
 768 2816 l 1,0,-1
1024 1024 m 1,8,-1
 768 1024 l 1,9,-1
 768 256 l 1,10,-1
 1280 256 l 1,11,-1
 1280 512 l 1,12,-1
 1536 512 l 1,13,-1
 1536 768 l 1,14,-1
 1792 768 l 1,15,-1
 1792 0 l 1,16,-1
 0 0 l 1,17,-1
 0 256 l 1,18,-1
 256 256 l 1,19,-1
 256 2048 l 1,20,-1
 0 2048 l 1,21,-1
 0 2304 l 1,22,-1
 1792 2304 l 1,23,-1
 1792 1536 l 1,24,-1
 1536 1536 l 1,25,-1
 1536 1792 l 1,26,-1
 1280 1792 l 1,27,-1
 1280 2048 l 1,28,-1
 768 2048 l 1,29,-1
 768 1280 l 1,30,-1
 1024 1280 l 1,31,-1
 1024 1536 l 1,32,-1
 1280 1536 l 1,33,-1
 1280 768 l 1,34,-1
 1024 768 l 1,35,-1
 1024 1024 l 1,8,-1
EndSplineSet
Validated: 1
EndChar

StartChar: quoteleft
Encoding: 8216 8216 144
Width: 2304
GlyphClass: 1
Flags: W
LayerCount: 2
Fore
SplineSet
1024 1024 m 1,0,-1
 1280 1024 l 1,1,-1
 1280 1536 l 1,2,-1
 1026 1536 l 1,3,-1
 1024 1538 l 1,4,-1
 1024 1792 l 1,5,-1
 1536 1792 l 1,6,-1
 1536 1536 l 1,7,-1
 1792 1536 l 1,8,-1
 1792 768 l 1,9,-1
 1280 768 l 1,10,-1
 1280 256 l 1,11,-1
 1792 256 l 1,12,-1
 1792 0 l 1,13,-1
 1024 0 l 1,14,-1
 1024 256 l 1,15,-1
 770 256 l 1,16,-1
 768 258 l 1,17,-1
 768 768 l 1,18,-1
 512 768 l 1,19,-1
 512 256 l 1,20,-1
 768 256 l 1,21,-1
 768 0 l 1,22,-1
 256 0 l 1,23,-1
 256 256 l 1,24,-1
 0 256 l 1,25,-1
 0 768 l 1,26,-1
 256 768 l 1,27,-1
 256 1024 l 1,28,-1
 512 1024 l 1,29,-1
 512 1536 l 1,30,-1
 0 1536 l 1,31,-1
 0 1792 l 1,32,-1
 768 1792 l 1,33,-1
 768 1536 l 1,34,-1
 1024 1536 l 1,35,-1
 1024 1024 l 1,0,-1
EndSplineSet
Validated: 1
EndChar

StartChar: quoteright
Encoding: 8217 8217 145
Width: 2304
GlyphClass: 1
Flags: W
LayerCount: 2
Fore
SplineSet
512 2048 m 1,0,-1
 1024 2048 l 1,1,-1
 1024 2816 l 1,2,-1
 768 2816 l 1,3,-1
 768 2560 l 1,4,-1
 512 2560 l 1,5,-1
 512 2048 l 1,0,-1
1024 1792 m 1,6,-1
 512 1792 l 1,7,-1
 512 0 l 1,8,-1
 0 0 l 1,9,-1
 0 2560 l 1,10,-1
 256 2560 l 1,11,-1
 256 2816 l 1,12,-1
 512 2816 l 1,13,-1
 512 3072 l 1,14,-1
 1792 3072 l 1,15,-1
 1792 2816 l 1,16,-1
 1536 2816 l 1,17,-1
 1536 2048 l 1,18,-1
 1792 2048 l 1,19,-1
 1792 1792 l 1,20,-1
 1536 1792 l 1,21,-1
 1536 256 l 1,22,-1
 1792 256 l 1,23,-1
 1792 0 l 1,24,-1
 1024 0 l 1,25,-1
 1024 1792 l 1,6,-1
EndSplineSet
Validated: 1
EndChar

StartChar: quotedblleft
Encoding: 8220 8220 146
Width: 2304
GlyphClass: 1
Flags: W
LayerCount: 2
Fore
SplineSet
1024 2304 m 1,0,-1
 768 2304 l 1,1,-1
 768 2048 l 1,2,-1
 256 2048 l 1,3,-1
 256 2304 l 1,4,-1
 512 2304 l 1,5,-1
 512 2560 l 1,6,-1
 768 2560 l 1,7,-1
 768 2816 l 1,8,-1
 1024 2816 l 1,9,-1
 1024 2560 l 1,10,-1
 1280 2560 l 1,11,-1
 1280 2304 l 1,12,-1
 1536 2304 l 1,13,-1
 1536 2048 l 1,14,-1
 1024 2048 l 1,15,-1
 1024 2304 l 1,0,-1
1280 1536 m 1,16,-1
 512 1536 l 1,17,-1
 512 256 l 1,18,-1
 1280 256 l 1,19,-1
 1280 1536 l 1,16,-1
256 256 m 1,20,-1
 0 256 l 1,21,-1
 0 1536 l 1,22,-1
 256 1536 l 1,23,-1
 256 1792 l 1,24,-1
 1536 1792 l 1,25,-1
 1536 1536 l 1,26,-1
 1792 1536 l 1,27,-1
 1792 256 l 1,28,-1
 1536 256 l 1,29,-1
 1536 0 l 1,30,-1
 256 0 l 1,31,-1
 256 256 l 1,20,-1
EndSplineSet
Validated: 1
EndChar

StartChar: quotedblright
Encoding: 8221 8221 147
Width: 2304
GlyphClass: 1
Flags: W
LayerCount: 2
Fore
SplineSet
1280 2560 m 1,0,-1
 1792 2560 l 1,1,-1
 1792 2304 l 1,2,-1
 1280 2304 l 1,3,-1
 1280 2560 l 1,0,-1
0 2560 m 1,4,-1
 512 2560 l 1,5,-1
 512 2304 l 1,6,-1
 0 2304 l 1,7,-1
 0 2560 l 1,4,-1
1280 1536 m 1,8,-1
 512 1536 l 1,9,-1
 512 256 l 1,10,-1
 1280 256 l 1,11,-1
 1280 1536 l 1,8,-1
256 256 m 1,12,-1
 0 256 l 1,13,-1
 0 1536 l 1,14,-1
 256 1536 l 1,15,-1
 256 1792 l 1,16,-1
 1536 1792 l 1,17,-1
 1536 1536 l 1,18,-1
 1792 1536 l 1,19,-1
 1792 256 l 1,20,-1
 1536 256 l 1,21,-1
 1536 0 l 1,22,-1
 256 0 l 1,23,-1
 256 256 l 1,12,-1
EndSplineSet
Validated: 1
EndChar

StartChar: bullet
Encoding: 8226 8226 148
Width: 2304
GlyphClass: 1
Flags: W
LayerCount: 2
Fore
SplineSet
256 2816 m 1,0,-1
 768 2816 l 1,1,-1
 768 2560 l 1,2,-1
 1024 2560 l 1,3,-1
 1024 2304 l 1,4,-1
 1280 2304 l 1,5,-1
 1280 2048 l 1,6,-1
 768 2048 l 1,7,-1
 768 2304 l 1,8,-1
 512 2304 l 1,9,-1
 512 2560 l 1,10,-1
 256 2560 l 1,11,-1
 256 2816 l 1,0,-1
1280 1536 m 1,12,-1
 512 1536 l 1,13,-1
 512 256 l 1,14,-1
 1280 256 l 1,15,-1
 1280 1536 l 1,12,-1
256 256 m 1,16,-1
 0 256 l 1,17,-1
 0 1536 l 1,18,-1
 256 1536 l 1,19,-1
 256 1792 l 1,20,-1
 1536 1792 l 1,21,-1
 1536 1536 l 1,22,-1
 1792 1536 l 1,23,-1
 1792 256 l 1,24,-1
 1536 256 l 1,25,-1
 1536 0 l 1,26,-1
 256 0 l 1,27,-1
 256 256 l 1,16,-1
EndSplineSet
Validated: 1
EndChar

StartChar: endash
Encoding: 8211 8211 149
Width: 2304
GlyphClass: 1
Flags: W
LayerCount: 2
Fore
SplineSet
1024 2304 m 1,0,-1
 512 2304 l 1,1,-1
 512 2048 l 1,2,-1
 0 2048 l 1,3,-1
 0 2304 l 1,4,-1
 256 2304 l 1,5,-1
 256 2560 l 1,6,-1
 512 2560 l 1,7,-1
 512 2816 l 1,8,-1
 1024 2816 l 1,9,-1
 1024 2560 l 1,10,-1
 1280 2560 l 1,11,-1
 1280 2304 l 1,12,-1
 1536 2304 l 1,13,-1
 1536 2048 l 1,14,-1
 1024 2048 l 1,15,-1
 1024 2304 l 1,0,-1
1024 1792 m 1,16,-1
 1536 1792 l 1,17,-1
 1536 256 l 1,18,-1
 1792 256 l 1,19,-1
 1792 0 l 1,20,-1
 1280 0 l 1,21,-1
 1280 256 l 1,22,-1
 1024 256 l 1,23,-1
 1024 1792 l 1,16,-1
0 1792 m 1,24,-1
 512 1792 l 1,25,-1
 512 256 l 1,26,-1
 1024 256 l 1,27,-1
 1024 0 l 1,28,-1
 256 0 l 1,29,-1
 256 256 l 1,30,-1
 0 256 l 1,31,-1
 0 1792 l 1,24,-1
EndSplineSet
Validated: 5
EndChar

StartChar: emdash
Encoding: 8212 8212 150
Width: 2304
GlyphClass: 1
Flags: W
LayerCount: 2
Fore
SplineSet
256 2816 m 1,0,-1
 768 2816 l 1,1,-1
 768 2560 l 1,2,-1
 1024 2560 l 1,3,-1
 1024 2304 l 1,4,-1
 1280 2304 l 1,5,-1
 1280 2048 l 1,6,-1
 768 2048 l 1,7,-1
 768 2304 l 1,8,-1
 512 2304 l 1,9,-1
 512 2560 l 1,10,-1
 256 2560 l 1,11,-1
 256 2816 l 1,0,-1
1024 1792 m 1,12,-1
 1536 1792 l 1,13,-1
 1536 256 l 1,14,-1
 1792 256 l 1,15,-1
 1792 0 l 1,16,-1
 1280 0 l 1,17,-1
 1280 256 l 1,18,-1
 1024 256 l 1,19,-1
 1024 1792 l 1,12,-1
0 1792 m 1,20,-1
 512 1792 l 1,21,-1
 512 256 l 1,22,-1
 1024 256 l 1,23,-1
 1024 0 l 1,24,-1
 256 0 l 1,25,-1
 256 256 l 1,26,-1
 0 256 l 1,27,-1
 0 1792 l 1,20,-1
EndSplineSet
Validated: 5
EndChar

StartChar: tilde
Encoding: 732 732 151
Width: 2304
GlyphClass: 1
Flags: W
LayerCount: 2
Fore
SplineSet
0 2560 m 1,0,-1
 512 2560 l 1,1,-1
 512 2304 l 1,2,-1
 0 2304 l 1,3,-1
 0 2560 l 1,0,-1
1280 2560 m 1,4,-1
 1792 2560 l 1,5,-1
 1792 2304 l 1,6,-1
 1280 2304 l 1,7,-1
 1280 2560 l 1,4,-1
0 -512 m 1,8,-1
 1024 -512 l 1,9,-1
 1024 -256 l 1,10,-1
 1280 -256 l 1,11,-1
 1280 0 l 1,12,-1
 256 0 l 1,13,-1
 256 256 l 1,14,-1
 0 256 l 1,15,-1
 0 1792 l 1,16,-1
 512 1792 l 1,17,-1
 512 256 l 1,18,-1
 1280 256 l 1,19,-1
 1280 1792 l 1,20,-1
 1792 1792 l 1,21,-1
 1792 -256 l 1,22,-1
 1536 -256 l 1,23,-1
 1536 -512 l 1,24,-1
 1280 -512 l 1,25,-1
 1280 -768 l 1,26,-1
 0 -768 l 1,27,-1
 0 -512 l 1,8,-1
EndSplineSet
Validated: 1
EndChar

StartChar: trademark
Encoding: 8482 8482 152
Width: 2304
GlyphClass: 1
Flags: W
LayerCount: 2
Fore
SplineSet
1280 2816 m 1,0,-1
 1792 2816 l 1,1,-1
 1792 2560 l 1,2,-1
 1280 2560 l 1,3,-1
 1280 2816 l 1,0,-1
0 2816 m 1,4,-1
 512 2816 l 1,5,-1
 512 2560 l 1,6,-1
 0 2560 l 1,7,-1
 0 2816 l 1,4,-1
1280 2048 m 1,8,-1
 512 2048 l 1,9,-1
 512 256 l 1,10,-1
 1280 256 l 1,11,-1
 1280 2048 l 1,8,-1
0 2048 m 1,12,-1
 256 2048 l 1,13,-1
 256 2304 l 1,14,-1
 1536 2304 l 1,15,-1
 1536 2048 l 1,16,-1
 1792 2048 l 1,17,-1
 1792 256 l 1,18,-1
 1536 256 l 1,19,-1
 1536 0 l 1,20,-1
 256 0 l 1,21,-1
 256 256 l 1,22,-1
 0 256 l 1,23,-1
 0 2048 l 1,12,-1
EndSplineSet
Validated: 1
EndChar

StartChar: scaron
Encoding: 353 353 153
Width: 2304
GlyphClass: 1
Flags: W
LayerCount: 2
Fore
SplineSet
0 2816 m 1,0,-1
 512 2816 l 1,1,-1
 512 2560 l 1,2,-1
 0 2560 l 1,3,-1
 0 2816 l 1,0,-1
1280 2816 m 1,4,-1
 1792 2816 l 1,5,-1
 1792 2560 l 1,6,-1
 1280 2560 l 1,7,-1
 1280 2816 l 1,4,-1
0 2304 m 1,8,-1
 512 2304 l 1,9,-1
 512 256 l 1,10,-1
 1280 256 l 1,11,-1
 1280 2304 l 1,12,-1
 1792 2304 l 1,13,-1
 1792 256 l 1,14,-1
 1536 256 l 1,15,-1
 1536 0 l 1,16,-1
 256 0 l 1,17,-1
 256 256 l 1,18,-1
 0 256 l 1,19,-1
 0 2304 l 1,8,-1
EndSplineSet
Validated: 1
EndChar

StartChar: guilsinglright
Encoding: 8250 8250 154
Width: 2304
GlyphClass: 1
Flags: W
LayerCount: 2
Fore
SplineSet
1280 2048 m 1,0,-1
 512 2048 l 1,1,-1
 512 768 l 1,2,-1
 1280 768 l 1,3,-1
 1280 1024 l 1,4,-1
 1792 1024 l 1,5,-1
 1792 768 l 1,6,-1
 1536 768 l 1,7,-1
 1536 512 l 1,8,-1
 1280 512 l 1,9,-1
 1280 0 l 1,10,-1
 768 0 l 1,11,-1
 768 512 l 1,12,-1
 256 512 l 1,13,-1
 256 768 l 1,14,-1
 0 768 l 1,15,-1
 0 2048 l 1,16,-1
 256 2048 l 1,17,-1
 256 2304 l 1,18,-1
 768 2304 l 1,19,-1
 768 2816 l 1,20,-1
 1280 2816 l 1,21,-1
 1280 2304 l 1,22,-1
 1536 2304 l 1,23,-1
 1536 2048 l 1,24,-1
 1792 2048 l 1,25,-1
 1792 1792 l 1,26,-1
 1280 1792 l 1,27,-1
 1280 2048 l 1,0,-1
EndSplineSet
Validated: 1
EndChar

StartChar: oe
Encoding: 339 339 155
Width: 2304
GlyphClass: 1
Flags: W
LayerCount: 2
Fore
SplineSet
1024 2560 m 1,0,-1
 768 2560 l 1,1,-1
 768 1792 l 1,2,-1
 1024 1792 l 1,3,-1
 1024 1536 l 1,4,-1
 768 1536 l 1,5,-1
 768 256 l 1,6,-1
 1280 256 l 1,7,-1
 1280 512 l 1,8,-1
 1792 512 l 1,9,-1
 1792 256 l 1,10,-1
 1536 256 l 1,11,-1
 1536 0 l 1,12,-1
 0 0 l 1,13,-1
 0 512 l 1,14,-1
 256 512 l 1,15,-1
 256 1536 l 1,16,-1
 0 1536 l 1,17,-1
 0 1792 l 1,18,-1
 256 1792 l 1,19,-1
 256 2560 l 1,20,-1
 512 2560 l 1,21,-1
 512 2816 l 1,22,-1
 1280 2816 l 1,23,-1
 1280 2560 l 1,24,-1
 1536 2560 l 1,25,-1
 1536 2048 l 1,26,-1
 1280 2048 l 1,27,-1
 1280 2304 l 1,28,-1
 1024 2304 l 1,29,-1
 1024 2560 l 1,0,-1
EndSplineSet
Validated: 1
EndChar

StartChar: uni009D
Encoding: 157 157 156
Width: 2304
GlyphClass: 1
Flags: W
LayerCount: 2
Fore
SplineSet
256 1024 m 1,0,-1
 768 1024 l 1,1,-1
 768 1280 l 1,2,-1
 256 1280 l 1,3,-1
 256 1536 l 1,4,-1
 768 1536 l 1,5,-1
 768 1792 l 1,6,-1
 512 1792 l 1,7,-1
 512 2048 l 1,8,-1
 256 2048 l 1,9,-1
 256 2560 l 1,10,-1
 768 2560 l 1,11,-1
 768 2048 l 1,12,-1
 1280 2048 l 1,13,-1
 1280 2560 l 1,14,-1
 1792 2560 l 1,15,-1
 1792 2048 l 1,16,-1
 1536 2048 l 1,17,-1
 1536 1792 l 1,18,-1
 1280 1792 l 1,19,-1
 1280 1536 l 1,20,-1
 1792 1536 l 1,21,-1
 1792 1280 l 1,22,-1
 1280 1280 l 1,23,-1
 1280 1024 l 1,24,-1
 1792 1024 l 1,25,-1
 1792 768 l 1,26,-1
 1280 768 l 1,27,-1
 1280 0 l 1,28,-1
 768 0 l 1,29,-1
 768 768 l 1,30,-1
 256 768 l 1,31,-1
 256 1024 l 1,0,-1
EndSplineSet
Validated: 1
EndChar

StartChar: uni009E
Encoding: 158 158 157
Width: 2304
GlyphClass: 1
Flags: W
LayerCount: 2
Fore
SplineSet
1024 2560 m 1,0,-1
 512 2560 l 1,1,-1
 512 2048 l 1,2,-1
 1024 2048 l 1,3,-1
 1024 2560 l 1,0,-1
768 1280 m 1,4,-1
 1024 1280 l 1,5,-1
 1024 1536 l 1,6,-1
 1280 1536 l 1,7,-1
 1280 1792 l 1,8,-1
 512 1792 l 1,9,-1
 512 0 l 1,10,-1
 0 0 l 1,11,-1
 0 2816 l 1,12,-1
 1280 2816 l 1,13,-1
 1280 2560 l 1,14,-1
 1536 2560 l 1,15,-1
 1536 2048 l 1,16,-1
 1280 2048 l 1,17,-1
 1280 1792 l 1,18,-1
 1536 1792 l 1,19,-1
 1536 1280 l 1,20,-1
 1792 1280 l 1,21,-1
 1792 1024 l 1,22,-1
 1536 1024 l 1,23,-1
 1536 256 l 1,24,-1
 1792 256 l 1,25,-1
 1792 0 l 1,26,-1
 1280 0 l 1,27,-1
 1280 256 l 1,28,-1
 1024 256 l 1,29,-1
 1024 1024 l 1,30,-1
 768 1024 l 1,31,-1
 768 1280 l 1,4,-1
EndSplineSet
Validated: 5
EndChar

StartChar: Ydieresis
Encoding: 376 376 158
Width: 2304
GlyphClass: 1
Flags: W
LayerCount: 2
Fore
SplineSet
256 1536 m 1,0,-1
 768 1536 l 1,1,-1
 768 2560 l 1,2,-1
 1024 2560 l 1,3,-1
 1024 2816 l 1,4,-1
 1792 2816 l 1,5,-1
 1792 2560 l 1,6,-1
 2048 2560 l 1,7,-1
 2048 2304 l 1,8,-1
 1536 2304 l 1,9,-1
 1536 2560 l 1,10,-1
 1280 2560 l 1,11,-1
 1280 1536 l 1,12,-1
 1792 1536 l 1,13,-1
 1792 1280 l 1,14,-1
 1280 1280 l 1,15,-1
 1280 256 l 1,16,-1
 1024 256 l 1,17,-1
 1024 0 l 1,18,-1
 256 0 l 1,19,-1
 256 256 l 1,20,-1
 0 256 l 1,21,-1
 0 512 l 1,22,-1
 512 512 l 1,23,-1
 512 256 l 1,24,-1
 768 256 l 1,25,-1
 768 1280 l 1,26,-1
 256 1280 l 1,27,-1
 256 1536 l 1,0,-1
EndSplineSet
Validated: 1
EndChar

StartChar: nonbreakingspace
Encoding: 160 160 159
Width: 2304
GlyphClass: 1
Flags: W
LayerCount: 2
Fore
SplineSet
768 2816 m 1,0,-1
 1280 2816 l 1,1,-1
 1280 2560 l 1,2,-1
 1024 2560 l 1,3,-1
 1024 2304 l 1,4,-1
 768 2304 l 1,5,-1
 768 2048 l 1,6,-1
 256 2048 l 1,7,-1
 256 2304 l 1,8,-1
 512 2304 l 1,9,-1
 512 2560 l 1,10,-1
 768 2560 l 1,11,-1
 768 2816 l 1,0,-1
1024 0 m 1,12,-1
 256 0 l 1,13,-1
 256 256 l 1,14,-1
 0 256 l 1,15,-1
 0 1024 l 1,16,-1
 256 1024 l 1,17,-1
 256 1280 l 1,18,-1
 1024 1280 l 1,19,-1
 1024 1536 l 1,20,-1
 256 1536 l 1,21,-1
 256 1792 l 1,22,-1
 1280 1792 l 1,23,-1
 1280 1536 l 1,24,-1
 1536 1536 l 1,25,-1
 1536 256 l 1,26,-1
 1792 256 l 1,27,-1
 1792 0 l 1,28,-1
 1280 0 l 1,29,-1
 1280 256 l 1,30,-1
 1026 256 l 1,31,-1
 1024 258 l 1,32,-1
 1024 1024 l 1,33,-1
 512 1024 l 1,34,-1
 512 256 l 1,35,-1
 1024 256 l 1,36,-1
 1024 0 l 1,12,-1
EndSplineSet
Validated: 1
EndChar

StartChar: exclamdown
Encoding: 161 161 160
Width: 2304
GlyphClass: 1
Flags: W
LayerCount: 2
Fore
SplineSet
1024 2816 m 1,0,-1
 1536 2816 l 1,1,-1
 1536 2560 l 1,2,-1
 1280 2560 l 1,3,-1
 1280 2304 l 1,4,-1
 1024 2304 l 1,5,-1
 1024 2048 l 1,6,-1
 512 2048 l 1,7,-1
 512 2304 l 1,8,-1
 768 2304 l 1,9,-1
 768 2560 l 1,10,-1
 1024 2560 l 1,11,-1
 1024 2816 l 1,0,-1
512 1792 m 1,12,-1
 1280 1792 l 1,13,-1
 1280 256 l 1,14,-1
 1536 256 l 1,15,-1
 1536 0 l 1,16,-1
 512 0 l 1,17,-1
 512 256 l 1,18,-1
 768 256 l 1,19,-1
 768 1536 l 1,20,-1
 512 1536 l 1,21,-1
 512 1792 l 1,12,-1
EndSplineSet
Validated: 1
EndChar

StartChar: cent
Encoding: 162 162 161
Width: 2304
GlyphClass: 1
Flags: W
LayerCount: 2
Fore
SplineSet
768 2816 m 1,0,-1
 1280 2816 l 1,1,-1
 1280 2560 l 1,2,-1
 1024 2560 l 1,3,-1
 1024 2304 l 1,4,-1
 768 2304 l 1,5,-1
 768 2048 l 1,6,-1
 256 2048 l 1,7,-1
 256 2304 l 1,8,-1
 512 2304 l 1,9,-1
 512 2560 l 1,10,-1
 768 2560 l 1,11,-1
 768 2816 l 1,0,-1
1280 1536 m 1,12,-1
 512 1536 l 1,13,-1
 512 256 l 1,14,-1
 1280 256 l 1,15,-1
 1280 1536 l 1,12,-1
256 256 m 1,16,-1
 0 256 l 1,17,-1
 0 1536 l 1,18,-1
 256 1536 l 1,19,-1
 256 1792 l 1,20,-1
 1536 1792 l 1,21,-1
 1536 1536 l 1,22,-1
 1792 1536 l 1,23,-1
 1792 256 l 1,24,-1
 1536 256 l 1,25,-1
 1536 0 l 1,26,-1
 256 0 l 1,27,-1
 256 256 l 1,16,-1
EndSplineSet
Validated: 1
EndChar

StartChar: sterling
Encoding: 163 163 162
Width: 2304
GlyphClass: 1
Flags: W
LayerCount: 2
Fore
SplineSet
256 2304 m 1,0,-1
 512 2304 l 1,1,-1
 512 2560 l 1,2,-1
 768 2560 l 1,3,-1
 768 2816 l 1,4,-1
 1280 2816 l 1,5,-1
 1280 2560 l 1,6,-1
 1024 2560 l 1,7,-1
 1024 2304 l 1,8,-1
 768 2304 l 1,9,-1
 768 2048 l 1,10,-1
 256 2048 l 1,11,-1
 256 2304 l 1,0,-1
1024 1792 m 1,12,-1
 1536 1792 l 1,13,-1
 1536 256 l 1,14,-1
 1792 256 l 1,15,-1
 1792 0 l 1,16,-1
 1280 0 l 1,17,-1
 1280 256 l 1,18,-1
 1024 256 l 1,19,-1
 1024 1792 l 1,12,-1
0 1792 m 1,20,-1
 512 1792 l 1,21,-1
 512 256 l 1,22,-1
 1024 256 l 1,23,-1
 1024 0 l 1,24,-1
 256 0 l 1,25,-1
 256 256 l 1,26,-1
 0 256 l 1,27,-1
 0 1792 l 1,20,-1
EndSplineSet
Validated: 5
EndChar

StartChar: currency
Encoding: 164 164 163
Width: 2304
GlyphClass: 1
Flags: W
LayerCount: 2
Fore
SplineSet
768 2304 m 1,0,-1
 512 2304 l 1,1,-1
 512 2048 l 1,2,-1
 0 2048 l 1,3,-1
 0 2304 l 1,4,-1
 256 2304 l 1,5,-1
 256 2560 l 1,6,-1
 1024 2560 l 1,7,-1
 1024 2304 l 1,8,-1
 1280 2304 l 1,9,-1
 1280 2560 l 1,10,-1
 1792 2560 l 1,11,-1
 1792 2304 l 1,12,-1
 1536 2304 l 1,13,-1
 1536 2048 l 1,14,-1
 768 2048 l 1,15,-1
 768 2304 l 1,0,-1
256 1536 m 1,16,-1
 0 1536 l 1,17,-1
 0 1792 l 1,18,-1
 512 1792 l 1,19,-1
 512 1536 l 1,20,-1
 768 1536 l 1,21,-1
 768 0 l 1,22,-1
 256 0 l 1,23,-1
 256 1536 l 1,16,-1
768 1792 m 1,24,-1
 1536 1792 l 1,25,-1
 1536 1536 l 1,26,-1
 1792 1536 l 1,27,-1
 1792 0 l 1,28,-1
 1280 0 l 1,29,-1
 1280 1536 l 1,30,-1
 768 1536 l 1,31,-1
 768 1792 l 1,24,-1
EndSplineSet
Validated: 5
EndChar

StartChar: yen
Encoding: 165 165 164
Width: 2304
GlyphClass: 1
Flags: W
LayerCount: 2
Fore
SplineSet
1280 3072 m 1,0,-1
 1792 3072 l 1,1,-1
 1792 2816 l 1,2,-1
 1536 2816 l 1,3,-1
 1536 2560 l 1,4,-1
 768 2560 l 1,5,-1
 768 2816 l 1,6,-1
 512 2816 l 1,7,-1
 512 2560 l 1,8,-1
 0 2560 l 1,9,-1
 0 2816 l 1,10,-1
 256 2816 l 1,11,-1
 256 3072 l 1,12,-1
 1024 3072 l 1,13,-1
 1024 2816 l 1,14,-1
 1280 2816 l 1,15,-1
 1280 3072 l 1,0,-1
1024 1024 m 1,16,-1
 768 1024 l 1,17,-1
 768 1280 l 1,18,-1
 512 1280 l 1,19,-1
 512 0 l 1,20,-1
 0 0 l 1,21,-1
 0 2304 l 1,22,-1
 512 2304 l 1,23,-1
 512 2048 l 1,24,-1
 768 2048 l 1,25,-1
 768 1792 l 1,26,-1
 1024 1792 l 1,27,-1
 1024 1536 l 1,28,-1
 1280 1536 l 1,29,-1
 1280 2304 l 1,30,-1
 1792 2304 l 1,31,-1
 1792 0 l 1,32,-1
 1280 0 l 1,33,-1
 1280 768 l 1,34,-1
 1024 768 l 1,35,-1
 1024 1024 l 1,16,-1
EndSplineSet
Validated: 1
EndChar

StartChar: brokenbar
Encoding: 166 166 165
Width: 2304
GlyphClass: 1
Flags: W
LayerCount: 2
Fore
SplineSet
768 1792 m 1,0,-1
 1024 1792 l 1,1,-1
 1024 2304 l 1,2,-1
 768 2304 l 1,3,-1
 768 1792 l 1,0,-1
256 1280 m 1,4,-1
 1792 1280 l 1,5,-1
 1792 1024 l 1,6,-1
 256 1024 l 1,7,-1
 256 1280 l 1,4,-1
512 1792 m 1,8,-1
 256 1792 l 1,9,-1
 256 2304 l 1,10,-1
 512 2304 l 1,11,-1
 512 2560 l 1,12,-1
 1536 2560 l 1,13,-1
 1536 1792 l 1,14,-1
 1792 1792 l 1,15,-1
 1792 1536 l 1,16,-1
 512 1536 l 1,17,-1
 512 1792 l 1,8,-1
EndSplineSet
Validated: 1
EndChar

StartChar: section
Encoding: 167 167 166
Width: 2304
GlyphClass: 1
Flags: W
LayerCount: 2
Fore
SplineSet
1024 2304 m 1,0,-1
 768 2304 l 1,1,-1
 768 1792 l 1,2,-1
 1024 1792 l 1,3,-1
 1024 2304 l 1,0,-1
256 1280 m 1,4,-1
 1536 1280 l 1,5,-1
 1536 1024 l 1,6,-1
 256 1024 l 1,7,-1
 256 1280 l 1,4,-1
512 1792 m 1,8,-1
 256 1792 l 1,9,-1
 256 2304 l 1,10,-1
 512 2304 l 1,11,-1
 512 2560 l 1,12,-1
 1280 2560 l 1,13,-1
 1280 2304 l 1,14,-1
 1536 2304 l 1,15,-1
 1536 1792 l 1,16,-1
 1280 1792 l 1,17,-1
 1280 1536 l 1,18,-1
 512 1536 l 1,19,-1
 512 1792 l 1,8,-1
EndSplineSet
Validated: 1
EndChar

StartChar: dieresis
Encoding: 168 168 167
Width: 2304
GlyphClass: 1
Flags: W
LayerCount: 2
Fore
SplineSet
512 2560 m 1,0,-1
 1024 2560 l 1,1,-1
 1024 2048 l 1,2,-1
 512 2048 l 1,3,-1
 512 2560 l 1,0,-1
512 1792 m 1,4,-1
 1024 1792 l 1,5,-1
 1024 1280 l 1,6,-1
 768 1280 l 1,7,-1
 768 1024 l 1,8,-1
 512 1024 l 1,9,-1
 512 256 l 1,10,-1
 1280 256 l 1,11,-1
 1280 768 l 1,12,-1
 1792 768 l 1,13,-1
 1792 256 l 1,14,-1
 1536 256 l 1,15,-1
 1536 0 l 1,16,-1
 256 0 l 1,17,-1
 256 256 l 1,18,-1
 0 256 l 1,19,-1
 0 1024 l 1,20,-1
 256 1024 l 1,21,-1
 256 1280 l 1,22,-1
 512 1280 l 1,23,-1
 512 1792 l 1,4,-1
EndSplineSet
Validated: 1
EndChar

StartChar: copyright
Encoding: 169 169 168
Width: 2304
GlyphClass: 1
Flags: W
LayerCount: 2
Fore
SplineSet
512 256 m 1,0,-1
 0 256 l 1,1,-1
 0 1536 l 1,2,-1
 1792 1536 l 1,3,-1
 1792 1280 l 1,4,-1
 512 1280 l 1,5,-1
 512 256 l 1,0,-1
EndSplineSet
Validated: 1
EndChar

StartChar: ordfeminine
Encoding: 170 170 169
Width: 2304
GlyphClass: 1
Flags: W
LayerCount: 2
Fore
SplineSet
0 1536 m 1,0,-1
 1792 1536 l 1,1,-1
 1792 256 l 1,2,-1
 1280 256 l 1,3,-1
 1280 1280 l 1,4,-1
 0 1280 l 1,5,-1
 0 1536 l 1,0,-1
EndSplineSet
Validated: 1
EndChar

StartChar: guillemotleft
Encoding: 171 171 170
Width: 2304
GlyphClass: 1
Flags: W
LayerCount: 2
Fore
SplineSet
512 -256 m 1,0,-1
 768 -256 l 1,1,-1
 768 0 l 1,2,-1
 1024 0 l 1,3,-1
 1024 256 l 1,4,-1
 1280 256 l 1,5,-1
 1280 512 l 1,6,-1
 768 512 l 1,7,-1
 768 768 l 1,8,-1
 512 768 l 1,9,-1
 512 512 l 1,10,-1
 256 512 l 1,11,-1
 256 256 l 1,12,-1
 0 256 l 1,13,-1
 0 768 l 1,14,-1
 256 768 l 1,15,-1
 256 1024 l 1,16,-1
 512 1024 l 1,17,-1
 512 1280 l 1,18,-1
 768 1280 l 1,19,-1
 768 1536 l 1,20,-1
 256 1536 l 1,21,-1
 256 2304 l 1,22,-1
 0 2304 l 1,23,-1
 0 2560 l 1,24,-1
 256 2560 l 1,25,-1
 256 2816 l 1,26,-1
 768 2816 l 1,27,-1
 768 1536 l 1,28,-1
 1024 1536 l 1,29,-1
 1024 1792 l 1,30,-1
 1280 1792 l 1,31,-1
 1280 2048 l 1,32,-1
 1536 2048 l 1,33,-1
 1536 2304 l 1,34,-1
 1792 2304 l 1,35,-1
 1792 1792 l 1,36,-1
 1536 1792 l 1,37,-1
 1536 1536 l 1,38,-1
 1280 1536 l 1,39,-1
 1280 1280 l 1,40,-1
 1024 1280 l 1,41,-1
 1024 1024 l 1,42,-1
 768 1024 l 1,43,-1
 768 768 l 1,44,-1
 1536 768 l 1,45,-1
 1536 512 l 1,46,-1
 1792 512 l 1,47,-1
 1792 256 l 1,48,-1
 1536 256 l 1,49,-1
 1536 0 l 1,50,-1
 1280 0 l 1,51,-1
 1280 -256 l 1,52,-1
 1792 -256 l 1,53,-1
 1792 -512 l 1,54,-1
 512 -512 l 1,55,-1
 512 -256 l 1,0,-1
EndSplineSet
Validated: 5
EndChar

StartChar: logicalnot
Encoding: 172 172 171
Width: 2304
GlyphClass: 1
Flags: W
LayerCount: 2
Fore
SplineSet
1536 256 m 1,0,-1
 1536 512 l 1,1,-1
 1280 512 l 1,2,-1
 1280 256 l 1,3,-1
 1536 256 l 1,0,-1
1792 -512 m 1,4,-1
 1280 -512 l 1,5,-1
 1280 0 l 1,6,-1
 512 0 l 1,7,-1
 512 256 l 1,8,-1
 768 256 l 1,9,-1
 768 512 l 1,10,-1
 1024 512 l 1,11,-1
 1024 768 l 1,12,-1
 1280 768 l 1,13,-1
 1280 1024 l 1,14,-1
 1792 1024 l 1,15,-1
 1792 256 l 1,16,-1
 2048 256 l 1,17,-1
 2048 0 l 1,18,-1
 1792 0 l 1,19,-1
 1792 -512 l 1,4,-1
768 768 m 1,20,-1
 512 768 l 1,21,-1
 512 512 l 1,22,-1
 256 512 l 1,23,-1
 256 256 l 1,24,-1
 0 256 l 1,25,-1
 0 768 l 1,26,-1
 256 768 l 1,27,-1
 256 1024 l 1,28,-1
 512 1024 l 1,29,-1
 512 1280 l 1,30,-1
 768 1280 l 1,31,-1
 768 1536 l 1,32,-1
 256 1536 l 1,33,-1
 256 2304 l 1,34,-1
 0 2304 l 1,35,-1
 0 2560 l 1,36,-1
 256 2560 l 1,37,-1
 256 2816 l 1,38,-1
 768 2816 l 1,39,-1
 768 1536 l 1,40,-1
 1024 1536 l 1,41,-1
 1024 1792 l 1,42,-1
 1280 1792 l 1,43,-1
 1280 2048 l 1,44,-1
 1536 2048 l 1,45,-1
 1536 2304 l 1,46,-1
 1792 2304 l 1,47,-1
 1792 1792 l 1,48,-1
 1536 1792 l 1,49,-1
 1536 1536 l 1,50,-1
 1280 1536 l 1,51,-1
 1280 1280 l 1,52,-1
 1024 1280 l 1,53,-1
 1024 1024 l 1,54,-1
 768 1024 l 1,55,-1
 768 768 l 1,20,-1
EndSplineSet
Validated: 5
EndChar

StartChar: uni00AD
Encoding: 173 173 172
Width: 2304
GlyphClass: 1
Flags: W
LayerCount: 2
Fore
SplineSet
768 2560 m 1,0,-1
 1280 2560 l 1,1,-1
 1280 2048 l 1,2,-1
 768 2048 l 1,3,-1
 768 2560 l 1,0,-1
512 1024 m 1,4,-1
 768 1024 l 1,5,-1
 768 1792 l 1,6,-1
 1280 1792 l 1,7,-1
 1280 1024 l 1,8,-1
 1536 1024 l 1,9,-1
 1536 256 l 1,10,-1
 1280 256 l 1,11,-1
 1280 0 l 1,12,-1
 768 0 l 1,13,-1
 768 256 l 1,14,-1
 512 256 l 1,15,-1
 512 1024 l 1,4,-1
EndSplineSet
Validated: 1
EndChar

StartChar: registered
Encoding: 174 174 173
Width: 2304
GlyphClass: 1
Flags: W
LayerCount: 2
Fore
SplineSet
1024 1536 m 1,0,-1
 1280 1536 l 1,1,-1
 1280 1792 l 1,2,-1
 1792 1792 l 1,3,-1
 1792 1536 l 1,4,-1
 1536 1536 l 1,5,-1
 1536 1280 l 1,6,-1
 1280 1280 l 1,7,-1
 1280 1024 l 1,8,-1
 1536 1024 l 1,9,-1
 1536 768 l 1,10,-1
 1792 768 l 1,11,-1
 1792 512 l 1,12,-1
 1280 512 l 1,13,-1
 1280 768 l 1,14,-1
 1026 768 l 1,15,-1
 1024 770 l 1,16,-1
 1024 1024 l 1,17,-1
 770 1024 l 1,18,-1
 768 1026 l 1,19,-1
 768 1280 l 1,20,-1
 1024 1280 l 1,21,-1
 1024 1536 l 1,0,-1
1024 1538 m 1,22,-1
 1022 1536 l 1,23,-1
 768 1536 l 1,24,-1
 768 1280 l 1,25,-1
 512 1280 l 1,26,-1
 512 1024 l 1,27,-1
 768 1024 l 1,28,-1
 768 768 l 1,29,-1
 1024 768 l 1,30,-1
 1024 512 l 1,31,-1
 512 512 l 1,32,-1
 512 768 l 1,33,-1
 256 768 l 1,34,-1
 256 1024 l 1,35,-1
 0 1024 l 1,36,-1
 0 1280 l 1,37,-1
 256 1280 l 1,38,-1
 256 1536 l 1,39,-1
 512 1536 l 1,40,-1
 512 1792 l 1,41,-1
 1024 1792 l 1,42,-1
 1024 1538 l 1,22,-1
EndSplineSet
Validated: 5
EndChar

StartChar: macron
Encoding: 175 175 174
Width: 2304
GlyphClass: 1
Flags: W
LayerCount: 2
Fore
SplineSet
768 1792 m 1,0,-1
 1280 1792 l 1,1,-1
 1280 1536 l 1,2,-1
 1536 1536 l 1,3,-1
 1536 1280 l 1,4,-1
 1792 1280 l 1,5,-1
 1792 1024 l 1,6,-1
 1536 1024 l 1,7,-1
 1536 768 l 1,8,-1
 1280 768 l 1,9,-1
 1280 512 l 1,10,-1
 768 512 l 1,11,-1
 768 768 l 1,12,-1
 1024 768 l 1,13,-1
 1024 1024 l 1,14,-1
 1280 1024 l 1,15,-1
 1280 1280 l 1,16,-1
 1024 1280 l 1,17,-1
 1024 1536 l 1,18,-1
 770 1536 l 1,19,-1
 768 1538 l 1,20,-1
 768 1792 l 1,0,-1
768 1280 m 1,21,-1
 1024 1280 l 1,22,-1
 1024 1026 l 1,23,-1
 1022 1024 l 1,24,-1
 768 1024 l 1,25,-1
 768 770 l 1,26,-1
 766 768 l 1,27,-1
 512 768 l 1,28,-1
 512 512 l 1,29,-1
 0 512 l 1,30,-1
 0 768 l 1,31,-1
 256 768 l 1,32,-1
 256 1024 l 1,33,-1
 512 1024 l 1,34,-1
 512 1280 l 1,35,-1
 256 1280 l 1,36,-1
 256 1536 l 1,37,-1
 0 1536 l 1,38,-1
 0 1792 l 1,39,-1
 512 1792 l 1,40,-1
 512 1536 l 1,41,-1
 768 1536 l 1,42,-1
 768 1280 l 1,21,-1
EndSplineSet
Validated: 5
EndChar

StartChar: ltshade
Encoding: 176 176 175
Width: 2304
GlyphClass: 1
Flags: W
LayerCount: 2
Fore
SplineSet
1792 0 m 1,0,-1
 2048 0 l 1,1,-1
 2048 -256 l 1,2,-1
 1792 -256 l 1,3,-1
 1792 0 l 1,0,-1
1792 1024 m 1,4,-1
 2048 1024 l 1,5,-1
 2048 768 l 1,6,-1
 1792 768 l 1,7,-1
 1792 1024 l 1,4,-1
1792 2048 m 1,8,-1
 2048 2048 l 1,9,-1
 2048 1792 l 1,10,-1
 1792 1792 l 1,11,-1
 1792 2048 l 1,8,-1
1792 2560 m 1,12,-1
 2048 2560 l 1,13,-1
 2048 2304 l 1,14,-1
 1792 2304 l 1,15,-1
 1792 2560 l 1,12,-1
1792 1536 m 1,16,-1
 2048 1536 l 1,17,-1
 2048 1280 l 1,18,-1
 1792 1280 l 1,19,-1
 1792 1536 l 1,16,-1
1792 512 m 1,20,-1
 2048 512 l 1,21,-1
 2048 256 l 1,22,-1
 1792 256 l 1,23,-1
 1792 512 l 1,20,-1
1792 -512 m 1,24,-1
 2048 -512 l 1,25,-1
 2048 -768 l 1,26,-1
 1792 -768 l 1,27,-1
 1792 -512 l 1,24,-1
1792 3072 m 1,28,-1
 2048 3072 l 1,29,-1
 2048 2816 l 1,30,-1
 1792 2816 l 1,31,-1
 1792 3072 l 1,28,-1
1280 -256 m 1,32,-1
 1536 -256 l 1,33,-1
 1536 -512 l 1,34,-1
 1280 -512 l 1,35,-1
 1280 -256 l 1,32,-1
1280 768 m 1,36,-1
 1536 768 l 1,37,-1
 1536 512 l 1,38,-1
 1280 512 l 1,39,-1
 1280 768 l 1,36,-1
1280 1792 m 1,40,-1
 1536 1792 l 1,41,-1
 1536 1536 l 1,42,-1
 1280 1536 l 1,43,-1
 1280 1792 l 1,40,-1
1280 2304 m 1,44,-1
 1536 2304 l 1,45,-1
 1536 2048 l 1,46,-1
 1280 2048 l 1,47,-1
 1280 2304 l 1,44,-1
1280 1280 m 1,48,-1
 1536 1280 l 1,49,-1
 1536 1024 l 1,50,-1
 1280 1024 l 1,51,-1
 1280 1280 l 1,48,-1
1280 256 m 1,52,-1
 1536 256 l 1,53,-1
 1536 0 l 1,54,-1
 1280 0 l 1,55,-1
 1280 256 l 1,52,-1
1280 -768 m 1,56,-1
 1536 -768 l 1,57,-1
 1536 -1024 l 1,58,-1
 1280 -1024 l 1,59,-1
 1280 -768 l 1,56,-1
1280 2816 m 1,60,-1
 1536 2816 l 1,61,-1
 1536 2560 l 1,62,-1
 1280 2560 l 1,63,-1
 1280 2816 l 1,60,-1
768 0 m 1,64,-1
 1024 0 l 1,65,-1
 1024 -256 l 1,66,-1
 768 -256 l 1,67,-1
 768 0 l 1,64,-1
768 1024 m 1,68,-1
 1024 1024 l 1,69,-1
 1024 768 l 1,70,-1
 768 768 l 1,71,-1
 768 1024 l 1,68,-1
768 2048 m 1,72,-1
 1024 2048 l 1,73,-1
 1024 1792 l 1,74,-1
 768 1792 l 1,75,-1
 768 2048 l 1,72,-1
768 2560 m 1,76,-1
 1024 2560 l 1,77,-1
 1024 2304 l 1,78,-1
 768 2304 l 1,79,-1
 768 2560 l 1,76,-1
768 1536 m 1,80,-1
 1024 1536 l 1,81,-1
 1024 1280 l 1,82,-1
 768 1280 l 1,83,-1
 768 1536 l 1,80,-1
768 512 m 1,84,-1
 1024 512 l 1,85,-1
 1024 256 l 1,86,-1
 768 256 l 1,87,-1
 768 512 l 1,84,-1
768 -512 m 1,88,-1
 1024 -512 l 1,89,-1
 1024 -768 l 1,90,-1
 768 -768 l 1,91,-1
 768 -512 l 1,88,-1
768 3072 m 1,92,-1
 1024 3072 l 1,93,-1
 1024 2816 l 1,94,-1
 768 2816 l 1,95,-1
 768 3072 l 1,92,-1
256 -256 m 1,96,-1
 512 -256 l 1,97,-1
 512 -512 l 1,98,-1
 256 -512 l 1,99,-1
 256 -256 l 1,96,-1
256 768 m 1,100,-1
 512 768 l 1,101,-1
 512 512 l 1,102,-1
 256 512 l 1,103,-1
 256 768 l 1,100,-1
256 1792 m 1,104,-1
 512 1792 l 1,105,-1
 512 1536 l 1,106,-1
 256 1536 l 1,107,-1
 256 1792 l 1,104,-1
256 2304 m 1,108,-1
 512 2304 l 1,109,-1
 512 2048 l 1,110,-1
 256 2048 l 1,111,-1
 256 2304 l 1,108,-1
256 1280 m 1,112,-1
 512 1280 l 1,113,-1
 512 1024 l 1,114,-1
 256 1024 l 1,115,-1
 256 1280 l 1,112,-1
256 256 m 1,116,-1
 512 256 l 1,117,-1
 512 0 l 1,118,-1
 256 0 l 1,119,-1
 256 256 l 1,116,-1
256 -768 m 1,120,-1
 512 -768 l 1,121,-1
 512 -1024 l 1,122,-1
 256 -1024 l 1,123,-1
 256 -768 l 1,120,-1
256 2816 m 1,124,-1
 512 2816 l 1,125,-1
 512 2560 l 1,126,-1
 256 2560 l 1,127,-1
 256 2816 l 1,124,-1
EndSplineSet
Validated: 1
EndChar

StartChar: plusminus
Encoding: 177 177 176
Width: 2304
GlyphClass: 1
Flags: W
LayerCount: 2
Fore
SplineSet
1538 -768 m 1,0,-1
 1792 -768 l 1,1,-1
 1794 -770 l 1,2,-1
 1794 -1024 l 1,3,-1
 1538 -1024 l 1,4,-1
 1538 -768 l 1,0,-1
1794 -512 m 1,5,-1
 2048 -512 l 1,6,-1
 2050 -514 l 1,7,-1
 2048 -768 l 1,8,-1
 1794 -768 l 1,9,-1
 1794 -512 l 1,5,-1
1026 -768 m 1,10,-1
 1280 -768 l 1,11,-1
 1282 -770 l 1,12,-1
 1282 -1024 l 1,13,-1
 1026 -1024 l 1,14,-1
 1026 -768 l 1,10,-1
1282 -512 m 1,15,-1
 1536 -512 l 1,16,-1
 1538 -514 l 1,17,-1
 1536 -768 l 1,18,-1
 1282 -768 l 1,19,-1
 1282 -512 l 1,15,-1
514 -768 m 1,20,-1
 768 -768 l 1,21,-1
 770 -770 l 1,22,-1
 770 -1024 l 1,23,-1
 514 -1024 l 1,24,-1
 514 -768 l 1,20,-1
770 -512 m 1,25,-1
 1024 -512 l 1,26,-1
 1026 -514 l 1,27,-1
 1024 -768 l 1,28,-1
 770 -768 l 1,29,-1
 770 -512 l 1,25,-1
0 -768 m 1,30,-1
 254 -768 l 1,31,-1
 256 -770 l 1,32,-1
 256 -1024 l 1,33,-1
 0 -1024 l 1,34,-1
 0 -768 l 1,30,-1
256 -512 m 1,35,-1
 510 -512 l 1,36,-1
 512 -514 l 1,37,-1
 510 -768 l 1,38,-1
 256 -768 l 1,39,-1
 256 -512 l 1,35,-1
1538 -256 m 1,40,-1
 1792 -256 l 1,41,-1
 1794 -258 l 1,42,-1
 1794 -512 l 1,43,-1
 1538 -512 l 1,44,-1
 1538 -256 l 1,40,-1
1794 0 m 1,45,-1
 2048 0 l 1,46,-1
 2050 -2 l 1,47,-1
 2048 -256 l 1,48,-1
 1794 -256 l 1,49,-1
 1794 0 l 1,45,-1
1026 -256 m 1,50,-1
 1280 -256 l 1,51,-1
 1282 -258 l 1,52,-1
 1282 -512 l 1,53,-1
 1026 -512 l 1,54,-1
 1026 -256 l 1,50,-1
1282 0 m 1,55,-1
 1536 0 l 1,56,-1
 1538 -2 l 1,57,-1
 1536 -256 l 1,58,-1
 1282 -256 l 1,59,-1
 1282 0 l 1,55,-1
514 -256 m 1,60,-1
 768 -256 l 1,61,-1
 770 -258 l 1,62,-1
 770 -512 l 1,63,-1
 514 -512 l 1,64,-1
 514 -256 l 1,60,-1
770 0 m 1,65,-1
 1024 0 l 1,66,-1
 1026 -2 l 1,67,-1
 1024 -256 l 1,68,-1
 770 -256 l 1,69,-1
 770 0 l 1,65,-1
0 -256 m 1,70,-1
 254 -256 l 1,71,-1
 256 -258 l 1,72,-1
 256 -512 l 1,73,-1
 0 -512 l 1,74,-1
 0 -256 l 1,70,-1
256 0 m 1,75,-1
 510 0 l 1,76,-1
 512 -2 l 1,77,-1
 510 -256 l 1,78,-1
 256 -256 l 1,79,-1
 256 0 l 1,75,-1
1538 256 m 1,80,-1
 1792 256 l 1,81,-1
 1794 254 l 1,82,-1
 1794 0 l 1,83,-1
 1538 0 l 1,84,-1
 1538 256 l 1,80,-1
1794 512 m 1,85,-1
 2048 512 l 1,86,-1
 2050 510 l 1,87,-1
 2048 256 l 1,88,-1
 1794 256 l 1,89,-1
 1794 512 l 1,85,-1
1026 256 m 1,90,-1
 1280 256 l 1,91,-1
 1282 254 l 1,92,-1
 1282 0 l 1,93,-1
 1026 0 l 1,94,-1
 1026 256 l 1,90,-1
1282 512 m 1,95,-1
 1536 512 l 1,96,-1
 1538 510 l 1,97,-1
 1536 256 l 1,98,-1
 1282 256 l 1,99,-1
 1282 512 l 1,95,-1
514 256 m 1,100,-1
 768 256 l 1,101,-1
 770 254 l 1,102,-1
 770 0 l 1,103,-1
 514 0 l 1,104,-1
 514 256 l 1,100,-1
770 512 m 1,105,-1
 1024 512 l 1,106,-1
 1026 510 l 1,107,-1
 1024 256 l 1,108,-1
 770 256 l 1,109,-1
 770 512 l 1,105,-1
0 256 m 1,110,-1
 254 256 l 1,111,-1
 256 254 l 1,112,-1
 256 0 l 1,113,-1
 0 0 l 1,114,-1
 0 256 l 1,110,-1
256 512 m 1,115,-1
 510 512 l 1,116,-1
 512 510 l 1,117,-1
 510 256 l 1,118,-1
 256 256 l 1,119,-1
 256 512 l 1,115,-1
1538 768 m 1,120,-1
 1792 768 l 1,121,-1
 1794 766 l 1,122,-1
 1794 512 l 1,123,-1
 1538 512 l 1,124,-1
 1538 768 l 1,120,-1
1794 1024 m 1,125,-1
 2048 1024 l 1,126,-1
 2050 1022 l 1,127,-1
 2048 768 l 1,128,-1
 1794 768 l 1,129,-1
 1794 1024 l 1,125,-1
1026 768 m 1,130,-1
 1280 768 l 1,131,-1
 1282 766 l 1,132,-1
 1282 512 l 1,133,-1
 1026 512 l 1,134,-1
 1026 768 l 1,130,-1
1282 1024 m 1,135,-1
 1536 1024 l 1,136,-1
 1538 1022 l 1,137,-1
 1536 768 l 1,138,-1
 1282 768 l 1,139,-1
 1282 1024 l 1,135,-1
514 768 m 1,140,-1
 768 768 l 1,141,-1
 770 766 l 1,142,-1
 770 512 l 1,143,-1
 514 512 l 1,144,-1
 514 768 l 1,140,-1
770 1024 m 1,145,-1
 1024 1024 l 1,146,-1
 1026 1022 l 1,147,-1
 1024 768 l 1,148,-1
 770 768 l 1,149,-1
 770 1024 l 1,145,-1
0 768 m 1,150,-1
 254 768 l 1,151,-1
 256 766 l 1,152,-1
 256 512 l 1,153,-1
 0 512 l 1,154,-1
 0 768 l 1,150,-1
256 1024 m 1,155,-1
 510 1024 l 1,156,-1
 512 1022 l 1,157,-1
 510 768 l 1,158,-1
 256 768 l 1,159,-1
 256 1024 l 1,155,-1
1538 1280 m 1,160,-1
 1792 1280 l 1,161,-1
 1794 1278 l 1,162,-1
 1794 1024 l 1,163,-1
 1538 1024 l 1,164,-1
 1538 1280 l 1,160,-1
1794 1536 m 1,165,-1
 2048 1536 l 1,166,-1
 2050 1534 l 1,167,-1
 2048 1280 l 1,168,-1
 1794 1280 l 1,169,-1
 1794 1536 l 1,165,-1
1026 1280 m 1,170,-1
 1280 1280 l 1,171,-1
 1282 1278 l 1,172,-1
 1282 1024 l 1,173,-1
 1026 1024 l 1,174,-1
 1026 1280 l 1,170,-1
1282 1536 m 1,175,-1
 1536 1536 l 1,176,-1
 1538 1534 l 1,177,-1
 1536 1280 l 1,178,-1
 1282 1280 l 1,179,-1
 1282 1536 l 1,175,-1
514 1280 m 1,180,-1
 768 1280 l 1,181,-1
 770 1278 l 1,182,-1
 770 1024 l 1,183,-1
 514 1024 l 1,184,-1
 514 1280 l 1,180,-1
770 1536 m 1,185,-1
 1024 1536 l 1,186,-1
 1026 1534 l 1,187,-1
 1024 1280 l 1,188,-1
 770 1280 l 1,189,-1
 770 1536 l 1,185,-1
0 1280 m 1,190,-1
 254 1280 l 1,191,-1
 256 1278 l 1,192,-1
 256 1024 l 1,193,-1
 0 1024 l 1,194,-1
 0 1280 l 1,190,-1
256 1536 m 1,195,-1
 510 1536 l 1,196,-1
 512 1534 l 1,197,-1
 510 1280 l 1,198,-1
 256 1280 l 1,199,-1
 256 1536 l 1,195,-1
1538 1792 m 1,200,-1
 1792 1792 l 1,201,-1
 1794 1790 l 1,202,-1
 1794 1536 l 1,203,-1
 1538 1536 l 1,204,-1
 1538 1792 l 1,200,-1
1794 2048 m 1,205,-1
 2048 2048 l 1,206,-1
 2050 2046 l 1,207,-1
 2048 1792 l 1,208,-1
 1794 1792 l 1,209,-1
 1794 2048 l 1,205,-1
1026 1792 m 1,210,-1
 1280 1792 l 1,211,-1
 1282 1790 l 1,212,-1
 1282 1536 l 1,213,-1
 1026 1536 l 1,214,-1
 1026 1792 l 1,210,-1
1282 2048 m 1,215,-1
 1536 2048 l 1,216,-1
 1538 2046 l 1,217,-1
 1536 1792 l 1,218,-1
 1282 1792 l 1,219,-1
 1282 2048 l 1,215,-1
514 1792 m 1,220,-1
 768 1792 l 1,221,-1
 770 1790 l 1,222,-1
 770 1536 l 1,223,-1
 514 1536 l 1,224,-1
 514 1792 l 1,220,-1
770 2048 m 1,225,-1
 1024 2048 l 1,226,-1
 1026 2046 l 1,227,-1
 1024 1792 l 1,228,-1
 770 1792 l 1,229,-1
 770 2048 l 1,225,-1
0 1792 m 1,230,-1
 254 1792 l 1,231,-1
 256 1790 l 1,232,-1
 256 1536 l 1,233,-1
 0 1536 l 1,234,-1
 0 1792 l 1,230,-1
256 2048 m 1,235,-1
 510 2048 l 1,236,-1
 512 2046 l 1,237,-1
 510 1792 l 1,238,-1
 256 1792 l 1,239,-1
 256 2048 l 1,235,-1
1538 2304 m 1,240,-1
 1792 2304 l 1,241,-1
 1794 2302 l 1,242,-1
 1794 2048 l 1,243,-1
 1538 2048 l 1,244,-1
 1538 2304 l 1,240,-1
1794 2560 m 1,245,-1
 2048 2560 l 1,246,-1
 2050 2558 l 1,247,-1
 2048 2304 l 1,248,-1
 1794 2304 l 1,249,-1
 1794 2560 l 1,245,-1
1026 2304 m 1,250,-1
 1280 2304 l 1,251,-1
 1282 2302 l 1,252,-1
 1282 2048 l 1,253,-1
 1026 2048 l 1,254,-1
 1026 2304 l 1,250,-1
1282 2560 m 1,255,-1
 1536 2560 l 1,256,-1
 1538 2558 l 1,257,-1
 1536 2304 l 1,258,-1
 1282 2304 l 1,259,-1
 1282 2560 l 1,255,-1
514 2304 m 1,260,-1
 768 2304 l 1,261,-1
 770 2302 l 1,262,-1
 770 2048 l 1,263,-1
 514 2048 l 1,264,-1
 514 2304 l 1,260,-1
770 2560 m 1,265,-1
 1024 2560 l 1,266,-1
 1026 2558 l 1,267,-1
 1024 2304 l 1,268,-1
 770 2304 l 1,269,-1
 770 2560 l 1,265,-1
0 2304 m 1,270,-1
 254 2304 l 1,271,-1
 256 2302 l 1,272,-1
 256 2048 l 1,273,-1
 0 2048 l 1,274,-1
 0 2304 l 1,270,-1
256 2560 m 1,275,-1
 510 2560 l 1,276,-1
 512 2558 l 1,277,-1
 510 2304 l 1,278,-1
 256 2304 l 1,279,-1
 256 2560 l 1,275,-1
1536 2816 m 1,280,-1
 1790 2816 l 1,281,-1
 1792 2814 l 1,282,-1
 1792 2560 l 1,283,-1
 1536 2560 l 1,284,-1
 1536 2816 l 1,280,-1
1792 3072 m 1,285,-1
 2048 3072 l 1,286,-1
 2048 2816 l 1,287,-1
 1792 2816 l 1,288,-1
 1792 3072 l 1,285,-1
1024 2816 m 1,289,-1
 1278 2816 l 1,290,-1
 1280 2814 l 1,291,-1
 1280 2560 l 1,292,-1
 1024 2560 l 1,293,-1
 1024 2816 l 1,289,-1
1280 3072 m 1,294,-1
 1536 3072 l 1,295,-1
 1536 2816 l 1,296,-1
 1280 2816 l 1,297,-1
 1280 3072 l 1,294,-1
512 2816 m 1,298,-1
 766 2816 l 1,299,-1
 768 2814 l 1,300,-1
 768 2560 l 1,301,-1
 512 2560 l 1,302,-1
 512 2816 l 1,298,-1
768 3072 m 1,303,-1
 1024 3072 l 1,304,-1
 1024 2816 l 1,305,-1
 768 2816 l 1,306,-1
 768 3072 l 1,303,-1
0 2816 m 1,307,-1
 254 2816 l 1,308,-1
 256 2814 l 1,309,-1
 256 2560 l 1,310,-1
 0 2560 l 1,311,-1
 0 2816 l 1,307,-1
256 3072 m 1,312,-1
 512 3072 l 1,313,-1
 512 2816 l 1,314,-1
 256 2816 l 1,315,-1
 256 3072 l 1,312,-1
EndSplineSet
Validated: 5
EndChar

StartChar: twosuperior
Encoding: 178 178 177
Width: 2304
GlyphClass: 1
Flags: W
LayerCount: 2
Fore
SplineSet
1792 2304 m 1,0,-1
 1792 2560 l 1,1,-1
 1536 2560 l 1,2,-1
 1536 2304 l 1,3,-1
 1792 2304 l 1,0,-1
1792 1280 m 1,4,-1
 1792 1536 l 1,5,-1
 1536 1536 l 1,6,-1
 1536 1280 l 1,7,-1
 1792 1280 l 1,4,-1
1792 256 m 1,8,-1
 1792 512 l 1,9,-1
 1536 512 l 1,10,-1
 1536 256 l 1,11,-1
 1792 256 l 1,8,-1
1792 -768 m 1,12,-1
 1792 -512 l 1,13,-1
 1536 -512 l 1,14,-1
 1536 -768 l 1,15,-1
 1792 -768 l 1,12,-1
1280 -512 m 1,16,-1
 1280 -256 l 1,17,-1
 1024 -256 l 1,18,-1
 1024 -512 l 1,19,-1
 1280 -512 l 1,16,-1
1280 512 m 1,20,-1
 1280 768 l 1,21,-1
 1024 768 l 1,22,-1
 1024 512 l 1,23,-1
 1280 512 l 1,20,-1
1280 1536 m 1,24,-1
 1280 1792 l 1,25,-1
 1024 1792 l 1,26,-1
 1024 1536 l 1,27,-1
 1280 1536 l 1,24,-1
1280 2560 m 1,28,-1
 1280 2816 l 1,29,-1
 1024 2816 l 1,30,-1
 1024 2560 l 1,31,-1
 1280 2560 l 1,28,-1
768 768 m 1,32,-1
 768 1024 l 1,33,-1
 512 1024 l 1,34,-1
 512 768 l 1,35,-1
 768 768 l 1,32,-1
768 -256 m 1,36,-1
 768 0 l 1,37,-1
 512 0 l 1,38,-1
 512 -256 l 1,39,-1
 768 -256 l 1,36,-1
768 1792 m 1,40,-1
 768 2048 l 1,41,-1
 512 2048 l 1,42,-1
 512 1792 l 1,43,-1
 768 1792 l 1,40,-1
768 2304 m 1,44,-1
 768 2560 l 1,45,-1
 512 2560 l 1,46,-1
 512 2304 l 1,47,-1
 768 2304 l 1,44,-1
768 -768 m 1,48,-1
 768 -512 l 1,49,-1
 512 -512 l 1,50,-1
 512 -768 l 1,51,-1
 768 -768 l 1,48,-1
768 256 m 1,52,-1
 768 512 l 1,53,-1
 512 512 l 1,54,-1
 512 256 l 1,55,-1
 768 256 l 1,52,-1
768 1280 m 1,56,-1
 768 1536 l 1,57,-1
 512 1536 l 1,58,-1
 512 1280 l 1,59,-1
 768 1280 l 1,56,-1
1280 2048 m 1,60,-1
 1280 2304 l 1,61,-1
 1024 2304 l 1,62,-1
 1024 2048 l 1,63,-1
 1280 2048 l 1,60,-1
1280 1024 m 1,64,-1
 1280 1280 l 1,65,-1
 1024 1280 l 1,66,-1
 1024 1024 l 1,67,-1
 1280 1024 l 1,64,-1
1280 0 m 1,68,-1
 1280 256 l 1,69,-1
 1024 256 l 1,70,-1
 1024 0 l 1,71,-1
 1280 0 l 1,68,-1
1792 -256 m 1,72,-1
 1792 0 l 1,73,-1
 1536 0 l 1,74,-1
 1536 -256 l 1,75,-1
 1792 -256 l 1,72,-1
1792 768 m 1,76,-1
 1792 1024 l 1,77,-1
 1536 1024 l 1,78,-1
 1536 768 l 1,79,-1
 1792 768 l 1,76,-1
1792 1792 m 1,80,-1
 1792 2048 l 1,81,-1
 1536 2048 l 1,82,-1
 1536 1792 l 1,83,-1
 1792 1792 l 1,80,-1
1792 2816 m 1,84,-1
 1792 3072 l 1,85,-1
 2048 3072 l 1,86,-1
 2048 -1024 l 1,87,-1
 1280 -1024 l 1,88,-1
 1280 -768 l 1,89,-1
 1024 -768 l 1,90,-1
 1024 -1024 l 1,91,-1
 256 -1024 l 1,92,-1
 256 -768 l 1,93,-1
 0 -768 l 1,94,-1
 0 -512 l 1,95,-1
 256 -512 l 1,96,-1
 256 -256 l 1,97,-1
 0 -256 l 1,98,-1
 0 0 l 1,99,-1
 256 0 l 1,100,-1
 256 256 l 1,101,-1
 0 256 l 1,102,-1
 0 512 l 1,103,-1
 256 512 l 1,104,-1
 256 768 l 1,105,-1
 0 768 l 1,106,-1
 0 1024 l 1,107,-1
 256 1024 l 1,108,-1
 256 1280 l 1,109,-1
 0 1280 l 1,110,-1
 0 1536 l 1,111,-1
 256 1536 l 1,112,-1
 256 1792 l 1,113,-1
 0 1792 l 1,114,-1
 0 2048 l 1,115,-1
 256 2048 l 1,116,-1
 256 2304 l 1,117,-1
 0 2304 l 1,118,-1
 0 2560 l 1,119,-1
 256 2560 l 1,120,-1
 256 2816 l 1,121,-1
 0 2816 l 1,122,-1
 0 3072 l 1,123,-1
 512 3072 l 1,124,-1
 512 2816 l 1,125,-1
 768 2816 l 1,126,-1
 768 3072 l 1,127,-1
 1536 3072 l 1,128,-1
 1536 2816 l 1,129,-1
 1792 2816 l 1,84,-1
EndSplineSet
Validated: 1
EndChar

StartChar: threesuperior
Encoding: 179 179 178
Width: 2304
GlyphClass: 1
Flags: W
LayerCount: 2
Fore
SplineSet
768 3072 m 1,0,-1
 1280 3072 l 1,1,-1
 1280 -1024 l 1,2,-1
 768 -1024 l 1,3,-1
 768 3072 l 1,0,-1
EndSplineSet
Validated: 1
EndChar

StartChar: acute
Encoding: 180 180 179
Width: 2304
GlyphClass: 1
Flags: W
LayerCount: 2
Fore
SplineSet
0 1280 m 1,0,-1
 768 1280 l 1,1,-1
 768 3072 l 1,2,-1
 1280 3072 l 1,3,-1
 1280 -1024 l 1,4,-1
 768 -1024 l 1,5,-1
 768 1024 l 1,6,-1
 0 1024 l 1,7,-1
 0 1280 l 1,0,-1
EndSplineSet
Validated: 1
EndChar

StartChar: mu
Encoding: 181 181 180
Width: 2304
GlyphClass: 1
Flags: W
LayerCount: 2
Fore
SplineSet
0 1792 m 1,0,-1
 768 1792 l 1,1,-1
 768 3072 l 1,2,-1
 1280 3072 l 1,3,-1
 1280 -1024 l 1,4,-1
 768 -1024 l 1,5,-1
 768 1024 l 1,6,-1
 0 1024 l 1,7,-1
 0 1280 l 1,8,-1
 768 1280 l 1,9,-1
 768 1536 l 1,10,-1
 0 1536 l 1,11,-1
 0 1792 l 1,0,-1
EndSplineSet
Validated: 1
EndChar

StartChar: paragraph
Encoding: 182 182 181
Width: 2304
GlyphClass: 1
Flags: W
LayerCount: 2
Fore
SplineSet
1280 3072 m 1,0,-1
 1792 3072 l 1,1,-1
 1792 -1024 l 1,2,-1
 1280 -1024 l 1,3,-1
 1280 3072 l 1,0,-1
0 1280 m 1,4,-1
 512 1280 l 1,5,-1
 512 3072 l 1,6,-1
 1024 3072 l 1,7,-1
 1024 -1024 l 1,8,-1
 512 -1024 l 1,9,-1
 512 1024 l 1,10,-1
 0 1024 l 1,11,-1
 0 1280 l 1,4,-1
EndSplineSet
Validated: 1
EndChar

StartChar: periodcentered
Encoding: 183 183 182
AltUni2: 002219.ffffffff.0 002219.ffffffff.0
Width: 2304
GlyphClass: 1
Flags: W
LayerCount: 2
Fore
SplineSet
1280 1024 m 1,0,-1
 1024 1024 l 1,1,-1
 1024 -1024 l 1,2,-1
 512 -1024 l 1,3,-1
 512 1024 l 1,4,-1
 0 1024 l 1,5,-1
 0 1280 l 1,6,-1
 1792 1280 l 1,7,-1
 1792 -1024 l 1,8,-1
 1280 -1024 l 1,9,-1
 1280 1024 l 1,0,-1
EndSplineSet
Validated: 1
EndChar

StartChar: cedilla
Encoding: 184 184 183
Width: 2304
GlyphClass: 1
Flags: W
LayerCount: 2
Fore
SplineSet
0 1792 m 1,0,-1
 1280 1792 l 1,1,-1
 1280 -1024 l 1,2,-1
 768 -1024 l 1,3,-1
 768 1024 l 1,4,-1
 0 1024 l 1,5,-1
 0 1280 l 1,6,-1
 768 1280 l 1,7,-1
 768 1536 l 1,8,-1
 0 1536 l 1,9,-1
 0 1792 l 1,0,-1
EndSplineSet
Validated: 1
EndChar

StartChar: onesuperior
Encoding: 185 185 184
Width: 2304
GlyphClass: 1
Flags: W
LayerCount: 2
Fore
SplineSet
0 1792 m 1,0,-1
 512 1792 l 1,1,-1
 512 3072 l 1,2,-1
 1024 3072 l 1,3,-1
 1024 1536 l 1,4,-1
 0 1536 l 1,5,-1
 0 1792 l 1,0,-1
0 1280 m 1,6,-1
 1024 1280 l 1,7,-1
 1024 -1024 l 1,8,-1
 512 -1024 l 1,9,-1
 512 1024 l 1,10,-1
 0 1024 l 1,11,-1
 0 1280 l 1,6,-1
1280 3072 m 1,12,-1
 1792 3072 l 1,13,-1
 1792 -1024 l 1,14,-1
 1280 -1024 l 1,15,-1
 1280 3072 l 1,12,-1
EndSplineSet
Validated: 1
EndChar

StartChar: ordmasculine
Encoding: 186 186 185
Width: 2304
GlyphClass: 1
Flags: W
LayerCount: 2
Fore
SplineSet
1280 3072 m 1,0,-1
 1792 3072 l 1,1,-1
 1792 -1024 l 1,2,-1
 1280 -1024 l 1,3,-1
 1280 3072 l 1,0,-1
512 3072 m 1,4,-1
 1024 3072 l 1,5,-1
 1024 -1024 l 1,6,-1
 512 -1024 l 1,7,-1
 512 3072 l 1,4,-1
EndSplineSet
Validated: 1
EndChar

StartChar: guillemotright
Encoding: 187 187 186
Width: 2304
GlyphClass: 1
Flags: W
LayerCount: 2
Fore
SplineSet
0 1280 m 1,0,-1
 1024 1280 l 1,1,-1
 1024 -1024 l 1,2,-1
 512 -1024 l 1,3,-1
 512 1024 l 1,4,-1
 0 1024 l 1,5,-1
 0 1280 l 1,0,-1
0 1792 m 1,6,-1
 1792 1792 l 1,7,-1
 1792 -1024 l 1,8,-1
 1280 -1024 l 1,9,-1
 1280 1536 l 1,10,-1
 0 1536 l 1,11,-1
 0 1792 l 1,6,-1
EndSplineSet
Validated: 1
EndChar

StartChar: onequarter
Encoding: 188 188 187
Width: 2304
GlyphClass: 1
Flags: W
LayerCount: 2
Fore
SplineSet
0 1792 m 1,0,-1
 512 1792 l 1,1,-1
 512 3072 l 1,2,-1
 1024 3072 l 1,3,-1
 1024 1536 l 1,4,-1
 0 1536 l 1,5,-1
 0 1792 l 1,0,-1
0 1280 m 1,6,-1
 1280 1280 l 1,7,-1
 1280 3072 l 1,8,-1
 1792 3072 l 1,9,-1
 1792 1024 l 1,10,-1
 0 1024 l 1,11,-1
 0 1280 l 1,6,-1
EndSplineSet
Validated: 1
EndChar

StartChar: onehalf
Encoding: 189 189 188
Width: 2304
GlyphClass: 1
Flags: W
LayerCount: 2
Fore
SplineSet
0 1280 m 1,0,-1
 512 1280 l 1,1,-1
 512 3072 l 1,2,-1
 1024 3072 l 1,3,-1
 1024 1280 l 1,4,-1
 1280 1280 l 1,5,-1
 1280 3072 l 1,6,-1
 1792 3072 l 1,7,-1
 1792 1024 l 1,8,-1
 0 1024 l 1,9,-1
 0 1280 l 1,0,-1
EndSplineSet
Validated: 1
EndChar

StartChar: threequarters
Encoding: 190 190 189
Width: 2304
GlyphClass: 1
Flags: W
LayerCount: 2
Fore
SplineSet
0 1792 m 1,0,-1
 768 1792 l 1,1,-1
 768 3072 l 1,2,-1
 1280 3072 l 1,3,-1
 1280 1024 l 1,4,-1
 0 1024 l 1,5,-1
 0 1280 l 1,6,-1
 768 1280 l 1,7,-1
 768 1536 l 1,8,-1
 0 1536 l 1,9,-1
 0 1792 l 1,0,-1
EndSplineSet
Validated: 1
EndChar

StartChar: questiondown
Encoding: 191 191 190
Width: 2304
GlyphClass: 1
Flags: W
LayerCount: 2
Fore
SplineSet
0 1280 m 1,0,-1
 1280 1280 l 1,1,-1
 1280 -1024 l 1,2,-1
 768 -1024 l 1,3,-1
 768 1024 l 1,4,-1
 0 1024 l 1,5,-1
 0 1280 l 1,0,-1
EndSplineSet
Validated: 1
EndChar

StartChar: Agrave
Encoding: 192 192 191
Width: 2304
GlyphClass: 1
Flags: W
LayerCount: 2
Fore
SplineSet
768 3072 m 1,0,-1
 1280 3072 l 1,1,-1
 1280 1280 l 1,2,-1
 2304 1280 l 1,3,-1
 2304 1024 l 1,4,-1
 768 1024 l 1,5,-1
 768 3072 l 1,0,-1
EndSplineSet
Validated: 1
EndChar

StartChar: Aacute
Encoding: 193 193 192
Width: 2304
GlyphClass: 1
Flags: W
LayerCount: 2
Fore
SplineSet
0 1280 m 1,0,-1
 768 1280 l 1,1,-1
 768 3072 l 1,2,-1
 1280 3072 l 1,3,-1
 1280 1280 l 1,4,-1
 2304 1280 l 1,5,-1
 2304 1024 l 1,6,-1
 0 1024 l 1,7,-1
 0 1280 l 1,0,-1
EndSplineSet
Validated: 1
EndChar

StartChar: Acircumflex
Encoding: 194 194 193
Width: 2304
GlyphClass: 1
Flags: W
LayerCount: 2
Fore
SplineSet
0 1280 m 1,0,-1
 2304 1280 l 1,1,-1
 2304 1024 l 1,2,-1
 1280 1024 l 1,3,-1
 1280 -1024 l 1,4,-1
 768 -1024 l 1,5,-1
 768 1024 l 1,6,-1
 0 1024 l 1,7,-1
 0 1280 l 1,0,-1
EndSplineSet
Validated: 1
EndChar

StartChar: Atilde
Encoding: 195 195 194
Width: 2304
GlyphClass: 1
Flags: W
LayerCount: 2
Fore
SplineSet
1280 -1024 m 1,0,-1
 768 -1024 l 1,1,-1
 768 3072 l 1,2,-1
 1280 3072 l 1,3,-1
 1280 1280 l 1,4,-1
 2304 1280 l 1,5,-1
 2304 1024 l 1,6,-1
 1280 1024 l 1,7,-1
 1280 -1024 l 1,0,-1
EndSplineSet
Validated: 1
EndChar

StartChar: SF100000
Encoding: 196 196 195
Width: 2304
GlyphClass: 1
Flags: W
LayerCount: 2
Fore
SplineSet
0 1280 m 1,0,-1
 2304 1280 l 1,1,-1
 2304 1024 l 1,2,-1
 0 1024 l 1,3,-1
 0 1280 l 1,0,-1
EndSplineSet
Validated: 1
EndChar

StartChar: Aring
Encoding: 197 197 196
Width: 2304
GlyphClass: 1
Flags: W
LayerCount: 2
Fore
SplineSet
0 1280 m 1,0,-1
 768 1280 l 1,1,-1
 768 3072 l 1,2,-1
 1280 3072 l 1,3,-1
 1280 1280 l 1,4,-1
 2304 1280 l 1,5,-1
 2304 1024 l 1,6,-1
 1280 1024 l 1,7,-1
 1280 -1024 l 1,8,-1
 768 -1024 l 1,9,-1
 768 1024 l 1,10,-1
 0 1024 l 1,11,-1
 0 1280 l 1,0,-1
EndSplineSet
Validated: 1
EndChar

StartChar: AE
Encoding: 198 198 197
Width: 2304
GlyphClass: 1
Flags: W
LayerCount: 2
Fore
SplineSet
1280 1280 m 1,0,-1
 2304 1280 l 1,1,-1
 2304 1024 l 1,2,-1
 1280 1024 l 1,3,-1
 1280 -1024 l 1,4,-1
 768 -1024 l 1,5,-1
 768 3072 l 1,6,-1
 1280 3072 l 1,7,-1
 1280 1792 l 1,8,-1
 2304 1792 l 1,9,-1
 2304 1536 l 1,10,-1
 1280 1536 l 1,11,-1
 1280 1280 l 1,0,-1
EndSplineSet
Validated: 1
EndChar

StartChar: Ccedilla
Encoding: 199 199 198
Width: 2304
GlyphClass: 1
Flags: W
LayerCount: 2
Fore
SplineSet
512 3072 m 1,0,-1
 1024 3072 l 1,1,-1
 1024 -1024 l 1,2,-1
 512 -1024 l 1,3,-1
 512 3072 l 1,0,-1
1792 -1024 m 1,4,-1
 1280 -1024 l 1,5,-1
 1280 3072 l 1,6,-1
 1792 3072 l 1,7,-1
 1792 1280 l 1,8,-1
 2304 1280 l 1,9,-1
 2304 1024 l 1,10,-1
 1792 1024 l 1,11,-1
 1792 -1024 l 1,4,-1
EndSplineSet
Validated: 1
EndChar

StartChar: Egrave
Encoding: 200 200 199
Width: 2304
GlyphClass: 1
Flags: W
LayerCount: 2
Fore
SplineSet
1280 3072 m 1,0,-1
 1792 3072 l 1,1,-1
 1792 1792 l 1,2,-1
 2304 1792 l 1,3,-1
 2304 1536 l 1,4,-1
 1280 1536 l 1,5,-1
 1280 3072 l 1,0,-1
512 3072 m 1,6,-1
 1024 3072 l 1,7,-1
 1024 1280 l 1,8,-1
 2304 1280 l 1,9,-1
 2304 1024 l 1,10,-1
 512 1024 l 1,11,-1
 512 3072 l 1,6,-1
EndSplineSet
Validated: 1
EndChar

StartChar: Eacute
Encoding: 201 201 200
Width: 2304
GlyphClass: 1
Flags: W
LayerCount: 2
Fore
SplineSet
1280 0 m 1,0,-1
 1280 1280 l 1,1,-1
 2304 1280 l 1,2,-1
 2304 1024 l 1,3,-1
 1792 1024 l 1,4,-1
 1792 -1024 l 1,5,-1
 1280 -1024 l 1,6,-1
 1280 0 l 1,0,-1
512 1792 m 1,7,-1
 2304 1792 l 1,8,-1
 2304 1536 l 1,9,-1
 1024 1536 l 1,10,-1
 1024 -1024 l 1,11,-1
 512 -1024 l 1,12,-1
 512 1792 l 1,7,-1
EndSplineSet
Validated: 1
EndChar

StartChar: Ecircumflex
Encoding: 202 202 201
Width: 2304
GlyphClass: 1
Flags: W
LayerCount: 2
Fore
SplineSet
0 1280 m 1,0,-1
 2304 1280 l 1,1,-1
 2304 1024 l 1,2,-1
 0 1024 l 1,3,-1
 0 1280 l 1,0,-1
1792 3072 m 1,4,-1
 1792 1792 l 1,5,-1
 2304 1792 l 1,6,-1
 2304 1536 l 1,7,-1
 1280 1536 l 1,8,-1
 1280 3072 l 1,9,-1
 1792 3072 l 1,4,-1
512 3072 m 1,10,-1
 1024 3072 l 1,11,-1
 1024 1536 l 1,12,-1
 0 1536 l 1,13,-1
 0 1792 l 1,14,-1
 512 1792 l 1,15,-1
 512 3072 l 1,10,-1
EndSplineSet
Validated: 1
EndChar

StartChar: Edieresis
Encoding: 203 203 202
Width: 2304
GlyphClass: 1
Flags: W
LayerCount: 2
Fore
SplineSet
0 1792 m 1,0,-1
 2304 1792 l 1,1,-1
 2304 1536 l 1,2,-1
 0 1536 l 1,3,-1
 0 1792 l 1,0,-1
1280 1280 m 1,4,-1
 2304 1280 l 1,5,-1
 2304 1024 l 1,6,-1
 1792 1024 l 1,7,-1
 1792 -1024 l 1,8,-1
 1280 -1024 l 1,9,-1
 1280 1280 l 1,4,-1
0 1280 m 1,10,-1
 1024 1280 l 1,11,-1
 1024 -1024 l 1,12,-1
 512 -1024 l 1,13,-1
 512 1024 l 1,14,-1
 0 1024 l 1,15,-1
 0 1280 l 1,10,-1
EndSplineSet
Validated: 1
EndChar

StartChar: Igrave
Encoding: 204 204 203
Width: 2304
GlyphClass: 1
Flags: W
LayerCount: 2
Fore
SplineSet
1280 3072 m 1,0,-1
 1792 3072 l 1,1,-1
 1792 1792 l 1,2,-1
 2304 1792 l 1,3,-1
 2304 1536 l 1,4,-1
 1280 1536 l 1,5,-1
 1280 3072 l 1,0,-1
1280 1280 m 1,6,-1
 2304 1280 l 1,7,-1
 2304 1024 l 1,8,-1
 1792 1024 l 1,9,-1
 1792 -1024 l 1,10,-1
 1280 -1024 l 1,11,-1
 1280 1280 l 1,6,-1
512 3072 m 1,12,-1
 1024 3072 l 1,13,-1
 1024 -1024 l 1,14,-1
 512 -1024 l 1,15,-1
 512 3072 l 1,12,-1
EndSplineSet
Validated: 1
EndChar

StartChar: Iacute
Encoding: 205 205 204
Width: 2304
GlyphClass: 1
Flags: W
LayerCount: 2
Fore
SplineSet
0 1280 m 1,0,-1
 2304 1280 l 1,1,-1
 2304 1024 l 1,2,-1
 0 1024 l 1,3,-1
 0 1280 l 1,0,-1
0 1792 m 1,4,-1
 2304 1792 l 1,5,-1
 2304 1536 l 1,6,-1
 0 1536 l 1,7,-1
 0 1792 l 1,4,-1
EndSplineSet
Validated: 1
EndChar

StartChar: Icircumflex
Encoding: 206 206 205
Width: 2304
GlyphClass: 1
Flags: W
LayerCount: 2
Fore
SplineSet
0 1792 m 1,0,-1
 512 1792 l 1,1,-1
 512 3072 l 1,2,-1
 1024 3072 l 1,3,-1
 1024 1536 l 1,4,-1
 0 1536 l 1,5,-1
 0 1792 l 1,0,-1
1280 3072 m 1,6,-1
 1792 3072 l 1,7,-1
 1792 1792 l 1,8,-1
 2304 1792 l 1,9,-1
 2304 1536 l 1,10,-1
 1280 1536 l 1,11,-1
 1280 3072 l 1,6,-1
2304 1280 m 1,12,-1
 2304 1024 l 1,13,-1
 1792 1024 l 1,14,-1
 1792 -1024 l 1,15,-1
 1280 -1024 l 1,16,-1
 1280 1280 l 1,17,-1
 2304 1280 l 1,12,-1
0 1280 m 1,18,-1
 1024 1280 l 1,19,-1
 1024 -1024 l 1,20,-1
 512 -1024 l 1,21,-1
 512 1024 l 1,22,-1
 0 1024 l 1,23,-1
 0 1280 l 1,18,-1
EndSplineSet
Validated: 1
EndChar

StartChar: Idieresis
Encoding: 207 207 206
Width: 2304
GlyphClass: 1
Flags: W
LayerCount: 2
Fore
SplineSet
0 1280 m 1,0,-1
 2304 1280 l 1,1,-1
 2304 1024 l 1,2,-1
 0 1024 l 1,3,-1
 0 1280 l 1,0,-1
0 1792 m 1,4,-1
 768 1792 l 1,5,-1
 768 2560 l 1,6,-1
 1280 2560 l 1,7,-1
 1280 1792 l 1,8,-1
 2304 1792 l 1,9,-1
 2304 1536 l 1,10,-1
 0 1536 l 1,11,-1
 0 1792 l 1,4,-1
EndSplineSet
Validated: 1
EndChar

StartChar: Eth
Encoding: 208 208 207
Width: 2304
GlyphClass: 1
Flags: W
LayerCount: 2
Fore
SplineSet
0 1280 m 1,0,-1
 512 1280 l 1,1,-1
 512 3072 l 1,2,-1
 1024 3072 l 1,3,-1
 1024 1280 l 1,4,-1
 1280 1280 l 1,5,-1
 1280 3072 l 1,6,-1
 1792 3072 l 1,7,-1
 1792 1280 l 1,8,-1
 2304 1280 l 1,9,-1
 2304 1024 l 1,10,-1
 0 1024 l 1,11,-1
 0 1280 l 1,0,-1
EndSplineSet
Validated: 1
EndChar

StartChar: Ntilde
Encoding: 209 209 208
Width: 2304
GlyphClass: 1
Flags: W
LayerCount: 2
Fore
SplineSet
0 1792 m 1,0,-1
 2304 1792 l 1,1,-1
 2304 1536 l 1,2,-1
 0 1536 l 1,3,-1
 0 1792 l 1,0,-1
0 1280 m 1,4,-1
 2304 1280 l 1,5,-1
 2304 1024 l 1,6,-1
 1280 1024 l 1,7,-1
 1280 -1024 l 1,8,-1
 768 -1024 l 1,9,-1
 768 1024 l 1,10,-1
 0 1024 l 1,11,-1
 0 1280 l 1,4,-1
EndSplineSet
Validated: 1
EndChar

StartChar: Ograve
Encoding: 210 210 209
Width: 2304
GlyphClass: 1
Flags: W
LayerCount: 2
Fore
SplineSet
1280 1024 m 1,0,-1
 1024 1024 l 1,1,-1
 1024 -1024 l 1,2,-1
 512 -1024 l 1,3,-1
 512 1024 l 1,4,-1
 0 1024 l 1,5,-1
 0 1280 l 1,6,-1
 2304 1280 l 1,7,-1
 2304 1024 l 1,8,-1
 1792 1024 l 1,9,-1
 1792 -1024 l 1,10,-1
 1280 -1024 l 1,11,-1
 1280 1024 l 1,0,-1
EndSplineSet
Validated: 1
EndChar

StartChar: Oacute
Encoding: 211 211 210
Width: 2304
GlyphClass: 1
Flags: W
LayerCount: 2
Fore
SplineSet
512 3072 m 1,0,-1
 1024 3072 l 1,1,-1
 1024 1280 l 1,2,-1
 1280 1280 l 1,3,-1
 1280 3072 l 1,4,-1
 1792 3072 l 1,5,-1
 1792 1280 l 1,6,-1
 2304 1280 l 1,7,-1
 2304 1024 l 1,8,-1
 512 1024 l 1,9,-1
 512 3072 l 1,0,-1
EndSplineSet
Validated: 1
EndChar

StartChar: Ocircumflex
Encoding: 212 212 211
Width: 2304
GlyphClass: 1
Flags: W
LayerCount: 2
Fore
SplineSet
768 3072 m 1,0,-1
 1280 3072 l 1,1,-1
 1280 1792 l 1,2,-1
 2304 1792 l 1,3,-1
 2304 1536 l 1,4,-1
 1280 1536 l 1,5,-1
 1280 1280 l 1,6,-1
 2304 1280 l 1,7,-1
 2304 1024 l 1,8,-1
 768 1024 l 1,9,-1
 768 3072 l 1,0,-1
EndSplineSet
Validated: 1
EndChar

StartChar: Otilde
Encoding: 213 213 212
Width: 2304
GlyphClass: 1
Flags: W
LayerCount: 2
Fore
SplineSet
2304 1792 m 1,0,-1
 2304 1536 l 1,1,-1
 1280 1536 l 1,2,-1
 1280 1280 l 1,3,-1
 2304 1280 l 1,4,-1
 2304 1024 l 1,5,-1
 1280 1024 l 1,6,-1
 1280 -1024 l 1,7,-1
 768 -1024 l 1,8,-1
 768 1792 l 1,9,-1
 2304 1792 l 1,0,-1
EndSplineSet
Validated: 1
EndChar

StartChar: Odieresis
Encoding: 214 214 213
Width: 2304
GlyphClass: 1
Flags: W
LayerCount: 2
Fore
SplineSet
1280 1024 m 1,0,-1
 1024 1024 l 1,1,-1
 1024 -1024 l 1,2,-1
 512 -1024 l 1,3,-1
 512 1280 l 1,4,-1
 2304 1280 l 1,5,-1
 2304 1024 l 1,6,-1
 1792 1024 l 1,7,-1
 1792 -1024 l 1,8,-1
 1280 -1024 l 1,9,-1
 1280 1024 l 1,0,-1
EndSplineSet
Validated: 1
EndChar

StartChar: multiply
Encoding: 215 215 214
Width: 2304
GlyphClass: 1
Flags: W
LayerCount: 2
Fore
SplineSet
1280 1024 m 1,0,-1
 1024 1024 l 1,1,-1
 1024 -1024 l 1,2,-1
 512 -1024 l 1,3,-1
 512 1024 l 1,4,-1
 0 1024 l 1,5,-1
 0 1280 l 1,6,-1
 512 1280 l 1,7,-1
 512 3072 l 1,8,-1
 1024 3072 l 1,9,-1
 1024 1280 l 1,10,-1
 1280 1280 l 1,11,-1
 1280 3072 l 1,12,-1
 1792 3072 l 1,13,-1
 1792 1280 l 1,14,-1
 2304 1280 l 1,15,-1
 2304 1024 l 1,16,-1
 1792 1024 l 1,17,-1
 1792 -1024 l 1,18,-1
 1280 -1024 l 1,19,-1
 1280 1024 l 1,0,-1
EndSplineSet
Validated: 1
EndChar

StartChar: Oslash
Encoding: 216 216 215
Width: 2304
GlyphClass: 1
Flags: W
LayerCount: 2
Fore
SplineSet
0 1792 m 1,0,-1
 768 1792 l 1,1,-1
 768 3072 l 1,2,-1
 1280 3072 l 1,3,-1
 1280 1792 l 1,4,-1
 2304 1792 l 1,5,-1
 2304 1536 l 1,6,-1
 1280 1536 l 1,7,-1
 1280 1280 l 1,8,-1
 2304 1280 l 1,9,-1
 2304 1024 l 1,10,-1
 1280 1024 l 1,11,-1
 1280 -1024 l 1,12,-1
 768 -1024 l 1,13,-1
 768 1024 l 1,14,-1
 0 1024 l 1,15,-1
 0 1280 l 1,16,-1
 768 1280 l 1,17,-1
 768 1536 l 1,18,-1
 0 1536 l 1,19,-1
 0 1792 l 1,0,-1
EndSplineSet
Validated: 1
EndChar

StartChar: Ugrave
Encoding: 217 217 216
Width: 2304
GlyphClass: 1
Flags: W
LayerCount: 2
Fore
SplineSet
0 1280 m 1,0,-1
 768 1280 l 1,1,-1
 768 3072 l 1,2,-1
 1280 3072 l 1,3,-1
 1280 1024 l 1,4,-1
 0 1024 l 1,5,-1
 0 1280 l 1,0,-1
EndSplineSet
Validated: 1
EndChar

StartChar: Uacute
Encoding: 218 218 217
Width: 2304
GlyphClass: 1
Flags: W
LayerCount: 2
Fore
SplineSet
768 1280 m 1,0,-1
 2304 1280 l 1,1,-1
 2304 1024 l 1,2,-1
 1280 1024 l 1,3,-1
 1280 -1024 l 1,4,-1
 768 -1024 l 1,5,-1
 768 1280 l 1,0,-1
EndSplineSet
Validated: 1
EndChar

StartChar: Ucircumflex
Encoding: 219 219 218
Width: 2304
GlyphClass: 1
Flags: W
LayerCount: 2
Fore
SplineSet
0 3072 m 1,0,-1
 2304 3072 l 1,1,-1
 2304 -1024 l 1,2,-1
 0 -1024 l 1,3,-1
 0 3072 l 1,0,-1
EndSplineSet
Validated: 1
EndChar

StartChar: Udieresis
Encoding: 220 220 219
Width: 2304
GlyphClass: 1
Flags: W
LayerCount: 2
Fore
SplineSet
0 1280 m 1,0,-1
 2304 1280 l 1,1,-1
 2304 -1024 l 1,2,-1
 0 -1024 l 1,3,-1
 0 1280 l 1,0,-1
EndSplineSet
Validated: 1
EndChar

StartChar: Yacute
Encoding: 221 221 220
Width: 2304
GlyphClass: 1
Flags: W
LayerCount: 2
Fore
SplineSet
0 3072 m 1,0,-1
 1024 3072 l 1,1,-1
 1024 -1024 l 1,2,-1
 0 -1024 l 1,3,-1
 0 3072 l 1,0,-1
EndSplineSet
Validated: 1
EndChar

StartChar: Thorn
Encoding: 222 222 221
Width: 2304
GlyphClass: 1
Flags: W
LayerCount: 2
Fore
SplineSet
1024 3072 m 1,0,-1
 2304 3072 l 1,1,-1
 2304 -1024 l 1,2,-1
 1024 -1024 l 1,3,-1
 1024 3072 l 1,0,-1
EndSplineSet
Validated: 1
EndChar

StartChar: germandbls
Encoding: 223 223 222
Width: 2304
GlyphClass: 1
Flags: W
LayerCount: 2
Fore
SplineSet
0 3072 m 1,0,-1
 2304 3072 l 1,1,-1
 2304 1280 l 1,2,-1
 0 1280 l 1,3,-1
 0 3072 l 1,0,-1
EndSplineSet
Validated: 1
EndChar

StartChar: agrave
Encoding: 224 224 223
Width: 2304
GlyphClass: 1
Flags: W
LayerCount: 2
Fore
SplineSet
768 1536 m 1,0,-1
 512 1536 l 1,1,-1
 512 256 l 1,2,-1
 768 256 l 1,3,-1
 768 1536 l 1,0,-1
1280 256 m 1,4,-1
 1024 256 l 1,5,-1
 1024 0 l 1,6,-1
 256 0 l 1,7,-1
 256 256 l 1,8,-1
 0 256 l 1,9,-1
 0 1536 l 1,10,-1
 256 1536 l 1,11,-1
 256 1792 l 1,12,-1
 1024 1792 l 1,13,-1
 1024 1536 l 1,14,-1
 1280 1536 l 1,15,-1
 1280 1792 l 1,16,-1
 1792 1792 l 1,17,-1
 1792 1536 l 1,18,-1
 1536 1536 l 1,19,-1
 1536 1280 l 1,20,-1
 1280 1280 l 1,21,-1
 1280 512 l 1,22,-1
 1536 512 l 1,23,-1
 1536 256 l 1,24,-1
 1792 256 l 1,25,-1
 1792 0 l 1,26,-1
 1280 0 l 1,27,-1
 1280 256 l 1,4,-1
EndSplineSet
Validated: 1
EndChar

StartChar: aacute
Encoding: 225 225 224
Width: 2304
GlyphClass: 1
Flags: W
LayerCount: 2
Fore
SplineSet
1024 256 m 1,0,-1
 1280 256 l 1,1,-1
 1280 1024 l 1,2,-1
 1024 1024 l 1,3,-1
 1024 1280 l 1,4,-1
 768 1280 l 1,5,-1
 768 1536 l 1,6,-1
 1024 1536 l 1,7,-1
 1024 2304 l 1,8,-1
 512 2304 l 1,9,-1
 512 0 l 1,10,-1
 0 0 l 1,11,-1
 0 2304 l 1,12,-1
 256 2304 l 1,13,-1
 256 2560 l 1,14,-1
 1280 2560 l 1,15,-1
 1280 2304 l 1,16,-1
 1536 2304 l 1,17,-1
 1536 1536 l 1,18,-1
 1280 1536 l 1,19,-1
 1280 1280 l 1,20,-1
 1536 1280 l 1,21,-1
 1536 1024 l 1,22,-1
 1792 1024 l 1,23,-1
 1792 256 l 1,24,-1
 1536 256 l 1,25,-1
 1536 0 l 1,26,-1
 1024 0 l 1,27,-1
 1024 256 l 1,0,-1
EndSplineSet
Validated: 1
EndChar

StartChar: acircumflex
Encoding: 226 226 225
Width: 2304
GlyphClass: 1
Flags: W
LayerCount: 2
Fore
SplineSet
512 0 m 1,0,-1
 0 0 l 1,1,-1
 0 2560 l 1,2,-1
 1792 2560 l 1,3,-1
 1792 1792 l 1,4,-1
 1280 1792 l 1,5,-1
 1280 2304 l 1,6,-1
 512 2304 l 1,7,-1
 512 0 l 1,0,-1
EndSplineSet
Validated: 1
EndChar

StartChar: atilde
Encoding: 227 227 226
Width: 2304
GlyphClass: 1
Flags: W
LayerCount: 2
Fore
SplineSet
1024 1536 m 1,0,-1
 768 1536 l 1,1,-1
 768 0 l 1,2,-1
 256 0 l 1,3,-1
 256 1536 l 1,4,-1
 0 1536 l 1,5,-1
 0 1792 l 1,6,-1
 1792 1792 l 1,7,-1
 1792 1536 l 1,8,-1
 1536 1536 l 1,9,-1
 1536 0 l 1,10,-1
 1024 0 l 1,11,-1
 1024 1536 l 1,0,-1
EndSplineSet
Validated: 1
EndChar

StartChar: adieresis
Encoding: 228 228 227
Width: 2304
GlyphClass: 1
Flags: W
LayerCount: 2
Fore
SplineSet
0 512 m 1,0,-1
 256 512 l 1,1,-1
 256 768 l 1,2,-1
 512 768 l 1,3,-1
 512 1024 l 1,4,-1
 768 1024 l 1,5,-1
 768 1536 l 1,6,-1
 512 1536 l 1,7,-1
 512 1792 l 1,8,-1
 256 1792 l 1,9,-1
 256 2048 l 1,10,-1
 0 2048 l 1,11,-1
 0 2560 l 1,12,-1
 1792 2560 l 1,13,-1
 1792 2048 l 1,14,-1
 1280 2048 l 1,15,-1
 1280 2304 l 1,16,-1
 512 2304 l 1,17,-1
 512 2048 l 1,18,-1
 768 2048 l 1,19,-1
 768 1792 l 1,20,-1
 1024 1792 l 1,21,-1
 1024 1536 l 1,22,-1
 1280 1536 l 1,23,-1
 1280 1024 l 1,24,-1
 1024 1024 l 1,25,-1
 1024 768 l 1,26,-1
 768 768 l 1,27,-1
 768 512 l 1,28,-1
 512 512 l 1,29,-1
 512 256 l 1,30,-1
 1280 256 l 1,31,-1
 1280 512 l 1,32,-1
 1792 512 l 1,33,-1
 1792 0 l 1,34,-1
 0 0 l 1,35,-1
 0 512 l 1,0,-1
EndSplineSet
Validated: 1
EndChar

StartChar: aring
Encoding: 229 229 228
Width: 2304
GlyphClass: 1
Flags: W
LayerCount: 2
Fore
SplineSet
768 1536 m 1,0,-1
 512 1536 l 1,1,-1
 512 256 l 1,2,-1
 768 256 l 1,3,-1
 768 1536 l 1,0,-1
0 1536 m 1,4,-1
 256 1536 l 1,5,-1
 256 1792 l 1,6,-1
 1792 1792 l 1,7,-1
 1792 1536 l 1,8,-1
 1280 1536 l 1,9,-1
 1280 256 l 1,10,-1
 1024 256 l 1,11,-1
 1024 0 l 1,12,-1
 256 0 l 1,13,-1
 256 256 l 1,14,-1
 0 256 l 1,15,-1
 0 1536 l 1,4,-1
EndSplineSet
Validated: 1
EndChar

StartChar: ae
Encoding: 230 230 229
Width: 2304
GlyphClass: 1
Flags: W
LayerCount: 2
Fore
SplineSet
0 -512 m 1,0,-1
 256 -512 l 1,1,-1
 256 1792 l 1,2,-1
 768 1792 l 1,3,-1
 768 256 l 1,4,-1
 1280 256 l 1,5,-1
 1280 1792 l 1,6,-1
 1792 1792 l 1,7,-1
 1792 256 l 1,8,-1
 1536 256 l 1,9,-1
 1536 0 l 1,10,-1
 768 0 l 1,11,-1
 768 -512 l 1,12,-1
 512 -512 l 1,13,-1
 512 -768 l 1,14,-1
 0 -768 l 1,15,-1
 0 -512 l 1,0,-1
EndSplineSet
Validated: 1
EndChar

StartChar: ccedilla
Encoding: 231 231 230
Width: 2304
GlyphClass: 1
Flags: W
LayerCount: 2
Fore
SplineSet
768 1792 m 1,0,-1
 512 1792 l 1,1,-1
 512 1536 l 1,2,-1
 0 1536 l 1,3,-1
 0 1792 l 1,4,-1
 256 1792 l 1,5,-1
 256 2048 l 1,6,-1
 1024 2048 l 1,7,-1
 1024 1792 l 1,8,-1
 1280 1792 l 1,9,-1
 1280 2048 l 1,10,-1
 1792 2048 l 1,11,-1
 1792 1792 l 1,12,-1
 1536 1792 l 1,13,-1
 1536 1536 l 1,14,-1
 1280 1536 l 1,15,-1
 1280 0 l 1,16,-1
 768 0 l 1,17,-1
 768 1792 l 1,0,-1
EndSplineSet
Validated: 1
EndChar

StartChar: egrave
Encoding: 232 232 231
Width: 2304
GlyphClass: 1
Flags: W
LayerCount: 2
Fore
SplineSet
1280 1792 m 1,0,-1
 768 1792 l 1,1,-1
 768 768 l 1,2,-1
 1280 768 l 1,3,-1
 1280 1792 l 1,0,-1
256 1792 m 1,4,-1
 512 1792 l 1,5,-1
 512 2048 l 1,6,-1
 768 2048 l 1,7,-1
 768 2304 l 1,8,-1
 256 2304 l 1,9,-1
 256 2560 l 1,10,-1
 1792 2560 l 1,11,-1
 1792 2304 l 1,12,-1
 1280 2304 l 1,13,-1
 1280 2048 l 1,14,-1
 1536 2048 l 1,15,-1
 1536 1792 l 1,16,-1
 1792 1792 l 1,17,-1
 1792 768 l 1,18,-1
 1536 768 l 1,19,-1
 1536 512 l 1,20,-1
 1280 512 l 1,21,-1
 1280 256 l 1,22,-1
 1792 256 l 1,23,-1
 1792 0 l 1,24,-1
 256 0 l 1,25,-1
 256 256 l 1,26,-1
 768 256 l 1,27,-1
 768 512 l 1,28,-1
 512 512 l 1,29,-1
 512 768 l 1,30,-1
 256 768 l 1,31,-1
 256 1792 l 1,4,-1
EndSplineSet
Validated: 1
EndChar

StartChar: eacute
Encoding: 233 233 232
Width: 2304
GlyphClass: 1
Flags: W
LayerCount: 2
Fore
SplineSet
512 1536 m 1,0,-1
 1280 1536 l 1,1,-1
 1280 2048 l 1,2,-1
 1024 2048 l 1,3,-1
 1024 2304 l 1,4,-1
 768 2304 l 1,5,-1
 768 2048 l 1,6,-1
 512 2048 l 1,7,-1
 512 1536 l 1,0,-1
512 512 m 1,8,-1
 768 512 l 1,9,-1
 768 256 l 1,10,-1
 1024 256 l 1,11,-1
 1024 512 l 1,12,-1
 1280 512 l 1,13,-1
 1280 1280 l 1,14,-1
 512 1280 l 1,15,-1
 512 512 l 1,8,-1
512 256 m 1,16,-1
 256 256 l 1,17,-1
 256 512 l 1,18,-1
 0 512 l 1,19,-1
 0 2048 l 1,20,-1
 256 2048 l 1,21,-1
 256 2304 l 1,22,-1
 512 2304 l 1,23,-1
 512 2560 l 1,24,-1
 1280 2560 l 1,25,-1
 1280 2304 l 1,26,-1
 1536 2304 l 1,27,-1
 1536 2048 l 1,28,-1
 1792 2048 l 1,29,-1
 1792 512 l 1,30,-1
 1536 512 l 1,31,-1
 1536 256 l 1,32,-1
 1280 256 l 1,33,-1
 1280 0 l 1,34,-1
 512 0 l 1,35,-1
 512 256 l 1,16,-1
EndSplineSet
Validated: 1
EndChar

StartChar: ecircumflex
Encoding: 234 234 233
Width: 2304
GlyphClass: 1
Flags: W
LayerCount: 2
Fore
SplineSet
1024 2304 m 1,0,-1
 768 2304 l 1,1,-1
 768 2048 l 1,2,-1
 512 2048 l 1,3,-1
 512 1280 l 1,4,-1
 768 1280 l 1,5,-1
 768 0 l 1,6,-1
 0 0 l 1,7,-1
 0 256 l 1,8,-1
 256 256 l 1,9,-1
 256 1280 l 1,10,-1
 0 1280 l 1,11,-1
 0 2048 l 1,12,-1
 256 2048 l 1,13,-1
 256 2304 l 1,14,-1
 512 2304 l 1,15,-1
 512 2560 l 1,16,-1
 1280 2560 l 1,17,-1
 1280 2304 l 1,18,-1
 1536 2304 l 1,19,-1
 1536 2048 l 1,20,-1
 1792 2048 l 1,21,-1
 1792 1280 l 1,22,-1
 1536 1280 l 1,23,-1
 1536 256 l 1,24,-1
 1792 256 l 1,25,-1
 1792 0 l 1,26,-1
 1024 0 l 1,27,-1
 1024 1280 l 1,28,-1
 1280 1280 l 1,29,-1
 1280 2048 l 1,30,-1
 1024 2048 l 1,31,-1
 1024 2304 l 1,0,-1
EndSplineSet
Validated: 1
EndChar

StartChar: edieresis
Encoding: 235 235 234
Width: 2304
GlyphClass: 1
Flags: W
LayerCount: 2
Fore
SplineSet
1280 1280 m 1,0,-1
 768 1280 l 1,1,-1
 768 256 l 1,2,-1
 1280 256 l 1,3,-1
 1280 1280 l 1,0,-1
768 2560 m 1,4,-1
 1792 2560 l 1,5,-1
 1792 2304 l 1,6,-1
 1024 2304 l 1,7,-1
 1024 2048 l 1,8,-1
 1280 2048 l 1,9,-1
 1280 1792 l 1,10,-1
 1536 1792 l 1,11,-1
 1536 1536 l 1,12,-1
 1792 1536 l 1,13,-1
 1792 256 l 1,14,-1
 1536 256 l 1,15,-1
 1536 0 l 1,16,-1
 512 0 l 1,17,-1
 512 256 l 1,18,-1
 256 256 l 1,19,-1
 256 1280 l 1,20,-1
 512 1280 l 1,21,-1
 512 1536 l 1,22,-1
 1024 1536 l 1,23,-1
 1024 1792 l 1,24,-1
 768 1792 l 1,25,-1
 768 2048 l 1,26,-1
 512 2048 l 1,27,-1
 512 2304 l 1,28,-1
 768 2304 l 1,29,-1
 768 2560 l 1,4,-1
EndSplineSet
Validated: 1
EndChar

StartChar: igrave
Encoding: 236 236 235
Width: 2304
GlyphClass: 1
Flags: W
LayerCount: 2
Fore
SplineSet
768 1536 m 1,0,-1
 512 1536 l 1,1,-1
 512 768 l 1,2,-1
 768 768 l 1,3,-1
 768 1536 l 1,0,-1
1536 1536 m 1,4,-1
 1280 1536 l 1,5,-1
 1280 768 l 1,6,-1
 1536 768 l 1,7,-1
 1536 1536 l 1,4,-1
1792 512 m 1,8,-1
 256 512 l 1,9,-1
 256 768 l 1,10,-1
 0 768 l 1,11,-1
 0 1536 l 1,12,-1
 256 1536 l 1,13,-1
 256 1792 l 1,14,-1
 1792 1792 l 1,15,-1
 1792 1536 l 1,16,-1
 2304 1536 l 1,17,-1
 2304 768 l 1,18,-1
 1792 768 l 1,19,-1
 1792 512 l 1,8,-1
EndSplineSet
Validated: 1
EndChar

StartChar: iacute
Encoding: 237 237 236
Width: 2304
GlyphClass: 1
Flags: W
LayerCount: 2
Fore
SplineSet
768 1536 m 1,0,-1
 512 1536 l 1,1,-1
 512 1024 l 1,2,-1
 768 1024 l 1,3,-1
 768 1536 l 1,0,-1
1536 1536 m 1,4,-1
 1280 1536 l 1,5,-1
 1280 1024 l 1,6,-1
 1024 1024 l 1,7,-1
 1024 768 l 1,8,-1
 1536 768 l 1,9,-1
 1536 1536 l 1,4,-1
1792 768 m 1,10,-1
 1792 512 l 1,11,-1
 768 512 l 1,12,-1
 768 256 l 1,13,-1
 512 256 l 1,14,-1
 512 0 l 1,15,-1
 0 0 l 1,16,-1
 0 256 l 1,17,-1
 256 256 l 1,18,-1
 256 768 l 1,19,-1
 0 768 l 1,20,-1
 0 1536 l 1,21,-1
 256 1536 l 1,22,-1
 256 1792 l 1,23,-1
 1280 1792 l 1,24,-1
 1280 2048 l 1,25,-1
 1536 2048 l 1,26,-1
 1536 2304 l 1,27,-1
 2304 2304 l 1,28,-1
 2304 2048 l 1,29,-1
 1792 2048 l 1,30,-1
 1792 1536 l 1,31,-1
 2304 1536 l 1,32,-1
 2304 768 l 1,33,-1
 1792 768 l 1,10,-1
EndSplineSet
Validated: 1
EndChar

StartChar: icircumflex
Encoding: 238 238 237
Width: 2304
GlyphClass: 1
Flags: W
LayerCount: 2
Fore
SplineSet
768 512 m 1,0,-1
 1024 512 l 1,1,-1
 1024 256 l 1,2,-1
 1536 256 l 1,3,-1
 1536 0 l 1,4,-1
 768 0 l 1,5,-1
 768 256 l 1,6,-1
 512 256 l 1,7,-1
 512 512 l 1,8,-1
 256 512 l 1,9,-1
 256 2048 l 1,10,-1
 512 2048 l 1,11,-1
 512 2304 l 1,12,-1
 768 2304 l 1,13,-1
 768 2560 l 1,14,-1
 1536 2560 l 1,15,-1
 1536 2304 l 1,16,-1
 1024 2304 l 1,17,-1
 1024 2048 l 1,18,-1
 768 2048 l 1,19,-1
 768 1536 l 1,20,-1
 1536 1536 l 1,21,-1
 1536 1280 l 1,22,-1
 768 1280 l 1,23,-1
 768 512 l 1,0,-1
EndSplineSet
Validated: 1
EndChar

StartChar: idieresis
Encoding: 239 239 238
Width: 2304
GlyphClass: 1
Flags: W
LayerCount: 2
Fore
SplineSet
1280 2048 m 1,0,-1
 512 2048 l 1,1,-1
 512 0 l 1,2,-1
 0 0 l 1,3,-1
 0 2048 l 1,4,-1
 256 2048 l 1,5,-1
 256 2304 l 1,6,-1
 1536 2304 l 1,7,-1
 1536 2048 l 1,8,-1
 1792 2048 l 1,9,-1
 1792 0 l 1,10,-1
 1280 0 l 1,11,-1
 1280 2048 l 1,0,-1
EndSplineSet
Validated: 1
EndChar

StartChar: eth
Encoding: 240 240 239
Width: 2304
GlyphClass: 1
Flags: W
LayerCount: 2
Fore
SplineSet
0 1280 m 1,0,-1
 1792 1280 l 1,1,-1
 1792 1024 l 1,2,-1
 0 1024 l 1,3,-1
 0 1280 l 1,0,-1
0 2048 m 1,4,-1
 1792 2048 l 1,5,-1
 1792 1792 l 1,6,-1
 0 1792 l 1,7,-1
 0 2048 l 1,4,-1
0 512 m 1,8,-1
 1792 512 l 1,9,-1
 1792 256 l 1,10,-1
 0 256 l 1,11,-1
 0 512 l 1,8,-1
EndSplineSet
Validated: 1
EndChar

StartChar: ntilde
Encoding: 241 241 240
Width: 2304
GlyphClass: 1
Flags: W
LayerCount: 2
Fore
SplineSet
256 256 m 1,0,-1
 1792 256 l 1,1,-1
 1792 0 l 1,2,-1
 256 0 l 1,3,-1
 256 256 l 1,0,-1
256 1536 m 1,4,-1
 768 1536 l 1,5,-1
 768 2048 l 1,6,-1
 1280 2048 l 1,7,-1
 1280 1536 l 1,8,-1
 1792 1536 l 1,9,-1
 1792 1280 l 1,10,-1
 1280 1280 l 1,11,-1
 1280 768 l 1,12,-1
 768 768 l 1,13,-1
 768 1280 l 1,14,-1
 256 1280 l 1,15,-1
 256 1536 l 1,4,-1
EndSplineSet
Validated: 1
EndChar

StartChar: ograve
Encoding: 242 242 241
Width: 2304
GlyphClass: 1
Flags: W
LayerCount: 2
Fore
SplineSet
256 256 m 1,0,-1
 1792 256 l 1,1,-1
 1792 0 l 1,2,-1
 256 0 l 1,3,-1
 256 256 l 1,0,-1
512 2304 m 1,4,-1
 1024 2304 l 1,5,-1
 1024 2048 l 1,6,-1
 1280 2048 l 1,7,-1
 1280 1792 l 1,8,-1
 1536 1792 l 1,9,-1
 1536 1536 l 1,10,-1
 1792 1536 l 1,11,-1
 1792 1280 l 1,12,-1
 1536 1280 l 1,13,-1
 1536 1024 l 1,14,-1
 1280 1024 l 1,15,-1
 1280 768 l 1,16,-1
 1024 768 l 1,17,-1
 1024 512 l 1,18,-1
 512 512 l 1,19,-1
 512 768 l 1,20,-1
 768 768 l 1,21,-1
 768 1024 l 1,22,-1
 1024 1024 l 1,23,-1
 1024 1280 l 1,24,-1
 1280 1280 l 1,25,-1
 1280 1536 l 1,26,-1
 1024 1536 l 1,27,-1
 1024 1792 l 1,28,-1
 768 1792 l 1,29,-1
 768 2048 l 1,30,-1
 512 2048 l 1,31,-1
 512 2304 l 1,4,-1
EndSplineSet
Validated: 1
EndChar

StartChar: oacute
Encoding: 243 243 242
Width: 2304
GlyphClass: 1
Flags: W
LayerCount: 2
Fore
SplineSet
256 256 m 1,0,-1
 1792 256 l 1,1,-1
 1792 0 l 1,2,-1
 256 0 l 1,3,-1
 256 256 l 1,0,-1
1024 2304 m 1,4,-1
 1536 2304 l 1,5,-1
 1536 2048 l 1,6,-1
 1280 2048 l 1,7,-1
 1280 1792 l 1,8,-1
 1024 1792 l 1,9,-1
 1024 1536 l 1,10,-1
 768 1536 l 1,11,-1
 768 1280 l 1,12,-1
 1024 1280 l 1,13,-1
 1024 1024 l 1,14,-1
 1280 1024 l 1,15,-1
 1280 768 l 1,16,-1
 1536 768 l 1,17,-1
 1536 512 l 1,18,-1
 1024 512 l 1,19,-1
 1024 768 l 1,20,-1
 768 768 l 1,21,-1
 768 1024 l 1,22,-1
 512 1024 l 1,23,-1
 512 1280 l 1,24,-1
 256 1280 l 1,25,-1
 256 1536 l 1,26,-1
 512 1536 l 1,27,-1
 512 1792 l 1,28,-1
 768 1792 l 1,29,-1
 768 2048 l 1,30,-1
 1024 2048 l 1,31,-1
 1024 2304 l 1,4,-1
EndSplineSet
Validated: 1
EndChar

StartChar: ocircumflex
Encoding: 244 244 243
Width: 2304
GlyphClass: 1
Flags: W
LayerCount: 2
Fore
SplineSet
1536 2304 m 1,0,-1
 1280 2304 l 1,1,-1
 1280 -1024 l 1,2,-1
 768 -1024 l 1,3,-1
 768 2304 l 1,4,-1
 1024 2304 l 1,5,-1
 1024 2560 l 1,6,-1
 1792 2560 l 1,7,-1
 1792 2304 l 1,8,-1
 2048 2304 l 1,9,-1
 2048 1792 l 1,10,-1
 1536 1792 l 1,11,-1
 1536 2304 l 1,0,-1
EndSplineSet
Validated: 1
EndChar

StartChar: otilde
Encoding: 245 245 244
Width: 2304
GlyphClass: 1
Flags: W
LayerCount: 2
Fore
SplineSet
0 512 m 1,0,-1
 512 512 l 1,1,-1
 512 0 l 1,2,-1
 768 0 l 1,3,-1
 768 3072 l 1,4,-1
 1280 3072 l 1,5,-1
 1280 0 l 1,6,-1
 1024 0 l 1,7,-1
 1024 -256 l 1,8,-1
 256 -256 l 1,9,-1
 256 0 l 1,10,-1
 0 0 l 1,11,-1
 0 512 l 1,0,-1
EndSplineSet
Validated: 1
EndChar

StartChar: odieresis
Encoding: 246 246 245
Width: 2304
GlyphClass: 1
Flags: W
LayerCount: 2
Fore
SplineSet
768 768 m 1,0,-1
 1280 768 l 1,1,-1
 1280 512 l 1,2,-1
 768 512 l 1,3,-1
 768 768 l 1,0,-1
768 1792 m 1,4,-1
 1280 1792 l 1,5,-1
 1280 1536 l 1,6,-1
 768 1536 l 1,7,-1
 768 1792 l 1,4,-1
256 1280 m 1,8,-1
 1792 1280 l 1,9,-1
 1792 1024 l 1,10,-1
 256 1024 l 1,11,-1
 256 1280 l 1,8,-1
EndSplineSet
Validated: 1
EndChar

StartChar: divide
Encoding: 247 247 246
Width: 2304
GlyphClass: 1
Flags: W
LayerCount: 2
Fore
SplineSet
1280 1792 m 1,0,-1
 1792 1792 l 1,1,-1
 1792 1536 l 1,2,-1
 1536 1536 l 1,3,-1
 1536 1280 l 1,4,-1
 768 1280 l 1,5,-1
 768 1536 l 1,6,-1
 512 1536 l 1,7,-1
 512 1280 l 1,8,-1
 0 1280 l 1,9,-1
 0 1536 l 1,10,-1
 256 1536 l 1,11,-1
 256 1792 l 1,12,-1
 1024 1792 l 1,13,-1
 1024 1536 l 1,14,-1
 1280 1536 l 1,15,-1
 1280 1792 l 1,0,-1
1280 1024 m 1,16,-1
 1792 1024 l 1,17,-1
 1792 768 l 1,18,-1
 1536 768 l 1,19,-1
 1536 512 l 1,20,-1
 768 512 l 1,21,-1
 768 768 l 1,22,-1
 512 768 l 1,23,-1
 512 512 l 1,24,-1
 0 512 l 1,25,-1
 0 768 l 1,26,-1
 256 768 l 1,27,-1
 256 1024 l 1,28,-1
 1024 1024 l 1,29,-1
 1024 768 l 1,30,-1
 1280 768 l 1,31,-1
 1280 1024 l 1,16,-1
EndSplineSet
Validated: 1
EndChar

StartChar: oslash
Encoding: 248 248 247
Width: 2304
GlyphClass: 1
Flags: W
LayerCount: 2
Fore
SplineSet
1024 2560 m 1,0,-1
 768 2560 l 1,1,-1
 768 2048 l 1,2,-1
 1024 2048 l 1,3,-1
 1024 2560 l 1,0,-1
512 2048 m 1,4,-1
 256 2048 l 1,5,-1
 256 2560 l 1,6,-1
 512 2560 l 1,7,-1
 512 2816 l 1,8,-1
 1280 2816 l 1,9,-1
 1280 2560 l 1,10,-1
 1536 2560 l 1,11,-1
 1536 2048 l 1,12,-1
 1280 2048 l 1,13,-1
 1280 1792 l 1,14,-1
 512 1792 l 1,15,-1
 512 2048 l 1,4,-1
EndSplineSet
Validated: 1
EndChar

StartChar: ugrave
Encoding: 249 249 248
Width: 2304
GlyphClass: 1
Flags: W
LayerCount: 2
Fore
SplineSet
768 1280 m 1,0,-1
 1280 1280 l 1,1,-1
 1280 768 l 1,2,-1
 768 768 l 1,3,-1
 768 1280 l 1,0,-1
EndSplineSet
Validated: 1
EndChar

StartChar: uacute
Encoding: 250 250 249
Width: 2304
GlyphClass: 1
Flags: W
LayerCount: 2
Fore
SplineSet
768 1280 m 1,0,-1
 1280 1280 l 1,1,-1
 1280 1024 l 1,2,-1
 768 1024 l 1,3,-1
 768 1280 l 1,0,-1
EndSplineSet
Validated: 1
EndChar

StartChar: ucircumflex
Encoding: 251 251 250
Width: 2304
GlyphClass: 1
Flags: W
LayerCount: 2
Fore
SplineSet
0 1280 m 1,0,-1
 768 1280 l 1,1,-1
 768 512 l 1,2,-1
 1024 512 l 1,3,-1
 1024 2816 l 1,4,-1
 2048 2816 l 1,5,-1
 2048 2560 l 1,6,-1
 1536 2560 l 1,7,-1
 1536 0 l 1,8,-1
 768 0 l 1,9,-1
 768 256 l 1,10,-1
 512 256 l 1,11,-1
 512 512 l 1,12,-1
 256 512 l 1,13,-1
 256 1024 l 1,14,-1
 0 1024 l 1,15,-1
 0 1280 l 1,0,-1
EndSplineSet
Validated: 1
EndChar

StartChar: udieresis
Encoding: 252 252 251
Width: 2304
GlyphClass: 1
Flags: W
LayerCount: 2
Fore
SplineSet
1024 2816 m 1,0,-1
 1536 2816 l 1,1,-1
 1536 2560 l 1,2,-1
 1792 2560 l 1,3,-1
 1792 1280 l 1,4,-1
 1280 1280 l 1,5,-1
 1280 2560 l 1,6,-1
 1024 2560 l 1,7,-1
 1024 2816 l 1,0,-1
512 2560 m 1,8,-1
 256 2560 l 1,9,-1
 256 2816 l 1,10,-1
 768 2816 l 1,11,-1
 768 2560 l 1,12,-1
 1024 2560 l 1,13,-1
 1024 1280 l 1,14,-1
 512 1280 l 1,15,-1
 512 2560 l 1,8,-1
EndSplineSet
Validated: 5
EndChar

StartChar: yacute
Encoding: 253 253 252
Width: 2304
GlyphClass: 1
Flags: W
LayerCount: 2
Fore
SplineSet
256 1536 m 1,0,-1
 512 1536 l 1,1,-1
 512 1792 l 1,2,-1
 768 1792 l 1,3,-1
 768 2048 l 1,4,-1
 1024 2048 l 1,5,-1
 1024 2304 l 1,6,-1
 1280 2304 l 1,7,-1
 1280 2560 l 1,8,-1
 768 2560 l 1,9,-1
 768 2304 l 1,10,-1
 256 2304 l 1,11,-1
 256 2560 l 1,12,-1
 512 2560 l 1,13,-1
 512 2816 l 1,14,-1
 1536 2816 l 1,15,-1
 1536 2560 l 1,16,-1
 1792 2560 l 1,17,-1
 1792 2304 l 1,18,-1
 1536 2304 l 1,19,-1
 1536 2048 l 1,20,-1
 1280 2048 l 1,21,-1
 1280 1792 l 1,22,-1
 1024 1792 l 1,23,-1
 1024 1536 l 1,24,-1
 1536 1536 l 1,25,-1
 1536 1792 l 1,26,-1
 1792 1792 l 1,27,-1
 1792 1280 l 1,28,-1
 256 1280 l 1,29,-1
 256 1536 l 1,0,-1
EndSplineSet
Validated: 1
EndChar

StartChar: uni25A0
Encoding: 254 254 253
Width: 2304
GlyphClass: 1
Flags: W
LayerCount: 2
Fore
SplineSet
256 2048 m 1,0,-1
 1792 2048 l 1,1,-1
 1792 256 l 1,2,-1
 256 256 l 1,3,-1
 256 2048 l 1,0,-1
EndSplineSet
Validated: 1
EndChar

StartChar: uni0001
Encoding: 1 1 255
Width: 2304
GlyphClass: 1
Flags: W
LayerCount: 2
Fore
SplineSet
1280 2048 m 1,0,-1
 1536 2048 l 1,1,-1
 1536 1792 l 1,2,-1
 1280 1792 l 1,3,-1
 1280 2048 l 1,0,-1
512 2048 m 1,4,-1
 768 2048 l 1,5,-1
 768 1792 l 1,6,-1
 512 1792 l 1,7,-1
 512 2048 l 1,4,-1
512 1280 m 1,8,-1
 1536 1280 l 1,9,-1
 1536 1024 l 1,10,-1
 1280 1024 l 1,11,-1
 1280 768 l 1,12,-1
 768 768 l 1,13,-1
 768 1024 l 1,14,-1
 512 1024 l 1,15,-1
 512 1280 l 1,8,-1
0 2304 m 1,16,-1
 256 2304 l 1,17,-1
 256 256 l 1,18,-1
 1792 256 l 1,19,-1
 1792 0 l 1,20,-1
 256 0 l 1,21,-1
 256 256 l 1,22,-1
 0 256 l 1,23,-1
 0 2304 l 1,16,-1
1792 2304 m 1,24,-1
 258 2304 l 1,25,-1
 256 2306 l 1,26,-1
 256 2560 l 1,27,-1
 1792 2560 l 1,28,-1
 1792 2304 l 1,29,-1
 2048 2304 l 1,30,-1
 2048 256 l 1,31,-1
 1792 256 l 1,32,-1
 1792 2304 l 1,24,-1
EndSplineSet
Validated: 5
EndChar

StartChar: uni0080
Encoding: 128 128 256
Width: 2304
Flags: W
LayerCount: 2
Fore
SplineSet
256 -256 m 1,0,-1
 768 -256 l 1,1,-1
 768 0 l 1,2,-1
 512 0 l 1,3,-1
 512 256 l 1,4,-1
 256 256 l 1,5,-1
 256 512 l 1,6,-1
 0 512 l 1,7,-1
 0 2048 l 1,8,-1
 256 2048 l 1,9,-1
 256 2304 l 1,10,-1
 512 2304 l 1,11,-1
 512 2560 l 1,12,-1
 1536 2560 l 1,13,-1
 1536 2304 l 1,14,-1
 1792 2304 l 1,15,-1
 1792 1792 l 1,16,-1
 1536 1792 l 1,17,-1
 1536 2048 l 1,18,-1
 1280 2048 l 1,19,-1
 1280 2304 l 1,20,-1
 768 2304 l 1,21,-1
 768 2048 l 1,22,-1
 512 2048 l 1,23,-1
 512 512 l 1,24,-1
 768 512 l 1,25,-1
 768 256 l 1,26,-1
 1280 256 l 1,27,-1
 1280 512 l 1,28,-1
 1536 512 l 1,29,-1
 1536 768 l 1,30,-1
 1792 768 l 1,31,-1
 1792 256 l 1,32,-1
 1536 256 l 1,33,-1
 1536 0 l 1,34,-1
 1280 0 l 1,35,-1
 1280 -256 l 1,36,-1
 1024 -256 l 1,37,-1
 1024 -512 l 1,38,-1
 256 -512 l 1,39,-1
 256 -256 l 1,0,-1
EndSplineSet
Validated: 1
EndChar

StartChar: uni0082
Encoding: 130 130 257
Width: 2304
Flags: W
LayerCount: 2
Fore
SplineSet
512 1280 m 1,0,-1
 1280 1280 l 1,1,-1
 1280 1536 l 1,2,-1
 512 1536 l 1,3,-1
 512 1280 l 1,0,-1
768 2560 m 1,4,-1
 1024 2560 l 1,5,-1
 1024 2816 l 1,6,-1
 1536 2816 l 1,7,-1
 1536 2560 l 1,8,-1
 1280 2560 l 1,9,-1
 1280 2304 l 1,10,-1
 1024 2304 l 1,11,-1
 1024 2048 l 1,12,-1
 512 2048 l 1,13,-1
 512 2304 l 1,14,-1
 768 2304 l 1,15,-1
 768 2560 l 1,4,-1
256 1792 m 1,16,-1
 1536 1792 l 1,17,-1
 1536 1536 l 1,18,-1
 1792 1536 l 1,19,-1
 1792 1024 l 1,20,-1
 512 1024 l 1,21,-1
 512 256 l 1,22,-1
 1280 256 l 1,23,-1
 1280 512 l 1,24,-1
 1792 512 l 1,25,-1
 1792 256 l 1,26,-1
 1536 256 l 1,27,-1
 1536 0 l 1,28,-1
 256 0 l 1,29,-1
 256 256 l 1,30,-1
 0 256 l 1,31,-1
 0 1536 l 1,32,-1
 256 1536 l 1,33,-1
 256 1792 l 1,16,-1
EndSplineSet
Validated: 1
EndChar

StartChar: uni0083
Encoding: 131 131 258
Width: 2304
Flags: W
LayerCount: 2
Fore
SplineSet
256 2304 m 1,0,-1
 512 2304 l 1,1,-1
 512 2560 l 1,2,-1
 768 2560 l 1,3,-1
 768 2816 l 1,4,-1
 1024 2816 l 1,5,-1
 1024 2560 l 1,6,-1
 1280 2560 l 1,7,-1
 1280 2304 l 1,8,-1
 1536 2304 l 1,9,-1
 1536 2048 l 1,10,-1
 1024 2048 l 1,11,-1
 1024 2304 l 1,12,-1
 768 2304 l 1,13,-1
 768 2048 l 1,14,-1
 256 2048 l 1,15,-1
 256 2304 l 1,0,-1
1024 0 m 1,16,-1
 256 0 l 1,17,-1
 256 256 l 1,18,-1
 0 256 l 1,19,-1
 0 1024 l 1,20,-1
 256 1024 l 1,21,-1
 256 1280 l 1,22,-1
 1024 1280 l 1,23,-1
 1024 1536 l 1,24,-1
 256 1536 l 1,25,-1
 256 1792 l 1,26,-1
 1280 1792 l 1,27,-1
 1280 1536 l 1,28,-1
 1536 1536 l 1,29,-1
 1536 256 l 1,30,-1
 1792 256 l 1,31,-1
 1792 0 l 1,32,-1
 1280 0 l 1,33,-1
 1280 256 l 1,34,-1
 1026 256 l 1,35,-1
 1024 258 l 1,36,-1
 1024 1024 l 1,37,-1
 512 1024 l 1,38,-1
 512 256 l 1,39,-1
 1024 256 l 1,40,-1
 1024 0 l 1,16,-1
EndSplineSet
Validated: 1
EndChar

StartChar: uni0084
Encoding: 132 132 259
Width: 2304
Flags: W
LayerCount: 2
Fore
SplineSet
1024 2560 m 1,0,-1
 1536 2560 l 1,1,-1
 1536 2304 l 1,2,-1
 1024 2304 l 1,3,-1
 1024 2560 l 1,0,-1
0 2560 m 1,4,-1
 512 2560 l 1,5,-1
 512 2304 l 1,6,-1
 0 2304 l 1,7,-1
 0 2560 l 1,4,-1
1024 0 m 1,8,-1
 256 0 l 1,9,-1
 256 256 l 1,10,-1
 0 256 l 1,11,-1
 0 1024 l 1,12,-1
 256 1024 l 1,13,-1
 256 1280 l 1,14,-1
 1024 1280 l 1,15,-1
 1024 1536 l 1,16,-1
 256 1536 l 1,17,-1
 256 1792 l 1,18,-1
 1280 1792 l 1,19,-1
 1280 1536 l 1,20,-1
 1536 1536 l 1,21,-1
 1536 256 l 1,22,-1
 1792 256 l 1,23,-1
 1792 0 l 1,24,-1
 1280 0 l 1,25,-1
 1280 256 l 1,26,-1
 1026 256 l 1,27,-1
 1024 258 l 1,28,-1
 1024 1024 l 1,29,-1
 512 1024 l 1,30,-1
 512 256 l 1,31,-1
 1024 256 l 1,32,-1
 1024 0 l 1,8,-1
EndSplineSet
Validated: 1
EndChar

StartChar: uni0085
Encoding: 133 133 260
Width: 2304
Flags: W
LayerCount: 2
Fore
SplineSet
768 2304 m 1,0,-1
 512 2304 l 1,1,-1
 512 2560 l 1,2,-1
 256 2560 l 1,3,-1
 256 2816 l 1,4,-1
 768 2816 l 1,5,-1
 768 2560 l 1,6,-1
 1024 2560 l 1,7,-1
 1024 2304 l 1,8,-1
 1280 2304 l 1,9,-1
 1280 2048 l 1,10,-1
 768 2048 l 1,11,-1
 768 2304 l 1,0,-1
1024 0 m 1,12,-1
 256 0 l 1,13,-1
 256 256 l 1,14,-1
 0 256 l 1,15,-1
 0 1024 l 1,16,-1
 256 1024 l 1,17,-1
 256 1280 l 1,18,-1
 1024 1280 l 1,19,-1
 1024 1536 l 1,20,-1
 256 1536 l 1,21,-1
 256 1792 l 1,22,-1
 1280 1792 l 1,23,-1
 1280 1536 l 1,24,-1
 1536 1536 l 1,25,-1
 1536 256 l 1,26,-1
 1792 256 l 1,27,-1
 1792 0 l 1,28,-1
 1280 0 l 1,29,-1
 1280 256 l 1,30,-1
 1026 256 l 1,31,-1
 1024 258 l 1,32,-1
 1024 1024 l 1,33,-1
 512 1024 l 1,34,-1
 512 256 l 1,35,-1
 1024 256 l 1,36,-1
 1024 0 l 1,12,-1
EndSplineSet
Validated: 1
EndChar

StartChar: uni0086
Encoding: 134 134 261
Width: 2304
Flags: W
LayerCount: 2
Fore
SplineSet
1024 2560 m 1,0,-1
 768 2560 l 1,1,-1
 768 2304 l 1,2,-1
 1024 2304 l 1,3,-1
 1024 2560 l 1,0,-1
256 2560 m 1,4,-1
 512 2560 l 1,5,-1
 512 2816 l 1,6,-1
 1280 2816 l 1,7,-1
 1280 2560 l 1,8,-1
 1536 2560 l 1,9,-1
 1536 2304 l 1,10,-1
 1280 2304 l 1,11,-1
 1280 2048 l 1,12,-1
 512 2048 l 1,13,-1
 512 2304 l 1,14,-1
 256 2304 l 1,15,-1
 256 2560 l 1,4,-1
1024 0 m 1,16,-1
 256 0 l 1,17,-1
 256 256 l 1,18,-1
 0 256 l 1,19,-1
 0 1024 l 1,20,-1
 256 1024 l 1,21,-1
 256 1280 l 1,22,-1
 1024 1280 l 1,23,-1
 1024 1536 l 1,24,-1
 256 1536 l 1,25,-1
 256 1792 l 1,26,-1
 1280 1792 l 1,27,-1
 1280 1536 l 1,28,-1
 1536 1536 l 1,29,-1
 1536 256 l 1,30,-1
 1792 256 l 1,31,-1
 1792 0 l 1,32,-1
 1280 0 l 1,33,-1
 1280 256 l 1,34,-1
 1026 256 l 1,35,-1
 1024 258 l 1,36,-1
 1024 1024 l 1,37,-1
 512 1024 l 1,38,-1
 512 256 l 1,39,-1
 1024 256 l 1,40,-1
 1024 0 l 1,16,-1
EndSplineSet
Validated: 1
EndChar

StartChar: uni0087
Encoding: 135 135 262
Width: 2304
Flags: W
LayerCount: 2
Fore
SplineSet
256 -256 m 1,0,-1
 768 -256 l 1,1,-1
 768 0 l 1,2,-1
 256 0 l 1,3,-1
 256 256 l 1,4,-1
 0 256 l 1,5,-1
 0 1536 l 1,6,-1
 256 1536 l 1,7,-1
 256 1792 l 1,8,-1
 1536 1792 l 1,9,-1
 1536 1536 l 1,10,-1
 1792 1536 l 1,11,-1
 1792 1280 l 1,12,-1
 1280 1280 l 1,13,-1
 1280 1536 l 1,14,-1
 512 1536 l 1,15,-1
 512 256 l 1,16,-1
 1280 256 l 1,17,-1
 1280 512 l 1,18,-1
 1792 512 l 1,19,-1
 1792 256 l 1,20,-1
 1536 256 l 1,21,-1
 1536 0 l 1,22,-1
 1280 0 l 1,23,-1
 1280 -256 l 1,24,-1
 1024 -256 l 1,25,-1
 1024 -512 l 1,26,-1
 256 -512 l 1,27,-1
 256 -256 l 1,0,-1
EndSplineSet
Validated: 1
EndChar

StartChar: uni0088
Encoding: 136 136 263
Width: 2304
Flags: W
LayerCount: 2
Fore
SplineSet
512 1280 m 1,0,-1
 1280 1280 l 1,1,-1
 1280 1536 l 1,2,-1
 512 1536 l 1,3,-1
 512 1280 l 1,0,-1
768 2816 m 1,4,-1
 1024 2816 l 1,5,-1
 1024 2560 l 1,6,-1
 1280 2560 l 1,7,-1
 1280 2304 l 1,8,-1
 1536 2304 l 1,9,-1
 1536 2048 l 1,10,-1
 1024 2048 l 1,11,-1
 1024 2304 l 1,12,-1
 768 2304 l 1,13,-1
 768 2048 l 1,14,-1
 256 2048 l 1,15,-1
 256 2304 l 1,16,-1
 512 2304 l 1,17,-1
 512 2560 l 1,18,-1
 768 2560 l 1,19,-1
 768 2816 l 1,4,-1
256 1792 m 1,20,-1
 1536 1792 l 1,21,-1
 1536 1536 l 1,22,-1
 1792 1536 l 1,23,-1
 1792 1024 l 1,24,-1
 512 1024 l 1,25,-1
 512 256 l 1,26,-1
 1280 256 l 1,27,-1
 1280 512 l 1,28,-1
 1792 512 l 1,29,-1
 1792 256 l 1,30,-1
 1536 256 l 1,31,-1
 1536 0 l 1,32,-1
 256 0 l 1,33,-1
 256 256 l 1,34,-1
 0 256 l 1,35,-1
 0 1536 l 1,36,-1
 256 1536 l 1,37,-1
 256 1792 l 1,20,-1
EndSplineSet
Validated: 1
EndChar

StartChar: uni0089
Encoding: 137 137 264
Width: 2304
Flags: W
LayerCount: 2
Fore
SplineSet
1280 2560 m 1,0,-1
 1792 2560 l 1,1,-1
 1792 2304 l 1,2,-1
 1280 2304 l 1,3,-1
 1280 2560 l 1,0,-1
0 2560 m 1,4,-1
 512 2560 l 1,5,-1
 512 2304 l 1,6,-1
 0 2304 l 1,7,-1
 0 2560 l 1,4,-1
512 1280 m 1,8,-1
 1280 1280 l 1,9,-1
 1280 1536 l 1,10,-1
 512 1536 l 1,11,-1
 512 1280 l 1,8,-1
256 1792 m 1,12,-1
 1536 1792 l 1,13,-1
 1536 1536 l 1,14,-1
 1792 1536 l 1,15,-1
 1792 1024 l 1,16,-1
 512 1024 l 1,17,-1
 512 256 l 1,18,-1
 1280 256 l 1,19,-1
 1280 512 l 1,20,-1
 1792 512 l 1,21,-1
 1792 256 l 1,22,-1
 1536 256 l 1,23,-1
 1536 0 l 1,24,-1
 256 0 l 1,25,-1
 256 256 l 1,26,-1
 0 256 l 1,27,-1
 0 1536 l 1,28,-1
 256 1536 l 1,29,-1
 256 1792 l 1,12,-1
EndSplineSet
Validated: 1
EndChar

StartChar: uni008A
Encoding: 138 138 265
Width: 2304
Flags: W
LayerCount: 2
Fore
SplineSet
512 1280 m 1,0,-1
 1280 1280 l 1,1,-1
 1280 1536 l 1,2,-1
 512 1536 l 1,3,-1
 512 1280 l 1,0,-1
768 2304 m 1,4,-1
 512 2304 l 1,5,-1
 512 2560 l 1,6,-1
 256 2560 l 1,7,-1
 256 2816 l 1,8,-1
 768 2816 l 1,9,-1
 768 2560 l 1,10,-1
 1024 2560 l 1,11,-1
 1024 2304 l 1,12,-1
 1280 2304 l 1,13,-1
 1280 2048 l 1,14,-1
 768 2048 l 1,15,-1
 768 2304 l 1,4,-1
256 1792 m 1,16,-1
 1536 1792 l 1,17,-1
 1536 1536 l 1,18,-1
 1792 1536 l 1,19,-1
 1792 1024 l 1,20,-1
 512 1024 l 1,21,-1
 512 256 l 1,22,-1
 1280 256 l 1,23,-1
 1280 512 l 1,24,-1
 1792 512 l 1,25,-1
 1792 256 l 1,26,-1
 1536 256 l 1,27,-1
 1536 0 l 1,28,-1
 256 0 l 1,29,-1
 256 256 l 1,30,-1
 0 256 l 1,31,-1
 0 1536 l 1,32,-1
 256 1536 l 1,33,-1
 256 1792 l 1,16,-1
EndSplineSet
Validated: 1
EndChar

StartChar: uni008B
Encoding: 139 139 266
Width: 2304
Flags: W
LayerCount: 2
Fore
SplineSet
256 2560 m 1,0,-1
 768 2560 l 1,1,-1
 768 2304 l 1,2,-1
 256 2304 l 1,3,-1
 256 2560 l 1,0,-1
1280 2560 m 1,4,-1
 1792 2560 l 1,5,-1
 1792 2304 l 1,6,-1
 1280 2304 l 1,7,-1
 1280 2560 l 1,4,-1
512 1792 m 1,8,-1
 1280 1792 l 1,9,-1
 1280 256 l 1,10,-1
 1536 256 l 1,11,-1
 1536 0 l 1,12,-1
 512 0 l 1,13,-1
 512 256 l 1,14,-1
 768 256 l 1,15,-1
 768 1536 l 1,16,-1
 512 1536 l 1,17,-1
 512 1792 l 1,8,-1
EndSplineSet
Validated: 1
EndChar

StartChar: uni008C
Encoding: 140 140 267
Width: 2304
Flags: W
LayerCount: 2
Fore
SplineSet
1280 2304 m 1,0,-1
 768 2304 l 1,1,-1
 768 2048 l 1,2,-1
 256 2048 l 1,3,-1
 256 2304 l 1,4,-1
 512 2304 l 1,5,-1
 512 2560 l 1,6,-1
 768 2560 l 1,7,-1
 768 2816 l 1,8,-1
 1280 2816 l 1,9,-1
 1280 2560 l 1,10,-1
 1536 2560 l 1,11,-1
 1536 2304 l 1,12,-1
 1792 2304 l 1,13,-1
 1792 2048 l 1,14,-1
 1280 2048 l 1,15,-1
 1280 2304 l 1,0,-1
512 1792 m 1,16,-1
 1280 1792 l 1,17,-1
 1280 256 l 1,18,-1
 1536 256 l 1,19,-1
 1536 0 l 1,20,-1
 512 0 l 1,21,-1
 512 256 l 1,22,-1
 768 256 l 1,23,-1
 768 1536 l 1,24,-1
 512 1536 l 1,25,-1
 512 1792 l 1,16,-1
EndSplineSet
Validated: 1
EndChar

StartChar: uni0091
Encoding: 145 145 268
Width: 2304
Flags: W
LayerCount: 2
Fore
SplineSet
1024 1024 m 1,0,-1
 1280 1024 l 1,1,-1
 1280 1536 l 1,2,-1
 1026 1536 l 1,3,-1
 1024 1538 l 1,4,-1
 1024 1792 l 1,5,-1
 1536 1792 l 1,6,-1
 1536 1536 l 1,7,-1
 1792 1536 l 1,8,-1
 1792 768 l 1,9,-1
 1280 768 l 1,10,-1
 1280 256 l 1,11,-1
 1792 256 l 1,12,-1
 1792 0 l 1,13,-1
 1024 0 l 1,14,-1
 1024 256 l 1,15,-1
 770 256 l 1,16,-1
 768 258 l 1,17,-1
 768 768 l 1,18,-1
 512 768 l 1,19,-1
 512 256 l 1,20,-1
 768 256 l 1,21,-1
 768 0 l 1,22,-1
 256 0 l 1,23,-1
 256 256 l 1,24,-1
 0 256 l 1,25,-1
 0 768 l 1,26,-1
 256 768 l 1,27,-1
 256 1024 l 1,28,-1
 512 1024 l 1,29,-1
 512 1536 l 1,30,-1
 0 1536 l 1,31,-1
 0 1792 l 1,32,-1
 768 1792 l 1,33,-1
 768 1536 l 1,34,-1
 1024 1536 l 1,35,-1
 1024 1024 l 1,0,-1
EndSplineSet
Validated: 1
EndChar

StartChar: uni0092
Encoding: 146 146 269
Width: 2304
Flags: W
LayerCount: 2
Fore
SplineSet
512 2048 m 1,0,-1
 1024 2048 l 1,1,-1
 1024 2816 l 1,2,-1
 768 2816 l 1,3,-1
 768 2560 l 1,4,-1
 512 2560 l 1,5,-1
 512 2048 l 1,0,-1
1024 1792 m 1,6,-1
 512 1792 l 1,7,-1
 512 0 l 1,8,-1
 0 0 l 1,9,-1
 0 2560 l 1,10,-1
 256 2560 l 1,11,-1
 256 2816 l 1,12,-1
 512 2816 l 1,13,-1
 512 3072 l 1,14,-1
 1792 3072 l 1,15,-1
 1792 2816 l 1,16,-1
 1536 2816 l 1,17,-1
 1536 2048 l 1,18,-1
 1792 2048 l 1,19,-1
 1792 1792 l 1,20,-1
 1536 1792 l 1,21,-1
 1536 256 l 1,22,-1
 1792 256 l 1,23,-1
 1792 0 l 1,24,-1
 1024 0 l 1,25,-1
 1024 1792 l 1,6,-1
EndSplineSet
Validated: 1
EndChar

StartChar: uni0093
Encoding: 147 147 270
Width: 2304
Flags: W
LayerCount: 2
Fore
SplineSet
1024 2304 m 1,0,-1
 768 2304 l 1,1,-1
 768 2048 l 1,2,-1
 256 2048 l 1,3,-1
 256 2304 l 1,4,-1
 512 2304 l 1,5,-1
 512 2560 l 1,6,-1
 768 2560 l 1,7,-1
 768 2816 l 1,8,-1
 1024 2816 l 1,9,-1
 1024 2560 l 1,10,-1
 1280 2560 l 1,11,-1
 1280 2304 l 1,12,-1
 1536 2304 l 1,13,-1
 1536 2048 l 1,14,-1
 1024 2048 l 1,15,-1
 1024 2304 l 1,0,-1
1280 1536 m 1,16,-1
 512 1536 l 1,17,-1
 512 256 l 1,18,-1
 1280 256 l 1,19,-1
 1280 1536 l 1,16,-1
256 256 m 1,20,-1
 0 256 l 1,21,-1
 0 1536 l 1,22,-1
 256 1536 l 1,23,-1
 256 1792 l 1,24,-1
 1536 1792 l 1,25,-1
 1536 1536 l 1,26,-1
 1792 1536 l 1,27,-1
 1792 256 l 1,28,-1
 1536 256 l 1,29,-1
 1536 0 l 1,30,-1
 256 0 l 1,31,-1
 256 256 l 1,20,-1
EndSplineSet
Validated: 1
EndChar

StartChar: uni0094
Encoding: 148 148 271
Width: 2304
Flags: W
LayerCount: 2
Fore
SplineSet
1280 2560 m 1,0,-1
 1792 2560 l 1,1,-1
 1792 2304 l 1,2,-1
 1280 2304 l 1,3,-1
 1280 2560 l 1,0,-1
0 2560 m 1,4,-1
 512 2560 l 1,5,-1
 512 2304 l 1,6,-1
 0 2304 l 1,7,-1
 0 2560 l 1,4,-1
1280 1536 m 1,8,-1
 512 1536 l 1,9,-1
 512 256 l 1,10,-1
 1280 256 l 1,11,-1
 1280 1536 l 1,8,-1
256 256 m 1,12,-1
 0 256 l 1,13,-1
 0 1536 l 1,14,-1
 256 1536 l 1,15,-1
 256 1792 l 1,16,-1
 1536 1792 l 1,17,-1
 1536 1536 l 1,18,-1
 1792 1536 l 1,19,-1
 1792 256 l 1,20,-1
 1536 256 l 1,21,-1
 1536 0 l 1,22,-1
 256 0 l 1,23,-1
 256 256 l 1,12,-1
EndSplineSet
Validated: 1
EndChar

StartChar: uni0095
Encoding: 149 149 272
Width: 2304
Flags: W
LayerCount: 2
Fore
SplineSet
256 2816 m 1,0,-1
 768 2816 l 1,1,-1
 768 2560 l 1,2,-1
 1024 2560 l 1,3,-1
 1024 2304 l 1,4,-1
 1280 2304 l 1,5,-1
 1280 2048 l 1,6,-1
 768 2048 l 1,7,-1
 768 2304 l 1,8,-1
 512 2304 l 1,9,-1
 512 2560 l 1,10,-1
 256 2560 l 1,11,-1
 256 2816 l 1,0,-1
1280 1536 m 1,12,-1
 512 1536 l 1,13,-1
 512 256 l 1,14,-1
 1280 256 l 1,15,-1
 1280 1536 l 1,12,-1
256 256 m 1,16,-1
 0 256 l 1,17,-1
 0 1536 l 1,18,-1
 256 1536 l 1,19,-1
 256 1792 l 1,20,-1
 1536 1792 l 1,21,-1
 1536 1536 l 1,22,-1
 1792 1536 l 1,23,-1
 1792 256 l 1,24,-1
 1536 256 l 1,25,-1
 1536 0 l 1,26,-1
 256 0 l 1,27,-1
 256 256 l 1,16,-1
EndSplineSet
Validated: 1
EndChar

StartChar: uni0096
Encoding: 150 150 273
Width: 2304
Flags: W
LayerCount: 2
Fore
SplineSet
1024 2304 m 1,0,-1
 512 2304 l 1,1,-1
 512 2048 l 1,2,-1
 0 2048 l 1,3,-1
 0 2304 l 1,4,-1
 256 2304 l 1,5,-1
 256 2560 l 1,6,-1
 512 2560 l 1,7,-1
 512 2816 l 1,8,-1
 1024 2816 l 1,9,-1
 1024 2560 l 1,10,-1
 1280 2560 l 1,11,-1
 1280 2304 l 1,12,-1
 1536 2304 l 1,13,-1
 1536 2048 l 1,14,-1
 1024 2048 l 1,15,-1
 1024 2304 l 1,0,-1
1024 1792 m 1,16,-1
 1536 1792 l 1,17,-1
 1536 256 l 1,18,-1
 1792 256 l 1,19,-1
 1792 0 l 1,20,-1
 1280 0 l 1,21,-1
 1280 256 l 1,22,-1
 1024 256 l 1,23,-1
 1024 1792 l 1,16,-1
0 1792 m 1,24,-1
 512 1792 l 1,25,-1
 512 256 l 1,26,-1
 1024 256 l 1,27,-1
 1024 0 l 1,28,-1
 256 0 l 1,29,-1
 256 256 l 1,30,-1
 0 256 l 1,31,-1
 0 1792 l 1,24,-1
EndSplineSet
Validated: 5
EndChar

StartChar: uni0097
Encoding: 151 151 274
Width: 2304
Flags: W
LayerCount: 2
Fore
SplineSet
256 2816 m 1,0,-1
 768 2816 l 1,1,-1
 768 2560 l 1,2,-1
 1024 2560 l 1,3,-1
 1024 2304 l 1,4,-1
 1280 2304 l 1,5,-1
 1280 2048 l 1,6,-1
 768 2048 l 1,7,-1
 768 2304 l 1,8,-1
 512 2304 l 1,9,-1
 512 2560 l 1,10,-1
 256 2560 l 1,11,-1
 256 2816 l 1,0,-1
1024 1792 m 1,12,-1
 1536 1792 l 1,13,-1
 1536 256 l 1,14,-1
 1792 256 l 1,15,-1
 1792 0 l 1,16,-1
 1280 0 l 1,17,-1
 1280 256 l 1,18,-1
 1024 256 l 1,19,-1
 1024 1792 l 1,12,-1
0 1792 m 1,20,-1
 512 1792 l 1,21,-1
 512 256 l 1,22,-1
 1024 256 l 1,23,-1
 1024 0 l 1,24,-1
 256 0 l 1,25,-1
 256 256 l 1,26,-1
 0 256 l 1,27,-1
 0 1792 l 1,20,-1
EndSplineSet
Validated: 5
EndChar

StartChar: uni0098
Encoding: 152 152 275
Width: 2304
Flags: W
LayerCount: 2
Fore
SplineSet
0 2560 m 1,0,-1
 512 2560 l 1,1,-1
 512 2304 l 1,2,-1
 0 2304 l 1,3,-1
 0 2560 l 1,0,-1
1280 2560 m 1,4,-1
 1792 2560 l 1,5,-1
 1792 2304 l 1,6,-1
 1280 2304 l 1,7,-1
 1280 2560 l 1,4,-1
0 -512 m 1,8,-1
 1024 -512 l 1,9,-1
 1024 -256 l 1,10,-1
 1280 -256 l 1,11,-1
 1280 0 l 1,12,-1
 256 0 l 1,13,-1
 256 256 l 1,14,-1
 0 256 l 1,15,-1
 0 1792 l 1,16,-1
 512 1792 l 1,17,-1
 512 256 l 1,18,-1
 1280 256 l 1,19,-1
 1280 1792 l 1,20,-1
 1792 1792 l 1,21,-1
 1792 -256 l 1,22,-1
 1536 -256 l 1,23,-1
 1536 -512 l 1,24,-1
 1280 -512 l 1,25,-1
 1280 -768 l 1,26,-1
 0 -768 l 1,27,-1
 0 -512 l 1,8,-1
EndSplineSet
Validated: 1
EndChar

StartChar: uni0099
Encoding: 153 153 276
Width: 2304
Flags: W
LayerCount: 2
Fore
SplineSet
1280 2816 m 1,0,-1
 1792 2816 l 1,1,-1
 1792 2560 l 1,2,-1
 1280 2560 l 1,3,-1
 1280 2816 l 1,0,-1
0 2816 m 1,4,-1
 512 2816 l 1,5,-1
 512 2560 l 1,6,-1
 0 2560 l 1,7,-1
 0 2816 l 1,4,-1
1280 2048 m 1,8,-1
 512 2048 l 1,9,-1
 512 256 l 1,10,-1
 1280 256 l 1,11,-1
 1280 2048 l 1,8,-1
0 2048 m 1,12,-1
 256 2048 l 1,13,-1
 256 2304 l 1,14,-1
 1536 2304 l 1,15,-1
 1536 2048 l 1,16,-1
 1792 2048 l 1,17,-1
 1792 256 l 1,18,-1
 1536 256 l 1,19,-1
 1536 0 l 1,20,-1
 256 0 l 1,21,-1
 256 256 l 1,22,-1
 0 256 l 1,23,-1
 0 2048 l 1,12,-1
EndSplineSet
Validated: 1
EndChar

StartChar: uni009A
Encoding: 154 154 277
Width: 2304
Flags: W
LayerCount: 2
Fore
SplineSet
0 2816 m 1,0,-1
 512 2816 l 1,1,-1
 512 2560 l 1,2,-1
 0 2560 l 1,3,-1
 0 2816 l 1,0,-1
1280 2816 m 1,4,-1
 1792 2816 l 1,5,-1
 1792 2560 l 1,6,-1
 1280 2560 l 1,7,-1
 1280 2816 l 1,4,-1
0 2304 m 1,8,-1
 512 2304 l 1,9,-1
 512 256 l 1,10,-1
 1280 256 l 1,11,-1
 1280 2304 l 1,12,-1
 1792 2304 l 1,13,-1
 1792 256 l 1,14,-1
 1536 256 l 1,15,-1
 1536 0 l 1,16,-1
 256 0 l 1,17,-1
 256 256 l 1,18,-1
 0 256 l 1,19,-1
 0 2304 l 1,8,-1
EndSplineSet
Validated: 1
EndChar

StartChar: uni009B
Encoding: 155 155 278
Width: 2304
Flags: W
LayerCount: 2
Fore
SplineSet
1280 2048 m 1,0,-1
 512 2048 l 1,1,-1
 512 768 l 1,2,-1
 1280 768 l 1,3,-1
 1280 1024 l 1,4,-1
 1792 1024 l 1,5,-1
 1792 768 l 1,6,-1
 1536 768 l 1,7,-1
 1536 512 l 1,8,-1
 1280 512 l 1,9,-1
 1280 0 l 1,10,-1
 768 0 l 1,11,-1
 768 512 l 1,12,-1
 256 512 l 1,13,-1
 256 768 l 1,14,-1
 0 768 l 1,15,-1
 0 2048 l 1,16,-1
 256 2048 l 1,17,-1
 256 2304 l 1,18,-1
 768 2304 l 1,19,-1
 768 2816 l 1,20,-1
 1280 2816 l 1,21,-1
 1280 2304 l 1,22,-1
 1536 2304 l 1,23,-1
 1536 2048 l 1,24,-1
 1792 2048 l 1,25,-1
 1792 1792 l 1,26,-1
 1280 1792 l 1,27,-1
 1280 2048 l 1,0,-1
EndSplineSet
Validated: 1
EndChar

StartChar: uni009C
Encoding: 156 156 279
Width: 2304
Flags: W
LayerCount: 2
Fore
SplineSet
1024 2560 m 1,0,-1
 768 2560 l 1,1,-1
 768 1792 l 1,2,-1
 1024 1792 l 1,3,-1
 1024 1536 l 1,4,-1
 768 1536 l 1,5,-1
 768 256 l 1,6,-1
 1280 256 l 1,7,-1
 1280 512 l 1,8,-1
 1792 512 l 1,9,-1
 1792 256 l 1,10,-1
 1536 256 l 1,11,-1
 1536 0 l 1,12,-1
 0 0 l 1,13,-1
 0 512 l 1,14,-1
 256 512 l 1,15,-1
 256 1536 l 1,16,-1
 0 1536 l 1,17,-1
 0 1792 l 1,18,-1
 256 1792 l 1,19,-1
 256 2560 l 1,20,-1
 512 2560 l 1,21,-1
 512 2816 l 1,22,-1
 1280 2816 l 1,23,-1
 1280 2560 l 1,24,-1
 1536 2560 l 1,25,-1
 1536 2048 l 1,26,-1
 1280 2048 l 1,27,-1
 1280 2304 l 1,28,-1
 1024 2304 l 1,29,-1
 1024 2560 l 1,0,-1
EndSplineSet
Validated: 1
EndChar

StartChar: uni009F
Encoding: 159 159 280
Width: 2304
Flags: W
LayerCount: 2
Fore
SplineSet
256 1536 m 1,0,-1
 768 1536 l 1,1,-1
 768 2560 l 1,2,-1
 1024 2560 l 1,3,-1
 1024 2816 l 1,4,-1
 1792 2816 l 1,5,-1
 1792 2560 l 1,6,-1
 2048 2560 l 1,7,-1
 2048 2304 l 1,8,-1
 1536 2304 l 1,9,-1
 1536 2560 l 1,10,-1
 1280 2560 l 1,11,-1
 1280 1536 l 1,12,-1
 1792 1536 l 1,13,-1
 1792 1280 l 1,14,-1
 1280 1280 l 1,15,-1
 1280 256 l 1,16,-1
 1024 256 l 1,17,-1
 1024 0 l 1,18,-1
 256 0 l 1,19,-1
 256 256 l 1,20,-1
 0 256 l 1,21,-1
 0 512 l 1,22,-1
 512 512 l 1,23,-1
 512 256 l 1,24,-1
 768 256 l 1,25,-1
 768 1280 l 1,26,-1
 256 1280 l 1,27,-1
 256 1536 l 1,0,-1
EndSplineSet
Validated: 1
EndChar
